<mxfile host="app.diagrams.net" agent="Mozilla/5.0 (Windows NT 10.0; Win64; x64) AppleWebKit/537.36 (KHTML, like Gecko) Chrome/128.0.0.0 Safari/537.36" version="24.7.13">
  <diagram name="Page-1" id="Dk1fn-BZdbRF_XW0oS5x">
    <mxGraphModel grid="1" page="1" gridSize="10" guides="1" tooltips="1" connect="1" arrows="1" fold="1" pageScale="1" pageWidth="4681" pageHeight="3300" math="0" shadow="0">
      <root>
        <mxCell id="0" />
        <mxCell id="1" parent="0" />
        <mxCell id="07vgb-UoSSxsXepg9ZPe-28" value="" style="rounded=1;whiteSpace=wrap;html=1;fillColor=#d5e8d4;strokeColor=#82b366;" vertex="1" parent="1">
          <mxGeometry x="370" y="1140" width="2380" height="770" as="geometry" />
        </mxCell>
        <mxCell id="07vgb-UoSSxsXepg9ZPe-3" value="" style="shape=image;verticalLabelPosition=bottom;labelBackgroundColor=default;verticalAlign=top;aspect=fixed;imageAspect=0;image=data:image/png,iVBORw0KGgoAAAANSUhEUgAAAOEAAADhCAMAAAAJbSJIAAAA51BMVEVISErpbUlGRkjx8fFdXV/39/dKSkz4+Pjw8PD09PRAQEJDQ0U9PT/rbUhFRkzq6urWb1RaRUHbcVQ5OTtVQkKSkpSYmJiKV0l6enwyMjXCwsRQUFLU1NRFRUSxsbM4ODigXEphYWOeV0OJiYnf3+Gpqatzc3XR0dGfn6HYZkfpYz9+foDGxsZubnC1tbXS0tLpc1CSWEo+RkpOREFuSUGtZk29a1B5T0OxYUvTbFPfck9IQUaDTkXJblRtT0jtblCDVUU7QDthRTpGQDq1XkfXZkKMT0LtZUTwYEFkSEeeVUc9SkkeHh7PRqsUAAANZklEQVR4nO2cC3fauBLHHRnLtqTgJA4EA4ZQzKPlsQSySZpcSrfbfd3d7/957oxsnuFhuE2OtUf/3dOAY8nz00gzI0Fr5Ag1/t3ShOpLE6ovTai+NKH60oTqSxOqL02ovjSh+tKE6ksTqi9NqL40ofrShOpLE6ovTai+NKH60oTqSxOqL02ovjSh+tKE6ksTqi9NqL40ofrShOpLE6ovTai+NKH60oTqSxOuiVJi5PMvLy/X19cvnI/HcC18M9N+kI4iJIRP7u9+fphegB5+vn285OTvt7Ptx+gYQsIfn65GZ+dznY2uHm4m/A2t+xFKS0jy4eTm8wiwVgSUo+fbS25keS2nJKTjl/9MN/hQM8C8up2M39rM/0MpCcnl0wiBNhFnoLOz6Zf8W9t5utIRhvcXr9y3Oluf78LMMqYhpOzmeR8guHZ2O8lq2khDmL8bneOK26unl3ew9hQdJqTjr6O9Hown6uyJ0Uy68TBh+OX5/IADzzFxzO6y6cWDhOHk8/nZYR8C4vNjJpPGYcKnFHixH6fXRgZD6iFC8phiESaMs1seZm8pHiJkF68LmR2anY8uiWo+pCRNHF3qiajmw/zL9BjA8+dvqvlwfH+UC8/ObrO3l9pPyG+PAzyfZi8n7ie8nh4FCDupL+TdTE+pvYTky5GT9PzsRjHCm+NcCIhPmVuI+wmPXIa4ENUi5E+p0/2ccMTez/Z02k94VDaMCSdZO5Z6A8KMxZo3IMyY9hN+PhLw7Gx0nTEXHvLh8YSTrFWm+wgJezqe8BdOUO+IcEC7CGnemHy9mx46odnQ7Oy3O6nH7Bwu7vRhPpzOpM3HESbHUqOn7BOGl0fWpJJwlozI+dXl+3Ls1s5Zarw8xx+hxX/u0vkOXWSe0KD8Rn4Qivq48zjxfHZ1sU3Tx/fF2KPdhAaZTK5jfXvYBXj1OL9nXRMjM0kj1ecWf1+OdiDebvuQOzNwUqk+e8rvJhzns8XzWocJCWe/7sz8V984l9k95FIkbhG/zgb7QULy5eF5tDMrzkbPF3fcyE++f0R9fiSUvHz4+Bu++T0bhc2B81JwzsOBXfBsdJ83Pnz68xPoz4/XeX7zxyf5+uyvd6PYp4M+fLnAlLgLDzLf7OxrPv9dQn3647e/jPGHT4nuM+HEg4T8drSayWezZQEQVwOzi8t8+PU8Jvw+oeP7j9Khf3y+fh+EAzpISF8eb9c0XSlWp/D+7i9C8uHjB9TvAJUn9//F13eXmXDhYcK8MV7V3+NfFxv/2dU3uMIhX1ADfiFFobu8fJUPs3Fgk/L7NGF+sVdgyyPG9cNRTA6Z2VEslZIwDy6RGo9/mc4n6fnnCfgqXFE+awdtRlpCcnkz193TfIcEy3F6s64vmTsPTkcY5r89j3bVbWsaZe9ji3Q+DG/T4OG8fcieE1MRju+S3HdQ2Tm8WChlpHl4fr5KoWn2Pj5Mt3uC3fBlKmXuSN9I6UN5Sz6NlMgW4DHOQBxfnSyadIUiyyuwuTqlN0LIycZs8aHgjWah0GxwcWKfBrJRPMxKsJCKLN17tK0wLPTkvxfyipCzbmTblmXbUVecHPtJzokiT4673/c8eF2Vz2FRFDm9VN3iRIod7kee5+VONWWDkLKG5zqmazqu41pOg506chXPNe0BpwYNXBPk2rlQgruuO0hDGDaLxWJOIgaeC81PjWEbhDyHaKZlWa4JL5zcqV5kEfRSwNY520FEu8eg+7Zlmk6qDuqR7dol+fjAg+Y/itCvovvMYbEwhB+mWz1xLVK/DIQtmAK8aTvYFbwB7qZtulE9TQ/1qvsWhLwH5lgd32fM9zsAa/d4HBXx7zyR1WyHQZEYcdiIAySNY2d8v2hZptv3qSFfDGFG9AFMtIC7HxNSbD6PkPCTJleTPoDQjAmpHxMS+bs1h6ANSwPi9pspYJ3Q78My8UKMzYSEEdrlEyKEYJQIVqkIsXwC840KZSKm5HAPJ4T5cKv8NgYvAFgkgLBjOXYD3Iiu8/swL2osbk7mzeMBwwsVLuSIMiaCquvYbeiP08SHXPjw33woYBAFGCBWDTDQVL4ROtYJsS+rJWI3sK7lOJ5PGsNarSB4DSJaVOPJwuSs2PEcr1qrCEwL7Vqt1hSi24mici+A4M4Html64CeCC/KfCFZ1hUBUBFub0AUJmv3I8aJhw0/68wsdvFAuwQVWrNVacKtbxm55TOgPhtWo0+JsbkDhJ2ywakCQa5X7Jb7bh5T4YJY9D3XSSNtnPVjy/YoDMcJ1LbcncEqwtmfD4oLIaBfQpALcU6vANZDdCUNwOQQYXDw5aBf9U7ZwytHAxAhLIKBFlivb2zURoj9kf7jy7T4nfsfGXzsYeOEGOUsrLejcdC2zKUPDmgEkNqDVtPHtRnBcI+TUXlnTJIfvKC9BdOhE8DBL9ljihLISpgDghcxiFxk8AOZkK3KlkabVgVkQePCrNpety0HXMq0iTHHbdMwK9Oy5SXPHGtZhOJom9m9jf1aHYwiIc8yC0CrCLy0HM1kbELYa0Pewk8I+H+4khEfZUbnsWdChg2Po4aVhd4iPtBoEH2A6lh31IxszQ5MR0UGzGJNs9RLYV/ZJG8Yg4kRAFDHtfrcW4c8e523whxUVS80+RDq7EAyjahWeZEJ9EHUZEmJ27nRwkK0ogAgDQ7QwwG1waQAY6XjOPh+CthAyJHTcZuD76ApcpxAfwVLqMwHRyLHKQsgHRI3ADwYI3/cNMYR8OqzXyzDwJV6BN1HAijDSHR8SCPTYgOb1PhgY+awFY1/2BWcB9lytC9//5yeAHsBDmYwO8Fh4jTnItAEIYrIZVaAHFhvA5gYEwebXzlISWl0Z4v0aRkhY+hAf23XOuWjgfPLlA6wBdi4g/7lOYEiafr0OboIYwzHe+DJzwKzDiF3E5oxiuVIhovGTB+ubM1EBz3k4SzBbWMt8CF2BpURgP0UwANZzW2APDQucGBvgVLZ9qS4loTffJeAkrFCIIk4ploxzQuYGH28KK/AsOzDk5I7qWL15dQorC3IGoMFYscABo5ptbN3GnNBkRlivBH5l0CwOIbx44WtCmMuY6GBmQA8CzXhtQN/fVmOux1KaBMBNQrfqx4lYxo9GQy62WPhqIB9QloGfVBxJCCUoDIzRhkkKw8/Ae1ahDkkDAgWEWejFks2x2oGVUy+Vod63sVg0txPKypuKmiSUBlivDNhagK0RGvjsjWwh+JIwrursQfyAhaDkXD5gTmhwjJc5WHKwcKF2w/kZejJ0EaxULXvRvMhE38ZqEaKptcuHq4QMDXBXeij5aQnRRVYhmc3x3A4IEkZJ48BEJ1dw3haXym0jBBMdqwTxxu5BkZTDlAPtXDMwcLdhrTQf+DUAhEDcKvbajpvCh5sGNFL6EKsqWLfzyriOYarvywVlD6Buo5S15ZoMgBzmPp4EsEogGNlKiLV3ASMiTnukiuLZABMBCHt12AByURE+IxWcEsUAKi4xsNd8KHdvy8p77sOlAdDDhgH7CaE0gMky9BlESX+IkbnAJKFZFcwgzJClqvDLMk5C4GE0itrC2EaIVbYrAweR0xvmFSQFvAtzJMwKTNyi4/UEwUlnM1nMwRAvCB0Xw+U2QhEbAHsBxqPqugH7CQ0Gi8exom6v140snDAsDoqQZ3sVWogwTg4Ib2BA6OeCoAdX7KHYRshwnwL7JhcqHAyCltwmYiCEW+ByFZLXALdIHYEhzR1CMs2VbXfFh265UIAY+pqQLAwoQSG1bsAhwraFSx7ClCyIrHZCiPUfXEMT+2C930Jfy1joYAWzjVB6BhvIvQTMjpgQjzBwm2i681DawrQNP93Is7Euiwkxv2A06YsthGCAtTDAXTfgACEVPayMYkGZjVtYWZe2pLkOltV4n8DYIC9AWVjfOkvlC+xFRi7elveb8RGG6GL9B81NnAFUVm3AgztCL8kWvGjLiqy8lZDsNuAAIYxvbhiHYdsq53AfFWeLoGvLqzWGj6c0aHr43rajdj2EAgZGs58QYp4KsKcoTlgNedRWceP8F+dVUYri5l4TmlNRgp2C5dpuoQ63mXIQoTKz414DzL0J4RBeAiGl/tIAsHLFgIOEMD9Er9tqdXsi3rol+VDQQqvVJItOeNCAu4qNIM6edL6zxp14vNfHIgQ1r4Tlm0VzPwf9FQdJGcn8AfTWxN3z4h7hJ6cGcuNPNzuJDSg0/A0DDhNCViCYBkhyRJkQQiSFOnflPohji/M+uvxaMFaPJDneICtfF8ZuCVkee1IoQgVbbvEJw006xZy0NCk5N5kfVsw7n5eQsgeyYcBhwmREFi/nhCsDOb9pfoXOH7/edO0FXfnz1TPiM57l/ytX6WpXZO3dDgPSEa5oTqiqNKEktOx/NSHJFWVloapS/LsYGFk3DyEVUtp/Y+i0z/2yIP3vtakvTai+NKH60oTqSxOqL02ovjSh+tKE6ksTqi9NqL40ofrShOpLE6ovTai+NKH60oTqSxOqL02ovjSh+tKE6ksTqi9NqL40ofrShOpLE6ovTai+NKH60oTqSxOqL02ovjSh+tKE6ksTqi9NqL40ofrShOpLE6ovTai+NKHy+h+ayj2gTQnmPwAAAABJRU5ErkJggg==;" vertex="1" parent="1">
          <mxGeometry x="530" y="1510" width="225" height="225" as="geometry" />
        </mxCell>
        <mxCell id="07vgb-UoSSxsXepg9ZPe-5" value="" style="shape=image;verticalLabelPosition=bottom;labelBackgroundColor=default;verticalAlign=top;aspect=fixed;imageAspect=0;image=data:image/png,iVBORw0KGgoAAAANSUhEUgAAAuQAAAFACAYAAAD0wWkAAAAACXBIWXMAAAsTAAALEwEAmpwYAAAgAElEQVR4nOzdeXhU5d038O+Zc2YmkwkkISQhK2SBkLKFsMoOgoIiovJq3arS9bG2ok+tra1tn8u6tW+r9fFVfMSiIq1LESkEUGRRICxBIEAgQEIghASykj2Z9f2D5xzPmTmTTEJgsnw/18VFmDnLfU6m9nvu+d33LbjdbjeIiIiIiCggDIFuABERERFRX8ZATkREREQUQAzkREREREQBxEBORERERBRADORERERERAHEQE5EREREFEAM5EREREREAcRATkREREQUQAzkREREREQBxEBORERERBRADORERERERAHEQE5EREREFEAM5EREREREAcRATkREREQUQAzkREREREQBxEBORERERBRADORERERERAHEQE5EREREFEAM5EREREREAcRATkREREQUQAzkREREREQBxEBORERERBRADORERERERAHEQE5EREREFEAM5EREREREAcRATkREREQUQAzkREREREQBxEBORERERBRADORERERERAHEQE5EREREFEAM5EREREREAcRATkREREQUQAzkREREREQBxEBORERERBRADORERERERAHEQE7Xl9uNC3vWozH3s0C3hIiIiKhbENxutzvQjaA+wO1Gyf7NOPbRX9BQnId54ywQYzMQNP1xSMkzA906IiIiooBhIKdrSxXEa4qOAQCMooB54yzKJgzmRERE1JcxkNO1oRPEZZ6BXMZgTkRERH0RAzl1rTaCuMxXIJcxmBMREVFfwkBOXcOPIC5rL5DLGMyJiIioL2Agp6vTgSAu8zeQyxjMiYiIqDdjIKfO6UQQl3U0kMsYzImIiKg3YiCnjrmKIC7rbCCXMZgTERFRb8JATv7pgiAuu9pALmMwJyIiot6AgZzaVV14BPv/35NXHcRlXRXIZQzmRERE1JMZAt0A6v4qju/tsjB+LThLD6Pxo0fQ8N6dcJz5KtDNISIiIuoQBnLqNRjMiYiIqCdiIKdeh8GciIiIehIGcuq1GMyJiIioJ2Agp16PwZyIiIi6MwZy6jMYzImIiKg7YiCnPofBnIiIiLoTBnLqsxjMiYiIqDtgIO+t3G5UHtwEV11ZoFvS7TGYExERUSBJgW4AdTHVEvemyycwbmgQpMRJMI66E8bhCyCYrIFuYbclB3Ou/ElERETXEwN5b6EK4vKqmtHhIgA3HMV74Sjei5bPfwdp2DyYRt0FKWkqIIiBbXM3xWBORERE1xMDeU+nE8R9bupogf34etiPr4dgjYRp5O0wjrwDYlT6dWpsz8JgTkRERNcDA3lP1YEgrrt7YwVa961A674VEKOGwzjyTphGLIIQEnUNGtuzMZgTERHRtcRA3tNcZRDX4yzPh3PbC2jZ/hKkpGkwjbwT0rB5EIyWLjl+b8FgTkRERNcCA3lPcQ2CuPc5XHCc+RqOM19DMAXDOPwWGEfeAbjd1+Z8PRSDOREREXUlwe1m2urWriKIR4eLGDfUfNVNOHvZguOnqq76ODKjKGDeuN7T+85gTkRERFeDPeTdmK2hFtt+d9e16xH3k7ulPqDn7+7YY05ERERXgwsDdWP2prqAh3HyHxcYIiIios5gICfqYgzmRERE1BEM5ETXCIM5ERER+YOBnOgaYzAnIiKitjCQE10nDOZERESkh4Gc6DpjMCciIiI1BvLr4OKBTWg9sQluW1Ogm0LdCIM5ERERAZyH/JoqO7QNRz/8v2g6dwizx1jQYpAgJUyAlDILUvJMiJHDAt1E6gY4jzkREVHfxkB+DchBvOrUQQCAxSxcecPlgOPcHjjO7QG2vQhD/xhISdMhpcyGNGQqBHNIAFtNgcZgTkRE1DcxkHchzyDeHlddGWy5H8OW+zFgECHFj4eUPBNS8gyI0enXuLXUXTGYExER9S0M5FfL7UbJ/s3I++QVVBce6fxxXE44ivfBUbwP2PEnCCFRsEeN67p2Uo/DYE5ERNQ3MJB31v8G8WMf/eWaLG/vbiiHvWpjlx+Xeh4GcyIiot6NgbwTyg5tQ+6qF65JECfyhcGciIiod+K0h51wfM1/M4xTwHC6RCIiot6FgZyoh2IwJyIi6h0YyIl6OAZzIiKino2BnKiXYDAnIiLqmRjIiXoZBnMiIqKehYHc7caFPevRmP0/cJbnA25noFtE1CUYzImIiHqGvjvtoWoe8YbiPMwbZ0HDVy9BMFkhxmVCis+EGDcOYtxYCCZroFtL1GmcLpGIiKh763uBXGdBH6MofPu2rRGOop1wFO288oJggBg1HGLcWEjxEyDGZwai1URXjcGciIioe+o7gbyzK2u6XXBeOg7npeOwHVwNAHBeYFkL9VwM5kRERN1L7w/k12CJe7fT3iXHIQokBnMiIqLuoVcH8roLhcj+y4+5qiZRG9TBPHjRKzCEDw50k4iIiPqUXj3LSl3JKYZxIj85Sw/DWXEy0M0gIiLqc3p1ICciIiIi6u4YyImIiIiIAoiBnIiIiIgogBjIiYiIiIgCiIGciIiIiCiAGMiJiIiIiAKIgZyIiIiIKIAYyImIiIiIAoiBnIiIiIgogBjIiYiIiIgCiIGciIiIiCiAGMiJiIiIiAKIgZyIiIiIKIAYyImIiIiIAoiBnIiIiIgogBjIiYiIiIgCiIGciIiIiCiAGMiJiIiIiAKIgZyIiIiIKIAYyImIiIiIAoiBnIiIiIgogBjIiYiIiIgCiIGciIiIiCiAGMiJiIiIiAKIgZyIiIiIKIAYyImIiIiIAoiBnIiIiIgogBjIiYiIiIgCiIGciIiIiCiAGMiJiIiIiAKIgZyIiIiIKIAYyImIiIiIAoiBnIiIiIgogBjIiYiIiIgCiIGciIiIiCiAGMiJiIiIiAKIgZyIiIiIKIAYyImIiIiIAkgKdAOIiNTcbnegm0DUJwmCEOgmEPVZ7CEnIiIiIgogBnIiIiIiogBiICciIiIiCiDWkBMREVGf4G5tgvtSkeY1Q+KIALWG6FsM5ERERH2c2w30xjGd7tYmOE/uhevMfrhOfQ53Y6nudobBs2FInQZx+DQYooZc30YSgYGciIiIBDcA/xK5Y/862LN+eW3bo2L5r5Md3sfd2gRn7hY4drzqM4Sruc5th+vcdji2AkLkGBhv+gXEYRM701yiTmEgJyIi6vN6T/e489R+2D972q8grsddkQvb6gchjn0ExgU/h2AOvuo2ucrPwpm/C64LeXCf36u0TYgcA0N8Jgyx6RDTpkAIjbzqc1HPxEBORETUx/WW2f+7svfeeWgl3NVnYVz4q06XsbiK82Df/QFc+Z/qvu+uyIWzIhfOQ4A9C5CmLIM066EueQignoWzrBAREfVxvSGQ2z9/s8tLaVzntsP27iNwtzZ1vD1ff4DWd+70Gcb1OLJfRevfboWrOK/D56OejT3kREREfZwBLgBioJvRaY4j2+DIfrXNbcSxj8AQmw7DoFTN666LBXAe2wTXue26+7kbS2Fb/STMS5f73R7752+22x5f3I2laH3nTpjuX8U69j6EgZyIiKiPE66yhlyIHANp4v1d1JqOcZWfhX3Nf/h8X5qyDNLkJT7rsw2JIyBNvL3N8hLXue1w7F8HaeLt7bbH/vUHnQ7jmuN89jQMP/6YdeV9BAM5ERERXRUhIsWvsHot2De8pPu6YI2FcfHLfvcyGxJHwJz4Ihz7J+uWvtizftnuwEtXcR4cW5/TfU+68VmIQ8Zq5j13ntoPV9E3ugHe3VgK28a/wnzvi361n3o21pATERFRj+Q4sk231ESwxsL08MpOlXxIE2+H8a439c+3919t7mvf/YFuW8w//RzGGQ94LUIkDpsI483/AfNPP4cQOcZrX1f+p6wn7yMYyImozxEEod0/3aV9gTxGZ87VHe/ntdbdrrW7tedacnytX9dtXPzyVS3wI42eA2nKMu/zZb/qc4CnqzhPt9zF9PDKdttiiBoC84P/D4I11vucB9f712jq0RjIiahP6GhAuZpQ09GA2tn3/L3Grg5onTne1Zzfn/t5NX+utj3+tPdaXLOvfTra3p7KeWo/3BW5Xq9LU5Z1yWBIadZD+ufN3aL/+omvvY9x47N+PxgIoZGQ5j/rfdxDK/3an3o21pATUa/jdruVvw0Gg1cIuXz5MoqKilBRUYHKyko0NTVBEASEhoYiISEBSUlJiIqK0uwjCAJcLhdcLhdEUVSOLwiCcj55O3+pjyWz2+24dOkSbDYbLBYLIiMjIUnf/qdabofnudQ/OxwOVFZWorm5GRaLBVFRUTAYtP0vbrdbabevoKZ+X76XetuUlJTg/PnzqKysRFVVFex2O6xWKyIjIxEbG4ukpCRYrVavtjqdTs3xAxUYnU4n3G638rtwuVy698vzdyW/Ln+GXC4XQkJCMHDgQJ/3U35d/ZmR7636frenrd9fS0sLKisr4XA4EBwcjAEDBvj8DH37Ys9bGsh5fJvXa4I11meQ7ijBHAxpyjKv+m5X6QkA3vXyztPepTPSmJs7dE5p9Bw4vh7j9aDhKs7zKneh3oWBnIh6DTmkyOFEDuMulwtnz57FN998g+zsbJw8eRJVVVVobm5GQ0MDWltbAQDBwcEIDQ1FREQEUlJSMGnSJNxwww1ISUmBKIpKcHS5XMpxPcOQIAi4fPkyTp8+jaqqKuU1ORA5nU7Ex8cjOTkZZrMZwJUAfeDAAXz++ec4evQoampq4HA4YDQaMXDgQIwdOxY33XQTMjIyNIHO5XIpx21paUFubi62bduG3NxcVFVVwel0QhRFhIWFITMzE7Nnz8bo0aMRHBys7G8wGJS/9XrW5dCsDqhNTU04efIk9uzZg5ycHJw7dw6XL19GU1MTGhsb4XK5YDQaYbVa0b9/fwwcOBCjRo3CrFmzMG7cOERERAC4EnzVD03q3518fgC4ePEicnJyUFJSotxvuT3qYNsRTqcTZrMZGRkZSE9PR1BQkCbgqh96BEHQhPFLly4hNzcXu3btQkFBAaqqqmCz2eB2u2E2mxEWFoahQ4di0qRJGDt2LOLj45XjyA918rXJr3ue++LFizh16hRsNpvm3IIgwGQyITU1FdHR0cr+TU1NyMnJwZYtW3D06FE0NDQon4+wsDBkZGRgzpw5yMjIgMVi8bpGtxs9KpG7W5t0e47FMXd36aI6hqRxQLb2NdepzwH8Stue2gqvEG0YPLtTM6SIoxfBsdUjkF8sYCDv5RjIiajXUAcbObCdOHECn3zyCfbu3YuTJ0/izJkzfh9v3bp1GD16NG644QYsXLgQmZmZMBqNcDgcyvnUAVIOt5s2bcKKFStQVlamhCn579bWVsycORNPP/00kpKSUFJSgrfeegtbtmzB4cOHlYcDtaysLGzatAnz58/H/fffj4SEBE0QPX78ON577z3s3LkTR44cQWNjo9cxNm7ciLVr12LmzJl46KGHMHLkSBgMBjidTt0w7nlfDQYDbDYbvvzyS2zevBmHDx/G8ePHlYeO9mzcuBH//ve/kZGRgZtuugm33HILBg4cCIfD0WbvuNPpxGeffYY33nhDuZ/q7a4mkBuNRtx44434wx/+gJSUFK8HOvln+bN04cIFrFmzBnv27MHx48dx4sQJ2O123eNLkoSUlBR85zvfwfTp07F48WIkJSV5PUjIf8vflgiCgLq6Orz99tv47LPPYLfbNb3bTqcTJpMJjz76KB566CEYjUYUFhZi5cqV2LhxI44cOaI8RKllZWVh3bp1uPnmm7F06VIkJSVBFEW0trZCFEUYdHr/uzPnyb26r0uTl3TpefRKX+Rl7zWv1ZZ7vWZIndapcwph3nXk7pb6Th2Leg4GciLqVeRw6XQ68eWXX+K1117Dl19+CZvN5nMfde+lWmlpKUpLS7F9+3bs27cPTz/9NGbMmAFJkpTQ4xkmbTYbDh48iG3bvL9OlwUHB6O1tRUXL17E888/j7///e9K+9Q9xXJYa2howFdffYUDBw6gtbUVy5YtQ2hoKADg4MGD+P3vf4+srCyv0hn1ceQe1AMHDiAvLw+/+93vMHnyZIiiqCkd8SSHwdLSUrz77rtYvXo1jh8/rnsP2wrHLpcLeXl5yMvLw/bt23Hy5Ek89thjiImJUXrr9djtdhw6dAhHjx71eeyr8fXXX6OyslIJ5HJb5W8N5AB94MABvPrqq9i4cSNqamraPa7D4cDJkydx8uRJbNu2Dbt378bPfvYzzJw5EwaDQfNQp/4bAOrr67Fr1y7k5nrXR8tOnjwJACguLsbzzz+PDz74wOvhQH3M5uZm5OTk4NChQygoKMAf//hHpKSkXHmIdLshuFxADwrl7rKTXq91tke6PdKNz8J1QTvTiav8rKY23HWxwGs/vWDtD0NYtNdrnuen3oeBnIh6FUEQ0NjYiA8++ACvv/46jh07pnlPTd2b7qsO3O12o7W1FRs3bkR9fT1+97vfYe7cuRBFEQ6HQzdQCYIAs9ms29sNAAMGDEB5eTn+8Y9/YOXKlZowLgdbz7a53W40NjZi+fLliI+Px/e//32cP38eL7zwAjZs2KB7H/QCstvtxqZNm2AwGPDSSy9h5MiRuuUi6msqLCzESy+9hH/+859K77tnW/UeBtQ/q6+jtLQUf/vb32C32/HEE08gJiamzR56dUlLV1P3uHv2jMsPI19//TV+//vfY8eOHZp99dqk13tfW1uLNWvWoLi4GL///e9x6623QpIkTfD3vH6j0dhmu61WK6qrq/HOO+/g3Xff9Xn/PTkcDnz44YeIiorCs88++7/fUjivyb29lvTqtTvbI90e44wHOrWfXrAm8oWzrBBRj+c5GG7z5s144YUXlDAulx34KnVwOp2aHlp12FT3fu/cuROvvPIKCgsLAUBTVy4fTxRFr7IKz7DlcDiwYcMGrFixQhPa9XqK1XXWwJV66uXLl+PLL7/Ee++9h7Vr1+reE8/jeLZh06ZNyMrKQmNjo6Yn2HP7iooKvPLKK1ixYoWmFEZvcKL6OtT0AmdjYyPefPNNrF69Gna73WfZjLpkRP53Vw7+9KzPlu+1HIh3796NZ555Rgnjnp8lvYc8zwcUWU5ODn79618jKysLgPZBQ719eyVEwJXAvn79erz//vs+w7S6LZ7H+/jjj7F7924AgCSJQA+afcXd2qQ7u4o4ZGwAWuObEBrV/kZE/4uBnIh6lcOHD+P1119HcXGx8ppnwG6vN7Ct93fu3Ikvv/xSMzCvPZ7HKygowKeffoqysjLd7fUCmTpgHz58GM8++yzee+893VIPvQcPzzbIte5nz55V9pEfCORtnU4nPvroI7z33ntex/YVOj2py0A8t29oaMCGDRtw+vRpr3ar95dnQVGft71zq4O73uwwMrmXGrjyoKT+vRYWFuLll19WgqvetftzD9RtOHr0KF566SWlHEV+IGjrAc6TKIooLCzEP/7xD83vryMuXryIzZs3o7q6GkDPCgPuS0W6rwvRSde5JW3rbPmMXvmLIY4DOns7lqwQUY/lOb1hbW0tPvnkE01vpmcPoRy+IiIiMHz4cMTFxUEQBJw5cwZHjhxBa2urZh/PwFVfX48vv/wS9913H/r166ecpyNKSkrafL+thwa5Pn7v3m8HtcmDSWV6++r1aOfk5ODMmTMYMWKE7pR7Bw8exOrVq9HQ0KDbFvU+qampGDZsGEJDQ1FTU4Pjx4/j3LlzALx769VOnTqF7OxspKen++whN5lMPvf3pb17KL+XmJiI/v37a14XBAF2ux2rVq3SlAN5fobkY4SHh2PIkCEwm80oLi5Gaan3oD/1Pdi1axf+/ve/44UXXoDVavU5hqEtW7duRW1trfJvz2kUPem9tnXrVjzxxBMYMGBAj+ohd12+5PWaEDmmS2dX6SgxbQoMg7wXBeoMd43350cI6tclx6bui4GciHokz2npgCsD3bZv964tVfeqSpKE+fPn4/bbb0dmZiYGDx4Mg8GA/Px8ZGVl4cMPP1RKUnzV5ebl5aG6uhr9+vXrUG2z3EuqF7yCg4PR3Nys9Aj7yzOMd0RTUxPOnDnjNe+2fD/37duHQ4cOeb2uDs4xMTFYvHgx5s+fjzFjxiA0NBTV1dXIycnBmjVr8MUXX2iCo6eysjIcOnRIt6wCuFKaMWfOHJSXl6OiogKSJHkFY7k+XRRFuFwuFBUV4dSpU8ox1MdW/76MRiMWLFiAIUOGKMeR78P27dvx0Ucf6QZd9TGmT5+Ou+66C2PHjoXZbFYGca5Zs0Z5kFGXPsltXrNmDaZMmYJ77rlHab+/D3Yul0vzDZAsPDwcLperzfutJs8fP2zYsC4rAboudGYcESJSAtAQ1flDI7tsQKkz92Ov1wyDUrvk2NR9MZATUY8mBzEAKCoqQkFBgeY9mRyE5s+fjxdffBEjR47UHOeGG27AxIkTIYoiXnzxRc2MFZ5hrq6uDkVFRRg8ePBVDzYcPnw4Zs2ahdTUVNTW1uKbb77B119/3WavtDo8u1wuREZGYsaMGUhPTwdw5YHhwIEDOH/+vO69UCsuLsbly5cxYMAATSisr6/HyZMnlRp3vV7csLAwPProo3jssccQFhameT05ORmjR49GY2MjNm7c2OY9KC4u1l2MB7gSkm+55RZMmDABLS0tPgdgCoKA4OBgfPPNN3juuec0++tNZwgAN998M26//XYEBwdrHoKcTid27NiB/Px83fbK+0+aNAkvvPACpk37djDhpEmTMH/+fBgMBqxatcrnwN8LFy5g8+bNuPnmmxEWFtahz5HndvHx8Zg/fz4yMzPhcrmwe/dufP7550o5ii8ulwsFBQWYPXt2m2U9fmmugau4a2cCEaKT/O71FiyhXXruQHHsX6c7rSLnIO/9GMiJqEfSCzBlZWWoqKjwuU9YWBjuvfdeTRiXa5vlwZiTJk1CYmKi0ksuUwe65uZmFBUVYebMmR3qWfSsOx89ejSee+45LFq0SHnt3Llz+NOf/oR3330XTU1NPq9bvvaEhAT8/Oc/x9KlS6+UHuDKrB7Lly/HK6+8gkuXvL/eV6uvr0dLS4tyjfI5ampqlJIT+T3P+z18+HDcc889ShhXh1pRFJGeno6JEydi69atPmecAYC6ujrU1dUp7VefEwBMJhPi4uLavA7gypSTu3btwv79+5XX5LAu16HLx/zOd76Dxx9/HGlpaQCgWWTp9OnTOHjwYJvnioqKwtKlS5Uwrv58REVF4ZFHHsHBgweRm5urqaNXf24PHTqE3NxczJw5U3O9HTF06FA8+eSTeOSRR5SFpu6++248//zzeOONN3zOky6f7+LFi2hubtaspNoZrnPb0fqO97dTV8P8/U8h6ATRKytlahli07v03IHgKj8Lx45XvV6XpiwLQGvoeutJ4ziIiDQ8Z9tISEhAZmYm4uPjMXDgQFitVk3PX2pqqhLG1YP51CEpLi4OCQkJmvN4DuCz2+2or69X5pLuCPkYAwYMwPe+9z1NGAeAwYMH44c//CFGjGi/R0wURdx33334+c9/rgmzoaGhuPfeezUPDL4eHERRVO6RejCp1WrFmDFjkJycjJiYGISGhmqm4jMYDJg0aZISlJ1Op+5DUlRUVLthr7m5GZWVlW220/OBQO8B4ZNPPsGKFSs086rLD1zq41qtVvzgBz/A7Nmzlbarr3337t1Kjb7nZ0w+Z0pKCqZMmaJ5Xf3tQVpamvKNBaA/UPfEiRPKgNHOkCQJ999/P5YuXaqEcQCIjIzEkiVLMGrUKN395HY4nU5UVFSgubm5020IBHezfyU5PYm7tQn2DS/p9o6L6TMC0CK63thDTkQ9kl74mzNnDuLi4lBUVITy8nJUVVWhsrIS1dXVcLlcmDp1KuLj4wFo5yBXB6Xo6GhERWmnK/MsdeiKqfdGjRqFxYsXK/9Wl2zExcUhNTUVOTk5mmv1bEdqaipmzZqlDHpUty82Nhbjx4/HZ599pizr7k9ZhNyLGxERgR//+MeYNm0aLly4gAsXLqCqqgoNDQ2oqqpCREQE7rjjDuXc8v3wnPJRHfjbOmd7Pbl6P8urWwJXZi959913UV5e7rWt5zXfeuutWLJkie4MJ8CVnmu9AZPq48TExGg+J54lNP3790dMTAyMRiPsdrvuMWw2G44cOYKWlhYEBQV51ca3JyUlBdOmTVN+B+pve4YNG4YJEybo9vSrZ9Gpr6/v9BgE6hqu8rOwvfuIbhiXpixjuUofwUBORD2Weqo+4MqgtsmTJ2Py5MlKOLHb7WhoaIDL5YLVaoXFYgGgnX9aTW9Obr3zXu0guISEBCQnJwP4NoDJodxqtSIuLk4Jc77m/B4+fDiGDh2qe3xJkjBo0CDNdfo7RZ/c+xwfH4/4+Hjl2wSn0wmbzYbm5maIoojQ0FDl+G3ds6upsW+LfM6qqiq88cYb+PLLL9vdJyMjAz//+c+Vb0E8Z5c5f/68MpVgW+eNjIxUev71rs9sNiMmJgYhISGoqanx+TBUUFCAgwcPYsqUKcr1+PvZuuGGG5RvUjyPPXDgQCQlda9pAMmb48g2ODY/pxvGhcgxkGY9FIBWUSAwkBNRj6Q344WaHG5EUURQUJDmPTmkNzc3o6mpCY2NjWhqaoLT6URBQYFmMKR8rq6ehSIiIsKrV1UmiiLCw8NhNptht9t99mDGx8cjMTHR5znU0wX6CvV65Jlb5Pmz5T+SJMFsNivTPcoaGxuVe9jU1ISGhgYlvB86dKjN+vHOUt+vTz/9FJ988km7+4SFheE//uM/cMMNNwD4tlRF7fTp016DYT1LVkJCQhAXF9fmdIyCICAuLg79+/dHTU2Nz7nTi4uLkZubqyl/8dfIkSMxaNAgr/MC3z40tKdHza7Si7hbm2Df9Bqch1bqvi9YY2G6+08BncqRri8GciLq8fS+6lfPvgJcGThYXV2N8+fP49ChQzh9+jSKi4tRU1ODlpYWNDY2Kn/L5QpyT3hX9/CaTCZl7mt1+9Xn0VtB0lNERIRS1+1r7umOLNyW0jMAACAASURBVGDjuVqpPAWjZ4mO2+1GbW0tLl26hPz8fBw9ehSnT59GaWmp8qAj96RXVVVpVvjsavv27cO7776Lqqqqdre94447cMcdd8BgMHgN8pSvrbS0VHMsObCrt+3Xrx8GDx6sDAL1ZeDAgQgO1gYqz99lTU0NLly44LWNr6Cs3l8O456LLskPEVc7ULMjDINnwzj3Z116zO620E9XcRXnwfbv/9JdbRT43zD+8EoYooZc34ZRQDGQE1GP1FaPr7rX89y5czhy5Ai2bduG3bt3o6ioCA0NDbDZbH7XznZ00Zb2BAcHIzw8XPm30+n0qrX21aOqJpffdBV12FMHQrldjY2NOH36NA4dOoStW7di7969qKysRGtrq7Kg0vUgt62yshKvv/46srOz291n8uTJWLZsGSIjI5USHM/afOBKQFY/QOg90JhMJvTr16/db06sVqtmsKXn/XW73XA4HKirq0Nra6tmW1/k/UNDQxESEuL1vro917X32xJ+3WqdxZTJcOVrF+Fx68xN3h3Zv/4Ajq3P+XzfMHg2jAt/xTDeBzGQE1GP5Cv8yeGxubkZX3zxBf7nf/4HBw8eREVFRYcW3PFVTtIVRFH0mrHE17nVf8vvdXa+6o5QD3oFrpRyrFq1CllZWSgoKEBdXV2nj90V3G43Vq1ahXXr1imv+bo3sbGxeOKJJzB69GhlX3kwr+eDT0NDg6bExtc3D/48oEVERGjqzPVmawGulFDZ7XYlkPvze7NYLMpnKGAhvBtxXejaOdC7mqv8LOwbXoLrnO+pIcWxj8C44OcsU+mjGMiJqEdShynPqf1KS0uxfPlyvP3227h48aLPfduiXnDmWlCf31cgb2+/ru6RlnuN5b/lspmvvvoKf/7zn7FlyxbYbDbNPuqFd64V9fHlNm3duhUrV65Efb22Z9Tzd2symXDPPfdg/vz5mjb7Ipey+KO9wb8Wi8WvQbVyuZTc4+3P/dQrt5H11VDeXbU1cBO4UqIizX8W0ug517ll1J0wkBNRj+UZWgRBQGlpKf785z/jnXfe0YQ1OTh67ieKIkwmE0JDQ5Wa3OLiYmWVQ3VPcW+fHk5dKy6Huu3bt+OZZ55R5uUGtPfCMzyaTCYEBwcjIiICoaGhqKioQFlZWafmbFdTn6OgoACvv/46jh49qrTbl5tvvhk//elPlZp9fx5o9I7X1rcWvujV5Oux2+0d+vamr9NbRv5KCcuL1+R8zlP74fhmreY1MWUypIm3t7uv/fM34cj2XuxHZhh+J0y3PAkhtP0BuNS7MZATUY8nD+CsqanBihUr8NZbb2kWO9ErFRgwYABGjhyJ6dOnK6tzhoSE4Pz583j55ZexefPm61YTHWjqhWLk2VQA4MCBA3jxxReVMC6Kou4CPQAwZMgQTJ48GTNnzsSoUaMwYMAAmEwmrFq1Cq+++qpmXu+OkoOtJEloaGjAypUrsXnzZq/tPMtCRowYgUcffRQpKSmatqqvu61SEs9jq3/2/HbGF396qyVJ0vSkM5y3zddgT1f52WtSe+26eMqrZl0cMa/d/doK44I1FtKsZX6FeuobGMiJqMeSe73l0oHs7Gy89957uisPqoPk+PHjsXTpUsycORNDhgzRzIQRERGhGXCp3r+3U4fHlpYWfPbZZ9iyZQuAb+dndzgcmnshSRLuvvtufO9738Po0aMxaNAgzXGGDBnS7mwk7VEv3rR+/XqsXr0ara2tujXg8s9hYWG4//77lWXp9eiVfVit1nbbK88+0x5/Bw4HBwdrBnS2VwrT1wnmYAiRY7xmKXFdPHNtAnnBLq/XDIOS29ynrTDOXnHSw0BORD2WOuw0NjZi7969OHPmjGYbz1KB9PR0PPvss7jtttu8ekYFQUBDQ4PuqpGex+lNdbqe9dkAcPDgQWzatEmznTwForyPHMb/8Ic/aBYoUq862tTU1On2AFDmQgeAnJwcLF++HOfOndO8r9fzfccdd2Dp0qWwWCxtlo54/h6Dg4PbDeQ2mw11dXXt9pBfvnxZuf62HujMZrNmkK+vRavoW4b4TDg9A/mZ/UAX12G7W5t0B2K2FfwdR7b5DOPGW//EXnHSxcdwIuqRPANOXl4eNm7c2OZ2ISEh+O53v4tbbrlFGbzocDg0A/nkxW1kbc0H3RvJ4Xf37t3KsuvqFVHVvcoJCQl46KGHlDDucDi8etD96e3Vu5fy+eT3amtr8f7772PXrl2affSC7tSpU/HTn/4U0dHRShvkP/I1eM7dLQsNDdUsfKTXtsbGRly6dKnd3u/GxkavRZE8j2cymRAWFubXlIf0LUNsutdrrlOfw93a8QfAtjhP7vV6zTD8Tp/bu2sr4NjsPa2hYI2F+aefM4yTTwzkRNQjeU7Ll5+frwRIX8LDwzFx4kRND6h6VhHgSvC7fPmy13k8Q2ZvDOTyNV2+fBnHjh1TXve1wFBycrKydLt6kKeaw+FoN7iqZ3TR43a78cknn2DNmjU+B5PKBgwYgEWLFmH48OHKw5aaKIrKnO9yKFf3micnJyM2NlbTNs/ZdhobG1FSUqL7TYrapUuXvBZF8mxzeHg44uLieuXn6VoS07xXNnU3luoG6KvhzNvife6UyT63t238q9dsKlzoh/zBkhUi6pHk+nFBEGC32zVlDL5YLBZEREQA0A7MA74No1VVVaisrFT20VvMxeVyoaWlpdfVlcv3oKSkxGv1SE8GgwFJSUma2UvUM9nIqqqq2i1b8XUf5ZCenZ2NN954A2VlZe1egyRJyMnJwW9/+1u43W5YLBZYrVZEREQgLS0NGRkZGDBggNJjDnz7MCEIAtLT0xEfH69pm2dpisvlQmVlJRoaGmCxWHTLZtxuN86dO6e7gqh6+8TERGRmZrZ7XaQlhEbCMHi2VzmJ4+vlXTZ9oLu2wmswJwAYhozR3d5VnOe1PcM4+YuBnIh6JHUAqq2t1Z1v3JPBYIDJZFL2FwRBmVlEVlRUhNLSb3u49BblaWxsxNmzZ2Gz2TS1v71FXV0dGhoa2t3ObDYr905vZc/Lly+jqKjIq2zDU2NjI0pLSzF8+HAAVwKvKIoQBAHl5eVYsWIFDh06pGzfVrlKVVUV1q5dq0yzKPeIh4SEICEhAUOHDsXYsWMxffp0jB8/HhaLRTONY//+/TFs2DDleL4WZaqsrER1dTUiI7UD8+S2tbS04Pz581730fOhZdiwYcjIyFDOxZ5y/4nj7/YK5O6KXDiObOuSUG7b+Fev14TIMT7DtePgeq/XjItfZhgnv7BkhYh6JHXvtsPhaLd8AABaW1uVgCSHRoPBoPTEVlZWYt++fT7DqPp8x44dU3rSe9usGHqlHp5cLhcuXbrktVCQurxjz5492Ldvn+7+6u1KSkqwd+9er/DrcrmwZ88efPHFF5p92gqtTqdTM+e50+mEzWZDdXU1cnNz8a9//Qu/+c1vsGzZMjzzzDPYuHEjmpubNb/D6dOnK1MlyjzDf0lJCU6fPu2zHeXl5SgoKPAq11F/bkNCQjBx4kTloa63z3Pf1cS0yRCssV6vOzY/B3dtxVUd23Fkm27vuDTxft3t3bUVcB5aqXnNMPxOiMMmXlU7qO/oXf8vQkR9hjpABQUFaaYu9KWmpgYnTpxQ/i0IAiRJUgLeBx98gKysLM37nquAyvLz8zW9tr2pfEXunW5PQUEBzp8/D0A7cBK48k3D22+/jfz8/HaPU19fj507d6KkpAQAlBr/lpYW7N+/H+Xl5Zrt/V0ZtK0HpYMHD+LVV1/FL3/5S2zZskXzADJhwgRMmaJTo6zqwS4uLsYnn3yCmpoaANrPitvtxtq1a/HNN994vae+r5mZmZg1a1a710H6BHMwpFnLvF53N5bCtubZTg/wdJWf9TkwUxyjP/+482S212vGqQ906vzUNzGQE1GPJYeb/v37KzNqeL6vDkCXL1/Ghx9+iB07dmj2r6iowJtvvonXXntNUz/eltLSUqxatUqpXe8NpQbqObzDwsLa3f7UqVNYsWKFEqRlOTk5+K//+i/NrDfywE11SFaH6r179+LDDz/U9BLb7XYUFhYqPd6edf/t8exx1vsd5eXl4euvv9as6hoREYEJEybAarXqHlcQBDgcDnz66af47//+b80DQ21tLf7+97/jtddeQ1VVVZvlNZMnT8Z3vvOdNttHbRPHzIMQ6V3T7Tq3HbbVT3a4p9xVfha2dx/RXeZemrUMgln/wd9VekLzbyFyDAyJIzp0burbWENORD2SOmwZDAZlARpfS7TL9b/btm1Da2srFi9ejKSkJNTV1SE7Oxvr1q3T7YlV/ywHfPn1f//73xg2bBh+8YtfKINFXS6Xzyn1ujv5GpOSkjB48GCf28n3oampCe+88w6qq6sxb948hISEoKCgABs3bsTu3buVecvbCtLqmV3eeustDB06FLfddhtEUYTL5dIE5fa0Ncd4W0HeZrN5lTzNmzcP69evVxZG8jym2+1GQ0MD/vrXv6KwsBDTpk2DIAg4ePAg1q9f7/WQIpM/t+PHj8ftt9+ufBvQEz8vau6qQjj2r7smxxbTpvhcREcwB8N40y9gW/2g13uuc9vR+tbdkGYtuxLcfYRp4Mp8487cLbBn/VL3fcPg2T57x4ErUy5q2hU8AK7iPJ/bd1iQlbXovRwDORH1SPKATOBKicWIESMwefJkZZ5qQD9Qu91u7Nq1C7t27UK/fv3Q1NTk16qL6iAmH8fhcGDVqlVYuHAhpk6dCgA9Mox79uIGBwcjMzMTJpPJq0Zc3k7ep6mpCatXr8bHH38Ms9msqb/3DMjq6SXVx5C3KywsxEcffYQ5c+agf//+EAShQ4Nm9WY68Ye6115u4/Dhw/HQQw/h+PHjyowz6oAvt1meH/3999/32SbPB7nw8HAsXbpUtyymp3JX5MKeldv+hp1gGPRpm6taisMmQrrxWTi2epeZuBtLYc/6JRw7YiGOuRtCTBoMYd9+m+a6fAnuspNw5n6s2ysOXClVMS78lc9A725t8trXdW47Wt/xXlCoswzD74T53he77HjU/TCQE1GPpF7BEQDS0tKwcOFCZGdn6w6O05uSz7P3VQ5NRqMR/fr1Q319vdJzqrc8uyRJmDp1KgYOHOjVrp5YfiBP6WgwGDBr1izMmjVLGVCpt62a3W7X9DKrrz88PByiKHpNAeg5t3lUVBQmTpyoLJLjb3mKKIqQJAlBQUGwWq1wuVzKojz+zIPueQ6n0wlJkrB48WIUFBTg+eefV65Nvj96Ux3q0dvugQcewN13360cr62yFvKPccYDQHO9zxUy3Y2lPt9r99jtzJTivlTUqeMSqTGQE1GPpO5hdbvdMJvNmDt3LrKysrBz504A34YhebCh3BOunuYOgFIeIYfxJUuWYOzYsVi7di327Nmje36LxYIHH3wQTz31FFJTUzs8ZV13DF/q8Jieno4lS5Zg7969qKur89rWc252X8eJi4vDY489hqamJrzxxhuaUK7eLiUlBY8++ih+8IMfaFat1Js9x2KxYMiQIUhISMCgQYMQGhoKq9WK/v37IyIiAi6XC9XV1aivr0djYyOqq6tRXl6OsrIyFBUVeS3Wo1dr7nK5YLVace+996KoqAj/+Mc/NKHcs/3qXnBfnwU55H//+99HRESE5gFIPob63ralKz8/3fGz2BnSrIfgbq71mu2kswRrLIyLX253phTX5Utdcj7q2xjIiahHk0OQIAjIyMjA448/jurqauTl5SlBw3PJd89AJQd1i8WC+++/H7/85S8xdOhQhIeHIz8/X5lJQzZgwAA8/PDDeOKJJ5RFZNSlCU6nUzfkeZZv+CKXw6jbKb+u1l6pjdPp9Gsb+TzqhXIMBoPSQ/z6669rFvdRX4temFOvevn444/jJz/5CWpqanD27FmsWrXKa7tx48bhqaeewuLFi2E2m+F0OpWZXuR544ErPejp6emYMWMGpk2bhpSUFISFhSEkJAQmk0k3BDc3N6O+vh51dXU4f/48du7ciS1btuDEiRPKw4F6dhjP6xo2bBh+85vfwGg0YvXq1Whubta031eNvOd9CQ4Oxne/+108+eSTyuqm8sOiJ3+m8fT8jOk9BPgzjaI/U1z2FII5GKbFv4IjNt1nLbi/DINnw7jwV/7Vbbf4P86ByBcGciLqkfTqeUVRxOLFiyFJEv72t78hJydHqWluKziazWYMHToUd955J5YuXaoMaFyyZAlKS0vxl7/8ReklTkxMxGOPPYalS5cqAznlwYvAlXBnNpu9aq/V529qalIG8+mRFzBqaWnx2XYAbS43DwAmk6ndYGc0GpXjqB9uACAyMhLLli2DxWLBP//5T2Ve7fZ6VKOjozF+/Hg8/PDDWLhwIUwmE6Kjo/HEE0+gqqpKM/vKTTfdhF/84heYN2+e17VaLBbMnj0b5eXliIiIwK233ooFCxYgMTHR728jLBYLLBYLoqKikJqailmzZuGRRx7Bhg0bkJWVhYqKCowYMQJBQUGa88sPVqIoYujQoXj66acxcOBAZGVl4dSpU8piR+3di6CgIAwfPhy33XYbHn74YSQnJwPQD8vqz6P6WwI98pSd8n6+euTbYzKZet3iVtLE22EYMgb2rW/pziXeFiFyDKSJ90OaePs1ah2RPgZyIuo15FB+2223ISUlBRs2bMCGDRtw7tw5NDQ0oLW1FS6XC0ajEWazGcHBwYiJicHcuXOxaNEijBo1CsHBwZrp/77//e/D4XDg/fffR2hoKJ588kncddddCAkJAaCtAQauBNwbbrgBCxcuRGFhoWZOb7nnOy0tDenp6T6vQ5IkTJgwAQsWLEBRUZESmOQ6eJvNhgEDBmDMGP0lvGVyECwoKPAK3S6XC6GhoZg6dapyLZ73UhAExMTE4KmnnsK0adPw6aefYufOnaioqEBzczNsNpvSi22xWNCvXz+kp6fjjjvuwJw5cxAfH6+0WRAEjB07Fr/97W8hSRL279+P6dOn4+mnn8a4ceOUc6r/SJKEe++9F3PnzkVoaCiio6OvKjzK7UhISMAPf/hD3HbbbaiursagQYMQFBSkhGR1KJe/LUhNTcUzzzyDW2+9FVlZWfjiiy9w/vx51NbWej18BQUFITQ0FImJibj55puxaNEijBw5EhaLBYD2AU7dNrm3vH///pg/fz5KS0vR3NysG6wnT56MIUOGAICm7EVt6NChuOuuu5Cfn+81BajT6URoaChmzpyJfv36deg+ShNv7/aB1RA1BOZ7X4S79kk4cj+Hq2CX16qeMiFyDMShs2FIGtephXx6wv2g7k9w95biMR0l+zZh50uPtLudURQwb5zF7+PuPdGC6nr/V1SzmAXMHuP/8WXNrW5sz21uf0MfosNFjBvadi+LP4ouOnCi2Humhc7q6P2m6yf4ruUwDrspoG242v8kycuuA1fqj6uqqpCbm4vTp0+joqICNptNCXcpKSlITU1FRESEpkfS6XQq4V4QBFRXVyM/Px8WiwWjRo2CJEnK1/yeM4XI+9fX18PhcGjq2OX2mc1mBAUFKcf3VbYgDypV94TLPbcGgwEhISFt9qTabDbU19drHhrU7TQYDLBarT7LPdTbud1u1NfXo7S0FHl5eTh79iyqq6thMBgwcOBAJCYmIjk5GYmJiQgNDVWuSS6bcblcSi/02bNncfbsWaSkpCAhIcGrhEhdWtReAG9paUFLSwtsNpsy5aXntxUWi0Vzn/wt71AHc3VJi91uR2lpKfbs2YPDhw/j4sWLaGlpgdvtRnBwMOLi4pCZmYnMzEzExMRoet/bGsSp/ozI1+UrbMsPQfLvRm8bp9OJxsZG2O12r5Ip+T7369cPRqNRU7bTm7nKzwIt344h4Fzh1F0wkIOBvD0M5H1HbwjknoPsZA6HAw6HQwna8h/1fuqeSzmweC5mA3wb2NU9l3LYAtovJVEfB9BfUdLfkgzPHnp1e9pbZl7dDs9t5eDvcDhgMBi8grH8bYO84I/n++rafPlnSZK8entdLhfsdruyv7psRj6+5/1paGhAZWUlTp06haNHj6KwsBClpaVoamrS1PEHBQUhJiYGSUlJGDNmDDIyMrwWkFL34Ktr6dWfQ/m+qGdYkf9ts9lgs9mUUh653EjuDZevX344U59Pfk993W0FbD3yefV+1x35DLlcLr9KXIjo2uD/+oioV1H3sqoDsl4YBLTzhnsGUnVYVPdeysGqtbUVNpsNISEhSjBVD6T0DHV6gclXaFL3FKvDqWfvrt5r6mvRmxFE7155Xr8cCkVR1DysyPfBV8+8uuxD3assP6Soe3zlcxuNRq+2ydckb9vS0oJz584hLy8PO3bswLZt21BaWqr8DtpaEMpkMiE4OBijR4/Gf/7nf2LBggWQJEkJoupZTtS92L5Cs/qbg6CgIKUH3JP6WOpr1puLXX0/1Of0dVzPa/T1UKb3YKE+t/paiChwGMiJqNfxLM/w1Yus3t4zrADaQXHqmVokSYLNZsPatWuxadMmTJ8+HXfddZcy37a8va82dfQ6PNvYkZ5Qz2Povd9Wj778nmeA68j59Oql1dvo3Xt1iC8oKMCHH36IzZs3Iz8/32s+87a43W60traitbUVX331FQYOHIhJkyYhKioKgDaI+rpX/oRdX/SmNFQ/RKmP7e83K539DOm93pFjEdG1w0BORL1ae4HDV0hV/6wOiXLQttvtyMnJwfvvv49PPvkE2dnZeOCBBzBu3DhNDXVXrdwZ6ADV0fP6u73nw5P6ocftdmPbtm344x//iB07dujuqw7U6t+P+n317+DcuXPKDCld0e6OCvTvkYi6JwZyIqI2qMO4ugwjODgYixcvxp49e7Bnzx6sXLkS2dnZmDp1Kr773e9iypQpsFqtmsGNLAvwj9xz3NTUhPXr1ythPDIyEjExMYiOjkb//v0RFhaGgQMHQpIkCIKA1tZWXLp0Cfn5+Th27JhmznCZJElevdZERIHGQE5E5Ad1b6wcrqdPn47XX38dzz33HD777DOcPHkSJ0+exLZt23DLLbdgyZIlyMzMRGhoqNcAUtKnLu2QJAl33XUXJkyYgOjoaERERECSJAQFBcFkMin12/LvxeFwoLW1FXV1ddi1axfefvtt7N27V3N8i8Xis4abiChQGMiJiDpAPSWfKIrIzMzEH//4RwwePBjvv/++siLl8uXLsWvXLkyYMAG33XYb5s6dC6vVCqBjS6T3Jer74nK5YDKZMH369A4fZ9CgQRg2bBiqq6tx+PBhZYElAIiLi/M5CJOIKFAYyImI/ORZ/yvP0DFixAj8+te/RmRkJJYvX46SkhK4XC4cOXIER44cwfbt2zFz5kzcfvvtmDx5sjL1nt5gR1/T7cn/7u09up41++3dA5vNhubmZgQHB8NoNGpmTUlISEBQUJASyIOCgpCWlqaZkpCIqDtgICci6gC9qREFQUB0dDR+8pOfIDExEa+99hoOHDigbHfmzBmcOXMG2dnZGD16NCZOnIh58+Z5rbTZ1iwmelMT9kaeYVw9N7inHTt2ICsrC2VlZZg8eTKWLFmCQYMGKe/X19dresf79euH5ORk9pATUbfDQE5EdJXkWTwiIiLw4IMPYsiQIXjttdewbt062O12ZTu5xvyLL77A2rVrMXXqVMydOxcZGRm60/B59grLPei9PZTLi+PIvd3q2v3i4mLs378fX331FXbv3o3jx4/D4XBg69atCA8Px/333w/gShgvLi7WBPLw8HAkJCT0+vtHRD0PAzkRUSfJC+bIqzc6nU6Ioojp06cjNjYW48aNw3vvvYf8/HzNfrW1tcjOzkZ2djY2bdqEUaNGYdiwYcjIyMDUqVMRGRkJAF5T+vXmIOlZDqQeRHv27Fnk5OTg0KFDyMvLw+HDh1FcXKzZv6WlRXN/SktLNd9SAEBMTAwSEhIAeM8TT0QUSAzkRESdJAdAOYirf05JScFTTz2FjIwMvPnmm8jKylJW8FQ7duwYjh07BoPBgMGDB2P8+PGYPHkyJk6ciNTUVERFRWmWa9fT0waHtvdg4XQ6UV5ejqNHjyI7Oxv79+9HXl4ezp8/r3utycnJePzxxzF//nzltcLCQuTk5Cj/liQJs2bNQmxsbNddCBFRF2EgJyK6CqIoepWWyHXloihi/vz5SEpKwqRJk/Dxxx8jNzdX2VddM+5yuVBUVISioiL861//wtixY5Geno6UlBQkJycjPT0daWlpCA0N9WqDr5Uk1X+r67H1Vvr0XNJd73XP9zxfk39WLxMP+Lcse21tLXJzc3HixAkUFxfjzJkzOHz4sNe3C2qSJGHBggX40Y9+hAULFigPRQ6HA0eOHEFlZaWybVpaGhYtWgSTydTu/SAiut4YyImIrkJbS8/LYTYtLQ3PPPMMpk2bhhUrVmDTpk2orKxscwDnwYMHcfDgQQDAgAEDMHToUIwYMQLDhg3D8OHDkZaWhtjYWFitVt3z64Vp+XW986n/9nxNbzYYX695DnrVO5/T6URdXR1KSkpQUFCAM2fO4NixYzh06BAKCwvR0NCge1/U0tLScN999+GBBx5AcnKy5r2CggJkZ2cr/xZFETfddBPS09O9rpOIqDtgICci6mKevcfyv2fMmIH09HTMmjUL69evx/bt21FbW6vZVx7QqA6N1dXV2LdvH/bt2wfgSi10ZmYmUlJSEB0djYEDByI6OhpxcXGIiYlBTEyMbpmLrwcHX3yF7Lau15PD4cClS5dw/vx5lJWVoaKiAhUVFSgrK8PJkydx7NgxXLx40e82JSYmYvbs2bj77rsxf/58zYBP+foKCgpw9OhRZZ+kpCQsXLhQme5QPTiWveNE1B0wkBMRXWPqMo/IyEgsXboUN954I/79739j7dq12Lt3r7LMu7zgkF69uaysrAxZWVnKMa1WK8LDwzF48GAkJydjyJAhiI+Px8CBAxEaGoqwsDAMGDAA/fv3h8lkgslkgiiKr3v8qQAADFxJREFU7dam+1Pr7XQ64XA4YLfbUVNTg5qaGtTV1aG6uhpVVVUoKSlBUVERTp8+jXPnzqG2thZNTU3t9lJ7TgEZHh6OKVOm4L777sPNN9+MiIgI5d7KJULy/SsoKMCFCxcAfFvWMmHCBGV7hnAi6m4YyImIrhOn06ksCT948GD87Gc/w9y5c7FmzRrs3r0b33zzDSoqKtoM457cbjcaGhrQ0NCA8+fPY9euXcp7oaGhiIqKwqBBgxAbG4vIyEiEhIQgJCQEFotFWYJeXlRHDsEGgwEWiwWiKKK5uRk2m02Z9cRut6O1tRWtra1obm5GU1OT8ndZWRkuXryIixcv4sKFC169/x0hh/Ho6GhMnToV06dPx2233YaUlBRlG72ZUs6cOYMdO3Yo003OmDEDS5cuRb9+/TRTKRIRdScM5ERE15HnVInp6en4zW9+g8LCQmzatAnr1q3D4cOHUVVV5fcxfS0oVFtbi9raWpw+fdpre6PRqPyRe8zVPflGoxGiKMLhcGgCubpH3G63w2azdegBwl+DBg3CuHHjsGjRIsyfPx+JiYnKe06n02cZzTfffIMtW7YAAAYPHowf/vCHyMjIUPYDtCUrRETdAQM5EdF1op59RP4jB/PU1FT87Gc/w4IFC7Bp0ybs3LkTR48eRWFhoWZxIT16YdxzxhTP7W02G2w2WxdcVdexWq1ISUnBqFGjMGfOHCxcuFBZMEmmLk9RB2tRFFFdXY3NmzejqakJYWFh+PGPf4xbbrlF2VZdM84wTkTdCQM5EdF15Fku4bk0fGpqKh599FHcfffdOHLkCDZt2oQdO3agqKgIly9f9vs8gZxJpK2HAT1RUVFIS0vDnDlzcOONNyI9PR0RERHtTrcoL8Yk190fPXoU+/btQ1hYGJYtW4Yf/ehH6N+/f4emXyQiCgQGciKiAJLLTdRzYouiiOjoaMybNw+zZ89GQUEBtm7diuzsbBQWFqK0tBQXL15st+dcfXzPn68FvRli9AQHB2PQoEGIi4vD0KFDMWPGDNx4442IjY3VhGaXy+UzTOudIywsDIsWLUJsbCwefPBBhIeHc65xIuoRGMiJiALIs55ZPVBRFEVIkoThw4cjNTUV/+f//B+Ul5fj1KlT2LFjB3bt2oULFy7g8uXLPstP9OYWv1baWo7earUiNDQUQ4cOxZw5czB58mQkJSUhMjISYWFhmm09H1Daol4tNS0tDb/97W9hNpthNBrhcrmUEhcGciLqzhjIiYi6CTmYyyFdHrwoCAIkSUJUVBSioqIwcuRILFiwAJWVlTh69Ci++uornDhxAhUVFaiqqsLly5dRX1+PlpaW634NBoMBwcHB6NevHyIiIhAZGYn4+HiMGTMGEydOxLBhwxAWFgaz2ey1r9wjLl9zez36ngsaBQUFKe85HA5lf6fTqcwiQ0TUHTGQExEFmL+hU93Ta7FYkJCQgISEBMycOVOZ+7umpgYXLlzAiRMnkJ+fj1OnTqGsrAwtLS2w2Wyw2+1wOBxX3VsuCAJMJpMyS0u/fv2QlJSEtLQ0pUc/OjoaERERCA8Ph9VqVZat97w+9TcE/oZmdZ26PAOMOtDLJS5yCRDDOBF1ZwzkREQBJAdGz0GLcj22+jVAG97l161WK6xWK2JiYpT3mpublfnBKyoqUFJSguLiYpSVlaGyshKXLl1S5hiXa9FtNhuam5uVMg+DwYCgoCCld9lkMsFsNiM4OFhZETQuLg6JiYmIi4tDaGgoLBYLLBYLjEajz2v2fBhoK4z7s3BRW6uJdnR1UiKiQGAgJyLqBvQCZXu9unrhXCYH4wEDBiA+Ph5jx46Fw+FAa2urMuWh3W5HU1OTUhojL/ajnkpQrseW5yaXFwwym80wm83KcvT+trOreV43e8I7r63PE1FHBHKWp56KgZyIqBfw9X+A8lznwJVl5CVJgtVq7fLzq+cHJyKijmEgJyLq5eSwrh4kCvjfu6yuzfbc1nMgJhERdRwDORFRL+U5DaG8KiigHSyqrlX3nLdcPRe4TH6dK18SEXUNBnIiol6qrR5wf2vWffV8M4gTEXUdBnIiol7Kn7Dc3swmnT0GERH5z9D+JkREREREdK0wkBMRERERBRADORERERFRADGQExEREREFEAd1ElG3wgGCREQ9G/873nHsISciIiIiCiAGciIiIiKiAGIgJyIiIiIKIAZyIiIiIqIAYiAnIiIiIgogBnIiIiIiogBiICciIiIiCiAGciIiIiKiAGIgJyIiIiIKIAZyIiIiIqIAYiAnIiIiIgogBnIiIiIiogBiICciIiIiCiAGciIiIiKiAGIgJyIiIiIKoF4dyPvHD0N40shAN4OoRxBjMyBGpgW6GURERH2OFOgGXEv941Iw/y9bULJ/M4599BfUFB0LdJOIuh0xNgNB0x+HlDwz0E0hIiLqk3p1IAcACALiJy1A/MT5XRTMBQjGYAANXdVCooBgECciIuoeen8gl3U2mIsmSDGjISaMh5QwEWLcWIh/fBio3nPNm0x0LTCIExERdS99J5DLdIJ5Q3Het28HhUKMz4QUPwFSwgSIMaMA0RTABhN1DQZxIiKi7qnvBXKZKphf2LsBkrsMQUNnQRyYCgi9eqwr9TEM4kRERN1b3w3kMkFA3A23BboVRF2OQZyIiKhnYCAn6mUYxImIiHoWBnKiXoJBnIiIqGdiICfq4RjEiYiIejYGcqIeikGciIiod+B0Ip0w8p7/RMSwzEA3g/ooMTYD1ntWIuShTxnGiYiIegH2kHdC9KhpuOnljSg7tA1HP/y/qDp1MNBNoj6APeJERES9EwP5VYgZOwcxY+dck2AuBEdAGpIJ5K7rsmNSz8QgTkRE1LsxkHeBLgnmgggpPhNS0nRIKbMgDhqBxvIS4GMG8r6KQZyIiKhvYCDvQh0N5oZ+gyAlT4eUPAvSkKkQgvpfn4ZSt8YgTkRE1LcwkF8DnsG86dyhK28YJEgJEyAlz4SUPANi1PDANpS6FQZxIiKivomB/BqSg/nFA5sQFOyCKXUWBJM10M2iboZBnIiIqG9jIL8OBo1fEOgmUDfEIE5EREQAAznRdccgTkRERGoM5ETXCYM4ERER6WEg///t2rtqFGEYx+F3kp3NwWgIeCpEVNSASRQJHhDESomF5yvxDryBXIi9heANiNi5wcIiINrYaGGlxVqkEYmaze7suzPzPOXXvP/yV3xQMSEOAPyLIIeKCHEAYC8EOYyYEAcABiHIJ1g5fyiWTq/G1+1e9hT2QIgDAPshyCdYd2ExNjZfxac3L6P3fDMtzIuZAxHxI+V2HQhxAGAYgnzSFUWcuHY3TlzdGGuYF+V8dJbvRHf1Ucy+24r48Kzym3UjxAGAURDkdTGWMC+ic+pGlKsPo1y+G0V3fue5937Ed+pNiAMAoyTI66aCMJ86fC66a4+jXHkQUwePj2ho8whxAKAKgryuhgzz4sDh6F64H+Xao5g+tlLh0PoT4gBAlQR53Q0S5p2ZKM/v/AvvnLkZUUyPd2vNCHEAYBwEeVPsEubxbefvd+fktSjXnkS5vBHFzELy0MknxAGAcRLkTfNbmH95+yIWzl6K6aWT2atqQYgDABkEeVMVRRy9ci97RS0IcQAgkyCntYQ4ADAJBDmtI8QBgEkiyGkNIQ4ATCJBTuMJcQBgkglyGkuIAwB1IMhpHCEOANSJIKcxhDgAUEeCnP86cuF6LJ1eja/bvewpuxLiAECdFf1+v589ghro9+PTm5fRe745dJiX00XcXp8bepIQBwCaQJAzmBGE+bBBLsQBgCYR5OzPEGG+3yAX4gBAEwlyhrOPMB80yIU4ANBkgpzRGCDM9xrkQhwAaANBzmjtIcz/F+RCHABoE0FONf4R5n8LciEOALSRIKdau4T5n0EuxAGANhPkjMdvYf7941bcXp+LqeMXY+7WUyEOALSaIGe8+v34/PpFLM7+jIXLj7PXAACkE+QAAJBoKnsAAAC0mSAHAIBEghwAABIJcgAASCTIAQAgkSAHAIBEghwAABIJcgAASCTIAQAgkSAHAIBEghwAABIJcgAASCTIAQAgkSAHAIBEghwAABIJcgAASCTIAQAgkSAHAIBEghwAABIJcgAASCTIAQAgkSAHAIBEghwAABIJcgAASCTIAQAgkSAHAIBEghwAABIJcgAASCTIAQAgkSAHAIBEghwAABIJcgAASCTIAQAgkSAHAIBEghwAABL9AuPTW6AuUHEYAAAAAElFTkSuQmCC;" vertex="1" parent="1">
          <mxGeometry x="1850" y="1150" width="480" height="207.57" as="geometry" />
        </mxCell>
        <mxCell id="07vgb-UoSSxsXepg9ZPe-12" value="" style="shape=image;verticalLabelPosition=bottom;labelBackgroundColor=default;verticalAlign=top;aspect=fixed;imageAspect=0;image=data:image/jpeg,/9j/4AAQSkZJRgABAQAAAQABAAD/7QBsUGhvdG9zaG9wIDMuMAA4QklNBAQAAAAAAE8cAVoAAxslRxwCAAACAAAcAnQAO8KpIERldmRGb3JEZXZzIC0gaHR0cDovL3d3dy5yZWRidWJibGUuY29tL3Blb3BsZS9kZXZkZm9yZGV2AP/bAEMABQMEBAQDBQQEBAUFBQYHDAgHBwcHDwsLCQwRDxISEQ8RERMWHBcTFBoVEREYIRgaHR0fHx8TFyIkIh4kHB4fHv/bAEMBBQUFBwYHDggIDh4UERQeHh4eHh4eHh4eHh4eHh4eHh4eHh4eHh4eHh4eHh4eHh4eHh4eHh4eHh4eHh4eHh4eHv/CABEIAlgCWAMBIgACEQEDEQH/xAAcAAEAAQUBAQAAAAAAAAAAAAAAAQIDBQYHBAj/xAAaAQEBAQEBAQEAAAAAAAAAAAAAAQIEAwUG/9oADAMBAAIQAxAAAAHsAAAAAAAAAAAAAAAAAAAAAAAAAAAAAAAAAAAAAAAAAAAAAAAAAAAAAAAAAAAAAAAAAAAAAAAAAAAAAAAAAAAAAAAAAAAAAAAAAAAAAAAAAAAAAAAAAAAAAAAAAAAAAAAAAAAAAAAAAAAAAAAAAAAAAAAAAAAAAAAAAAAAAACKStatnoa7hjenMvKdWchpOwTyD0HV55lkzep13NHoW6ipEgAAAAAAAAAAAAAAAAAAAAAAAAAgmKPMeq3z7nx2rSeU3TZ9dq9B4/V6/YebLzlTObHq/qLGobfjjTfHt3hNVqzvkPdtPPvMd/zHzDnz6Cnne8nsUVEgAAAAAAAAAAAAAAAAAAAAARFkuebUuQnRea+C8Wr9y6U3lZXdt1l695qj2+jG1GYvYSszNGLGQteSkv2aKSLF6g8nmyFoxnqrsHTeifM2SPo+rSdxLymoAAAAAAAAAAAAAAAAAAECijXjKch1rFmcxlzzk3Kaiuu1JeqsyeibEnoq81R6avPJ6avLJ6p8snpjzi+88F+mzBdoopKqEFFj0UHj3vS7R9Le35x7abHNuskAAAAAAAAAAAAAAAApFmNHPTxC1QTXEldVuSubclybUl6bMl5aF6qxJfmxJ6J88noWBfWBeiyLq0LsW4LtNEFymmCaZgt3rdB3TbvmHs5vc2bpIAAAAAAAAAAAAABBFidaPDw255iqqmSqaYK1AuLclagXFuS4ti5NoXvdd2/359e9GT9vRz6/Y2SmzTPDv+q8/Rillz9N5akurQuLYuLclU0CpSIu24O57f8AM3eDZptXCQAAAAAAAAAAAARaq8Z5Pn/YtHKaqZJRBUiCpSKlMFcUitQK5tyVqJNtmzsXdwavttij0879NMevlON92Px6afND5f1LigVqJKlIrUSVqJKppFSBVlsPWn0lkuIdnX1qagAAAAAAAAAABTNotaLtXz0Yv0eaSUCUQSiCUQVRAlAlAq9Xl6T7eOFvZ+jt4cFTnaDCRmqSlFPpicd7fB57zuSzee/G/d41p30lwPv88TNL6HlVNElU0SVTRJWpkrUSlSBc7VxTJn0fexmRWsAAAAAAAAAAgp8fow5z7lPu8JKBKAQCAQJQJQJQMr0LSty+h86aFHRzzQtS10+SjOvXT5IX14qvPcfRvmQpj8R92eXdP0XoxyZE/puKUSTNMpM0yTNMlU0iqaRVdsXTqXT/AJs+hVy027gAAAAAAAAApqsnm5rv/AzXpgTESEBCCUAQSgSgSiTY9w0He/ofOUKejwx2a8nVfzP2NTbZHyOzVI2unFwuainw3MRT5bnSdz5x1Y5vNM/qvnyglU0yszTKVIklEkzTJNVIv9W5Tm1+g/TjveVgAAAAAAAAjyejHmufP/TeYgBAEAgmEEoEoCYEokr6LzfKe/hu9OLdvDsHSuadI/FffmIp4PaY12x6zZ41hjWyxrUZ1sfC9l0H7XIH1ueUCpBKkCqYEzEkoFSJLtVq+d52fkvVF9kxIAAAAAAAILOJyWDOKazf84IJgEAgBBKAmAmJAAEwOo9K5l0r812zERwe2HtZvTujGUweA3LpxxND9HxSCQSglSCzMEqRJMxJKJJBPp8voNh7p83fRC5quzeAAAAAAAFNVs8em7bzk5DEwCCYBAIABEgAAAADZO3fNuW+d7d/jm+a+J17Zh8bijI67gtc+1ykT9LwTEgEglEpKJJmmSZiSQTMSL1m6Vdy4f1Y6R6fF7VkAAAAAAC1dsGM5V1HkRoNMwF2+eOAQAgmJgAmATAmASACY6hHMqO1cVEwqUSASiQSAkzBZmCTMSSiSpEkgm5aul7oPPt1Ow+/GZJawAAAAAAPN6PMYjjXYuNGBz/s9xiMVnMAYCAAQAAAAACY65HNMd27iI7Jxvscvq4n2ziYGomBKJAJAmJJCSCUSTfsSbF5Pfn5dQxe96ITct3LL+2antJ2bKYnKrdAAAAAABHm9PmMJx3sfJC97fBkTG67sutmvlRS6Hvub8/x9Fek+bHVuVWQjsByGN90ElCpfQPJZdY7HqfX41biX0xh5fn/ALFx7sNnq4n3TXzlc/QNw+em/aFZEs9WBq7zl835ufR3OzmyY1mWR6VLyWe85CX52fQHKLNXmJsv3vGPRYCblq8Xtq1XcTreVxeUW8AAAAAACPP6fOYTlnVedGEzmtbSYrW9p101XedG36OrfPXfPnSWMrio1Ppnke15HGuD/Qnz39B2c+570Hn1hCvp3iXa+KY1qHYePdgs9fFe08VJ7Bx7sBuvJ9s4uXt50Cqz6f8Anf6A43nWsfQ/M+iHNNAhrOV7184dMls87+ivnZPoPSN85dNaTVRO8df2rkHa8b+a5N4kCQm/Y9BVvmhdNOh5TG5NbgAAAAAAFi/aMPpe8a6ci33m3TDF4LYsQaBv2g77HTfnT6K+dZSGp1HfNH3XGvnb6C+ffoGzn3Pug8/sgV9NcU7VxTGtS6/yDr9z6uLdo4urr/IOvnp4x2bjIGp9J8i65yPGtpy2C2Q4JJvDc9M3mXsnzb9G/Nub9Ccv6fy9dJmJ3jZu38Q7djXzaN5mYEgq9Fm+U9j4/wB2XO5Hw+8qAAAAAAAorpMbr+y4E4pveBvmTxuXx5zXdtY2aOmfO301zzOuUNv2XWdi8e18IzrA9+4D0yyeZfSHLjQG3bfZvPFu28SzrUuu8j6BrOz8Y+huKy4PrvIuuJ6eNdl40oan0jyPrfJMas9q+aO2Wce8nbeaWa91jA9SlwfEM5hLPobl/T+YZukybzs3beJdszr5vJ1lMSJiS9doqMz2bm3UFyvs8/oJAAAAAAAiR5cLnsUaRzvrXIDo2O9tk0zI+ixHSuU9U+es3rdrlLUzmDhSYG77DydHT9b1ST6K492fhebgqobzvWa5WlbZqY3DTwJV0XU8NMRdtrN+z/I0vUNFxImYWdC1nCJZFmT3XnEyibBIuW/QVU15I6bt+Izy+29RWAAAAAAAAUeDI+U1nnvT9dNI2fm3TDGebNoznz39BfPkqJakSEJA6fHMN93/AMEuV4BlcPYFAAkoEgTEgBIEgkEiQSCQkFd+i4N+0fspl814Mqt2QAAAAAAAAWrtJicBtOFOWV7hyo6r5LmZOJYboPPhEwgKAy+IHr8sSkAAEkJESBIEgAkEgkEgkSCYkXKPQTM+g2zo2M2Fff7bV8kAAAAAAAACJFnGZfyGq6Z0TBHOeo8p2w27hX0Hp5xhXSkJLEiAoIASISIkBJEgJIkCQJBIJBIJIldKrkVFPRdb6cezO+PKrdriQAAAAAAAAABauwYvB7RijTuadg1sy+08K6+cs0v6L4MmMkAAAABJCQCiUiQEgAkEgkAkCVYvqh6vP0wyOwebNrf9lF0kAAAAAAAAAAAFHk91s17CbdhzQMB0TVTf9X1Po5wW3v2hJBJCYBJCRCQAASACREgJBIJACbpTfmoiW+F7bLeaW9k6PUTIAAAAAAAAAAAAIkWfBlLJrOH2/EGhYHomCPZpNGzHL43DUkoSISISIkABJCQAJIkCQJAE13yi5Miq/wBAPNtDMqy0ewXIkAAAAAAAAAAAAAARIseHKWjWsTt2MNR0zpePNQt5LBmr2N+1ZMUkAAAEgASQkAJAuXSzeuSRL0Hmzuf2NfPlb2VLeUq9RFxIAAAAAAAAAAAAAAAAiRa8vupMFi9q8RqPh2rGmg+Hf/GaHg94xJqtOV86eF6qSwuwW1YomsULlRZeis8tfpqLFyuSmYyB4Lu17KartfryC+TJ+rIFj33LpFYAAAAAAAAAAAAAAAAAAAU270Hh8WZtGt+Da/Gap59m8RquE3rznNcZ1i0cpnovgTSm1WTW2egwbO3jXW0es0qroWROfZbcL64bJZD1mN9uS9p4Pf675av1VESAAAAAAAAAAAAAAAAAAAAACJFFu/B4vPlKTB+XYbRrXn2eyaxb2a0a3TsNJr7PDAznajB1524YO/m7ph/TlbxjvT7bh571ySmoAAAAAAAAAAAAAAAAAAAAAAAAAAIioUU3R56fVB5KfaPC90Hiq9g8lfoFmq6KZkAAAAAAAAAAAAAAAAAAAAAAAAAAAAAAAAAAAAAAAAAAAAAAAAAAAAAAAAAAAAAAAAAAAAAAAAAAAAAAAAAAAAAAAAAAAAAAAAAAAAAAAAAAAAAAAAAAAAAAAAAAAAAAAAAf/8QANBAAAAYBAgQEBQQCAgMAAAAAAAECAwQFBhAREhM1QBQgMFAVISMxNBYkMjMiJUFgNoCQ/9oACAEBAAEFAv8A49bjcbjcbjcb/wDQNxxBThET9vXMh3Jq1AcypoHlLpg8lmj9STwWTTQWUukG8qaDOS1ywxb17wSsjLcb+8bg1CbZw4gl5W0Qk5BaPh11980oCGg2wGIZKFfVxVD4RX7T6qMkPQyILjhTINoNLfYONf2jIiZW0YhWcOWCUN/czMOuobRY5PEZE27sZY2BJCUAkBKQhIb2DStg29sPEGFubhzYwtJBSCCmwpsKbCmwaRCu7KKK7JorwadQ4jf28zDrqW0WmUNNibNlzVEQJIJIIgRAgQIwSglwJeBPDnDmA1g1AzBgwZBSQpANIhzJUJdXk7TgadQ4gj9r3BqFxfRYIsbGXYLIgRAiBAtCBabjcbglDiHEOIcQ4huN9TBgyBpBpFdYy4C6e+jTgR+0mYkyG2GrrInZBxK01tOk0SiBebcbjcbjcbjcbjcbjcbjcbjcb+QyBkDIUmQuxzjSG32iP2YzFtZsV7NrZSbF5vYjdfdd82+m43G43G43G43G43G43G43G43G438pkDIVdjJrnamyYnskfsilC+uGq9qVIelPl6W+m43G43G43G43G43G43G43G43G43G/kMRn3oz1DcNWDZH7EpQyG5RBbeccedL09xuNxuNxuNxuNxuNxuNxuNxuN/SacW05j1yie2k/YFKGQW6K9l1xbzvp767jcbhiM+8EVjpj4YPhhBVasPRnmhuNxuNxuN/TaWtpzH7ZFgyk++UYubFuBFlPuyZHY1LBPPyH246I0tqQNxvrZME2e439eO85GfprFufFSfeKMS5CGGbee5YS+yoPtdNOKFQ25z/ACWP4nYEKqc5XTIj7b7Jd0YcUMrtPEP8J7dlRrSkuc2Oa2Oa2N9bD8TsS+ZYpZnGkIUC7lZjJ7LwcMOucXYR2HH1tVCNvhUcfC44+GMD4YwPhrASXCnSf+JVUESVXnjEIXFE7CR65jGLLxkNJ9woxJdS2i2mKnTuwSW5w2Ex2PRn/iY70UKIlFcRfB2HrJFXLVAnR3ErQXbGHFDMZ3Az2NUjjnelZL2j1jPh6/TNWdnvX+5YbO42kH2yzEp1LbdhJVLmdjQl+58ilJSXiWB4lgeJYHiGQ5MZSVFWvSJOuZl/rvXSIMg4k2M4lxtPaGHDGXzOVD7KiP8AcazZPKELHVPJ/TtWP07Vj9PVY/T1WI1VXx1eTMT/ANX65A/mWHTObDQfaKMPKGQyfE2vZVS+CbrjDKZVv6WZvlt2CRQyPC2zRhPZGHDFzJ8NB7NtRoWy4TrWmEff0TMXUrxdh2CAv7UsnxMBB9koOmMzkfS7SFLVHBWEYx46MMH8jt1WtO/HqsfHqsfHawfHKwfHKwXV6TzXYp+//GFyPptmC7FYfMZM9zbbt8F/jq5VwHF/Ca0fCa0XtdCZqu1IY29ybhkwnsXBJVsUhw3X+3wY/l5MnsHocegtpZz8l6J2qfs2s2n4yt0o7Aw6YvneXW9xj9h4Ca24hxGtpAansVVIzCfyqxQ92yPsv7UDvMrG+wUHjGWucNZ3MCwlwjj5OQTkFcYO/rRIyZghPuZsvt0A/tiLnFWNAvXUHxmS/o91se3dI0wxf0mgXrrD4zE/q6JbUYUyaUdrhtfDkx81SlFL3SNMOP6zIT66xIGXH+9hxFPhEFCAbaUif/V2TkKW3H0wPp+cdH7RlHMcOqWTUiA8xEdgvt1+iNMRP9+wE+u4JAyzqFOX7NwLFj/DscGZaVDzbo2mCdPzfo/ayv8Ax9CPFVtytKqjRGmJ9SYCPXcEgZaX72n/AA1hYsv4+Tb1cE6dm3RtME6fm/R/Q29Dbym64bSJUhCjecNrRGmJ/nsBHruCQMvL6lJ+I4Fiz/iEkZnVYy88linq4yPG1bQU1DmN3mOI4DIyMUFHBXCzRttqXq1UVptZOw1Ht8RjRZEqHHjR0S2I8ho6uo2GCdPy1h2TXV+Klwt01U2TlNWLTfY+cNGlPVv2L0Cir4qVPwWjehwZabnG+Wk9IMKTNdgYwwguXTQQxIhPiXVwJJXlQ5Xq86NMQL6zAR67gkDL0fSoD3YcCxaf1jCm0LtrB1TEGZNlS1CsnPwJEV9EmNmEAo8sY/0bOvz9Wf6cv64MF6dmvR9MF6fOlsQo9nksp83HXHF4zdPNSTIlJuYxRLODHXLlQIrUOLkt068+K6fJgvVstubDzCtSy4KRttuqy+fKalAjMjxWzclIsWCkwfOn7DEE/TYCPXWJAylHFXY6r5uBYtC+iMG6pc9J1wp3jqspYJ6mGP8ARs5/P1Z/py/rYwbp2adH0wbp+bdI0SZkcVZuRsz6zg0clP28jw1Zrg0g+ZaMeJrhU9KzTqumKKMrxf8AHzkD+2Ko4a5kJ9dYfF23zK+gXtKcDhCxTvHGD9Uuek64GfytU8VYKDo2cfn6s/05f1sYP07NOj6YN+BmvSNa/wDAzPrGDF/r8t6Frhx7XP8AxJLaTU9KzPqumLddX/HzF9wv+NG3y69kJ9dQfElO4ibx7FXzJZCUnds/vg/VLnpOuCoMmbZfBVig6NnH5+rP9WXdbGD9OzTpGmD/AIGa9I1r/wADM+sYKv8AbZM2blJrhaN7R1ZIaWrjcqel5n1XTFuur/h5kaJRzHoqdiaBeuoPEJBC8RyLeMrmRnCDpfKQnhewfqlz0nXGYxxqnLpPJqxjxkqlzhk99Wf6st62MH6fmfSNMH/AzTpOsD8HMusYpLKNaOoJxqWwuNJ0wqMaI+Uyyj1Qqel5n1XTF+uL/h5k/YUTfNtI5BsF65h0SCGVs/ToXeOI4QWQtUcMjB+qOJS43YYw2szx2yI6jHOU684hlq8nnYTRh9ihKZTDUlibjMlC0Y7ZKOuxuO0Yy3rYwyWhqTaxCnQZNTYRzGEfgZp0nWB+DmXWCPY8dtkzWL+nTYEuls0qrcclOOKVHgxLmwVYSxVdLzLqumL9cX/HzFpijP8AhHIN9i4JBC1j+IiUD3BJcILIXLf+GD9UuD2qoGQzY5M5TFMn8pYIWdpKnnoXyFdkUqOgspjbOZUQl39g+K/fwGVHvdAjMjgZJKZR+qWOEUtydaxcXZ2MXVjJzaZuJ3xCWG1KQqDk0hsk5RD2fylO1hYSpytIuSGxGuJ3xCVpWSvBTjygzLyo0X9qhjkRGCCOxWHyD5CybOJbMLJ1hZCc3xs4UW1rc9K9IgwngYvnCduO/TpUs+Iso6Q0QT2Jh0hISMmjcyNj0jibUQdR8sab5d5c9K9LHad1x+ylohQ1qNS++TofyLGo3BHjpDZAuycIPpEhBKSjir7NCiWhSNyrSQzYXB/6n0Kmigvw49dAiifdwopWdg/Pd79Okdo5EmK2SUsJCOzUHkh9IyWLxN0ErjaSQmR+Np16VE9FiynMMvSZD/sKS0P5FjcXZDCQ0QLszDhB9IkNkolpXW2MR0nWyTxJySFt7UQLSGwcqVGbJKWEhBdqog8kPoF5D8THoJnAqMoTY5PM2UZUaT7QktFHsVHD8OwwgNJBdqYcIPoDyRdxDjv0k0nmmFcScmrucyotj9mSWtHD57zCAygILt1EHUh9AktJcQpLtZOrJaXWzInW8krjjv8AsqS1hx1S5EVlLaGEBtILuFkHkB5AsYiJTMCQ7Xy4Eklos4yJUewjKjP+xpLVCFuuVsNMZlhAaQEl3JhxIeQHUC1gJlN1E5yI/GfJxF/BTIbcQaF+wpLUiUpVVATGQygMoCC7syDiQ82HUC1rykpqbFyK7zEut3cHiBlsffpTqRKUqqryjky2GWwhILvFEHEB5sOIFnATKTAnPQnVKQ83ZwQZbH3qU6oSt1ysgJjJabDLYbSCLvlEHEB5sOIE6G3JbSqTWOtPNyUWMHcKSaT7okgi1ix3ZS4ENuMhpsMthtAIvYFEHEB1oONh9lK0SYL0RcOc28U6ClwnWlNq7ci3BJ1M9hBrXHjYZShDTYabCEAi9iMg4gOtBxsKQJ1c0+ZPSoSlJjzG5UNbJ9oSTBJ8kdh6SqBWtMBCA00GmwhAIvZDILQHGg40FthxslFIq9jOQ6yHY7LxOMqQfD65JMEgEXkZbdfOJUpINtkRNthpoNthKQRezGQUkLbDjQW0FNhxslE/WIM3WpbYNLagaNhwjgHAOExwmOExwmOExwGOAcA4SG3k3IMw5TwjVLSQ20SSQ2G2g20EICU+1GQUgLaC2gtoKbBoD8Rh4O1Idr5SAtKkH8vS3II4lm1AmOBmnIR4bDISgJbCGg20ENhKARe2bA0hSAtoLZCmQpoG2DQDQHIMZYXVRjCqdIOocHwqQPhUoFVSAVQ4E06QipjEG4MZAS3sCQEthLQQyENBDQSgEn3DYGkGgKbCmgpkKZBtA2hyxyxyxyxyxyxyxywTYJoEyEshLIS0EtgkAkjb3PYbA0g0A2wbQNkGyOSOSOSOSOSOSCZBMgmgTQJsEgEkbe9bDhHCOAcA4BwDljgHAOAcA4Rwjb/oew2/9nf/xAAoEQACAQMCBQUAAwAAAAAAAAAAAQIDEBESQAQTITFRICIyQVBggJD/2gAIAQMBAT8B/rPUraXpj3JVqi7i4iZSr6uj/DnJxq5KknN5xan8l+DWq8tHPn5OdPyc6fm1P5IjTTRUhp3/ABT999EvBol4OHoSlISKq9u/4le+3C8OlHLNETlxFFIwVukHv69LWuhyp+Cj8ba4+TXHycyHkr1dXRfg0fiYJKMVloWiUG0vw6VXQRqwf2SqU8dSdRY0x/hKHvMGPTgQ0IZi+DFsGDGyQ7odmIYh2YrIZ9WWyQ7LsRuxDEOzPqyGPtZbJDMWQ0YGIYh2YjAhn1ZbJDM3zZ2z6s7dD9OP8B//xAAsEQACAQIEAwcFAQAAAAAAAAAAAQIDEQQQEjETQFAFFCEiMlFSICNBQoCQ/9oACAECAQE/Af5np0rrUyNGm14HAgVaGnxXQ4JSpWKcVBWvlU9L6DRpcRnAgvwcKHscKHtlP0sq4uqptXMFinW8st+fwq8meqPual7mLxUKNN3ZOep3MBO1dc/hn5Mu08fPXogd5q/I71V+ROrKfqY2YBasRHn6FXQ/E4kfcx7++xs7vWf6nda/xZ3Wv8GdmYOVLzz36D2g/vsbKE61WahGQ416GIhCUr36HjcDx/NHcngMRH9SjhMUpXjGxQwc+Jxa7u+iJ9ETJbEducuasr5pjEx7Cfgas9RfK5cvyTI5bMkLKIyI9hLKI8mIW+T5JkcnuSFlEZEexHbJbn5yZEWT5JiZcXiMTLkRkR7Eco7jLjYhZPkmRLZ2LCyt9FsrFuWZH6bi/wABv//EAEYQAAECAgMMBwUFBwQDAAAAAAECAwARBBIhEBMiMTJAQVFxc7HBICNCUFJhcjAzYoGRFDSSodEkY4KDorLhBVOQ8EOj8f/aAAgBAQAGPwL/AIwpkyEYdMa+Sp8IwVOuelH6x1dEcV6lSjBoQ+bn+IsozP5x7hj6H9Yto7P5xhUIfJz/ABHWURxPpVOMJTrfqR+kYFMa+apcYmDMd+ftFIQg+HT9IlRaOpfmsyix1LI1ITE3nXHD8Sp9HrIyBHV9GbLrjZ+FUotcS8NS0xKk0dSPNBnHUUhCjqxH6d7Fa1BKRjJMFNGSaQrXiTEi9ekeFuz2OOMqMfsZB6+p8LlsBFJBo69eNMBbawpJxEHvErWoJSMZMFFCRfVeNWTFakvKX5aB8s4rUZ5SNY0GAimovSvGnJgLQoKScRB7uLaeuf8AANG2JvuYOhAyRnk2HMHSg5JgNq6l7wqOPZ3Wp11YQhOMmCzQiWmvH2lfpF+fXe0RJu0a8+SzTJuNePtJ/WEutLC0KxEd0V3ThHJQMaorOqkgZKBiETMSUrB1dwVmjNBykHEYrtHCGUg409zSElvqyUczBefWVrPcgeYWULESMkPpykcx3Je25KpCsQ8PmYU66oqWrGT3Ml1pRQtOIiL25JNITjHi8+4pCSn1ZCeZhTrqiparSTmWAgy1xhLSmPfflHvfyjBcSdsTUmzWMxS60opWm0ERJUkvpy08+4C6u1WJCfEYU+8qstWZErtSnRE12agIwCZ6j0b4jJOjMU0hlUlpgOosViWnUc+U64qqhImTBdVYgWITqGZvfKEupmQBb5RfZEJA6K8yDqLUGxadYhLrSqyFCYOe/Y2VdUg4fxGJ6MzdrKAxY494j6x7xP1j3ifr0F5n9jeV1ThwPI55VQeucsT5edyWgZhVbE46xwz8oy3PrGW59Yy3PrGU59YynPrASNF1cNUhbjwUsWyI/SLHqR9R+kF5pV9aGOy0ZjVWeubsV5+edKWoySkTJhb5ycSBqGYyGOAgY9J9kuKN6bhChMHHDjPZnNOzMEPpycSxrEJWkzSRMHORQ0HCctVszJvyt9nV0qhhk40oE9t1ikDtCqcxVQ1nCbtRszhS1GSUiZhykK7Rs8hmSj8PRmogbY96j6x71H1j3qfrHvU/WLFVj5QmnUtNVCbW0HT0G1aneRzFukJ7Jt2QlaTNKhMHNxR0nCex+nM1j4egEIFZ1WSIvv8AqLy6x7CdEe5V+Mx7lX4zHuVfjMe5V+MxWaoyKw0m3j0UjW6OBzI0dRwmTZszd09lGAPlmaPOzoP0ldt5yfZs0fTlnMmz2V4Cvnmzz2lKbNuaBQxiAtOI3abtTz9m46MnJTszKcNPaSm3bmrVHByjWPyzWWUjVGWR8o95+Rim7U8+gptdIkpJkcAx95/oVH3n+hUfef6DH3n+gx94/pMKo9EmEnKWdOaPUcnJNYZqsaGwE5xS/wCDn0CtdFQVKMyY+6Nx90bh51qjoSsSkRtzdA0OApzQkw46ca1FWcUsejn0UJYNVbna1Qhh5wuocMrdEUj5cRm7boxoUDAI05nSFfAR9c5rL90uxf6wFtqCknER0L25MEWpUNEX9ThdWMmyUoFDZNYJM1nz1ZxR1fBL6ZmU+NYHPlnXUOkDSnQYlSKN80HlFq1jamPeq/AY6hha/UZQU1722eyjOQnwLI55my3rUT/3653OVmvPX0alA5nRx6uV3FFY5s49SGEuLS5IVtkICEhIvwsGw57SE+QzNofBziei5izT7Q4wtDU5TUJXX97yhO+HA5qEV0onpVihLppdEqKsBr4/yhqlKKS24cGRhumqq3txUk6/+2dF0fBzzNvd8zmzrqm0FYdkFStxCBvRzuv73lCd8OBzahbxcM0HtKo4cb2hR5Qptv3bNKDafkjoubvnmbR+Dn0BmT2+5CBvRzuv73lCd8OBzZLRUaibQNUIUl1QKBJJniEXorNStWl56+i6fg55nRz5K5dAXJATJgOUxV5QcSRlf4j7s2Zdpy2KgpNER5BQi1DD6NgMKfoAkoWlrXsiRuNUp5BdW4mclYhFHQ0hKEhrEkS09BJNDaxaoW2wgIRVFgh4UptCwEWVoKaK2hCSZmrFSkoStE5yVB/ZWLj+95Q20wgrWXhYNhgKpzxn4G/1iX2Rs+q2JGhtDYJQaRRSpxkZQONN2q3goGUs4hA6kPL8TlsVFO0ds6ioCOsYZc85c4L9AmoC0tnH8rt7o7ZVrOgQFUtwuK8KbBFoojR+KU4ky6w55AiDfKOifiSJGK6TXYViVq2+ypB8hmbK9SiIULouKK0hVRolM9BmIfeRlIbKhFakPKc24rgdZV6k6FCG328lYmIFKbACHsfquUXdwxuufQR6Yc9KeFx7e8hA3o53X97ygv0hVVIirRf2dvX2jFdxalKOkmEUWkrK2V4KZ9kwQRMGHmBkhWDshujt5SzKEsMiSU/n5wui0VdVlNiiO3cC2HCBpToVCKQ32sY1GBTWRJKzJY89dyjXtATWaSoyGMyhNFadKGy3My03JgyMKo1IVWcQJhWsQ8ye0k+yeXrUBmZV4Fg8oWnou7k8RFL3KuHQLf8AtuGHZ428MXKLu4Y3XPoI9MOelPC49veQgb0c7r295QnejgbsxDThxqQDG1sQ9ST2BVHzh97SlFm3oP0YmyVcQ+zpUgy26LlE3KOEI3Q4m6yBpCgfpB9kFeNROZvp+CcS13VXHdyeIil7lXDoUsejnFKT+6VwuUXdwzuufQRshz0p4XHt7yEDejnde3vKE70cD0KPuk8I/liHz+95Q9tTx6G1s3HQPGYom5RwhG6HE3aP/F/aYPsmE/DPMyDFQ9ldW6oXHdyeIilblXDoUpzQSkfT/wCxSlfulcLlF3cM7rn0EbIc9KeFx7e8hA3o53Xt7yhO9HA9Bjdp4R/LEUhvUsGKQBoAV9D0Fq8LRhS1GxImYKtZnFE3KOEI3Q4m7R/4v7TB9ihodpUoAGaKVoXJUIV5XVDzh3cniIpW5Vw6DYWJKXhmL0Mp41flcoxHgij0jRag9BGyHPSnhce3vIQN6Od17e8oTvRwPQY3aeEfyxAStUkOir89EKbViUJGHGHMpBlddpSv/IaqdghaO09gDncom5RwhG6HE3aP/F/aYPsUakYWatPjsmqYqars9cO7k8RCkLAKVCRBgrobt7+BWKJVEH+OA9TVJVK0Np5wpxxQShItMFzE2mxA8rhoLplbNs8oUy8mshUToriHEfFYYtQ2nauK9KXfleHEm456U8LjlGWZX21O2HKPOrPEfOMOirI1oFYXHt7yhO9HA9Bjdp4R/LETEBl1X7QgW/F5xfW1BD4GnEqJfZVHYYCqXJlsYxOZMYRDbTYlBdxIFiE6hcou5RwhO6HE3aP/ABf2mD7F189o1RmrrWkizbFQ6boVqh3cniIpRH+0rhFVyT6Pix/WOto7qT8MjHUUZxXqMo61ckaEJxXbIqPpD6RiJMjFtGdntEdXRD81wQFhlJ8EUeeO9J4Q7sHC5MGRio+gPgaZyMfdXPxXFtBi+VlVp1pQGDR73JVadafQQ39kBqpAy/8AEX+93vBlKc7gUhRSoYiIq0lsPDxCwxhMPg/KOoopn8Zib7kwMSRiF1pn7JO9oCZ19XygP3u9yTVlOd1uk1K9Sdk/KJfY/wD2f49i21pAt25sojEo1xCVjVcUIdH7k8RFK3SuHtEI1JAikqHjl9LO4kDsowjm4eTja4QWScV17zZPERSt0rh7NFKpKChtJmlJGVC31nFkjWYKjjNvcReUMJzhm5SoTBsMFBxJP5QFDTcLi1BM25W7RFK3SuHsWqQtTq66ZkTsis3R20kaTBCV35fhRFd0ySMlIxDuJDCdJthKUiQFgzgUlONFitkXpRtFwiHaMl5YbVYU6PYhlmkKQgYgI655xz1K7kNJULV2J2ZyUqEwccVezjHmICxcvyR3alkYu0fKAlIkBizqaR1iLU/pF5WdlwplCkEd2TV7xdpzz7U0MFRwvIwAThC5fEDCESPdX2hwYCcnzOeqQsTSccfBoOsQFAxKC4kYJ7pDackZRhKECSRiz4oVYeydUFl2y22AQbIKSIKCO5w02JqMBCbT2jr7gssdTkmLw/MSMrYsMFQGFBSrR3KEIE1HFEza4co9xV0YLoxHXH2ekTErLYstguIFsSPcYQgVlHEIrrtdP5dyTyXRiVH2ekgiKyTMGK6BbEj3De2k1lGJnCcONXc1VYt0K1RVcwm9B0RNJiujHEjn9VsSTpVFVAt0q190FC01knRBeopKkeHSIquWKisnHElDPQt+aEeHSYCEJkkd1109W54hFSkJmjxaIslOMUxnUmU2eI4orK6xzWe7ilQBHnFeirvavDoi90xojzisyoRaM2ky2VeeiK1IVXPhGKJJEh3jVUkEajFZhRaV+USdZvqdabYwDLyzPBbqDWqyJvEun8okkADy726xoE69MdU8oeSrY92F+kxJaFJ2j2eOJNoUvYIyAgfEY650q8kx1bQHnp78tEYTCPkJRZXRsVGA+sbROLKQPwxY63GW1HvW4tpA/DGE+s7BFtde1UYLCPmJxYP+MP8A/8QALRAAAgECBAQGAwEAAwAAAAAAAAERITEQQVFhcYGh8CAwQJGxwVDR4fFggJD/2gAIAQEAAT8h/wDHiSUQIEcMSBAn89IwwzJIu2zNDpN9pDjpN9CXStj4yWj8wNukW8vvD0i65bQ+y+fkB90rY+cHVpH9hF7Gb7QE5JlmmIoT+WkeAk+KU+1UlGfKJ9lM9CUTioourlm8enfI2STIkyHCkjbz7tJPyHrhEeQ9ZDlkPOvTvgQqWVFV1UMgG/afZxHUoW8/VVwF+STgpB5MMlzGiS5HBzz5D5ss2fvd+4nbl1fg3WIFQUHWCjd7mbDA5hlaeDRqcq4xTKe279R8zFJVOeXP3M9BjJ8xCfxs4KZOy3CSGXFoScFd9C6TypxwrF4O14S46MgzGLMbqSeY55kmIQEQsTifvWJxFZnNmxtxV11FA8mWT/GDERMSDNpxMuFyc6DyPI+34H0wJjDCYgisIiscwyw2N4EF41JnVNTyPtDJjkziZ8Lk4n+IhFU4lqiLeyOzgaOpD7erdjXOrMIIITExMTwIIIIILx/XhMNjHicA3OzV3E0dRVOJao/ww2RjrP3Id5lUbV3+73ERsIWpqFsohEiYmIJiwEEEV5u4CRsbHiFc/V3+b3Kf+5DvMmF+CbICiJr1vgXyZgsXlstEIIQmSSSSJieCRYCwEF534BODEM58K+Hqig4r1/o+CcX4BsiHp6TYTsoNQpN8xBCwkkkkkTJxFgLzQAEkkkkk4MY7uU3CJhpthNH6JReubIihVeD9HyPgpmzYkIRJOEkkkk4JJxEFE7qojp3SxKryLyHKvRECKp4heMCSSSSSScbDa75gmUaHxNm3wSi9Y2RjJ5LmoNUMy3psthCwkkkknCSSSSSSSROEGXqYvvhZC5LJRatEMeBI3QTkw2HoeJJJJJJJJJJJOKcMn9WVvs9hmcFzUpPWQCpckskPPfYVnqLyJJJJJJJJJwuO9x6pDkXUPVBK67DY2NjZBzZQ174SSSSSSSSTjPgfImG7Ss9BI2CGY/qnI0MYzdF7PBfIq+o1eCfDJJOEkieEklXzolGo/wCJH/Nj/iyDUpyhsbG9tfKxkkkkkkkknFeCEDEDOA++H8kyG9Q2RoY6FLts+T7FeoyK088RN62byQgs/MqUf5L9H+S/R/mv0f4T9H+U/QiUQkKRsbH9tfJJrika4h0D3M6FfOr23JJJJJ8pOGLKlXRBT4Z8mQmQvTxIUTcMZJEoilIybfvmL0DFqlnCQtFZ9ZjY2NjY2NjY2SdOvlHY7skXUShHmh6NUczt+vPbIlqdgzb/ALFs1SGaY/pmIkz42TXLm/jy58cAijt+Q2NjY2NjY2Nk4KfnUl8jLSTkV6kkmqp5VV8v2xXiWKxThjQN6rFnXJ/JOhelgQoGwZokbDm9he3opNF90NjY2SRgurQM6xjwFp2exFrd+Cq2rWme+EkkumF7+gHoS/ZZZ5l7CwahDNManpGI0x8BuiGSX96L39HFqPuNjeDFduwlSL6yJyqjd/SFBdxkouwPsSkTJU7p4GySRKzXoEPDEBknQOLb76FIXo6RSY5A22/e6z6PbE3GxsbLB+lpTcpP2TxkkknCSSSL6zewrL79C0ontw/kWdYJ0NT0VhQI5+xUXWDj6Ng8NlDZqM8CRvH+cJJJJGyRCTbaSRLyVfJW/fP0LCWLolpppcqj6lD0TUKbIlivVys+enpEPmykvo4CqXsG+CmTbKzHJJI8M2TZa5Hc/Ubju2O9+k736RwZ+/QTjS0IaaJeiYOrImtR4bo/jqUiz0LUKLI6aaDHu+rfqOpGScGXMMTVn+Qz/AYrwuZKnGfLXjVywk5pOM+66pFAanoHYaglohJS2XGic3PqEagZJJJJFxcwqi03qawei21TGSkzS+dLFeIsth5ORLlKSUNT0FhQZVnIcaF8+pRWIaSlpZcgp68sSmSTgpMa5gxqpig3cSGOFLpDJ5q8oQ1JrBuNH0NQXn2FB+raMqiblleUPNNJZ/ffsTzsrfoSs3gFJe6oX7Fj4yHSlbu79AvHaVudwH/Q1Czz7RqMasl7avVq+aDhwp6zkO/1ov4PQt8+0ejJdCmDEm7FjYe/TGc8VklB2sJiCFEL0YsF4rhEeub1Y1Czz7Rrkkyin1E2lFzFNVLLIg8Ot/RKXYptQlYb449hs9MUvsl+E4sUnvbbwyuGUrJpn3QhRRKd1Y0qwRcIYtdPoGoW+fYZjpILUou8W2t/RSTWBWi1DuemLuNnp6nc9jMnaxW+obDPAuL5nBFwjrXwLCzz7DMbEceorUzinW+FM7KSPDHkNdz0xdxs8qomdkR45aeF7c95NnciL/2qovdjKxeedKY5vAQs6aPQWlnn2GY4lQHl1uIKL7uCW8xCSzGp0J+XkI3BifUVoTI4Jq8WcH3JXlMwk+2wwIaao08FWETOkvsptWKIqtPA6TbV+0VlzUulhSRjTK5IniCyTgCwJNtOHYbCKrqjsRxpApzYWl0VTdRmmmczoVqwVX7lizJye5G72JaQXQuiwpW8XSRN0rtHPsHPmfEi+XARptNQ1gsMvA4jIs2q7q3fQTkdrNaj+Sas/YiTv/RoW2HIZdtPIWCJNKnqy0s8+wzDHk/dV/DaRiCi1N8HaSBMgnqLaTlS0pSSNysmo4KyJGluJwDHASuVsW1ZZve/vh0Y7Dd4OkfHgkW7Tpi7jYSAVCpLb0QypqUuRxy5e4wXLPNvmMe4mVvKroKDIQ08xK7UriVXyJooZaLN8hG1Crir5tuNCut3Vs66fJLdSUJFXpaNFF5Jc4yFBYZqi/d3cRksYSRZb3E4nW7k2r3yG23LcsXmkWadh6CWV97hQgjplOTyfv5NkR/xgv6WFnn2iXO9j/o5QEFKl6PFX3nV4JTdUI2df2M9LTdGr9Jw6Idhu8HQPjFTqJd70xd1s8BxDY01VNF1hfNSIkzWZfUSfVHHu+OpFbhjmUXVrwIzx0To7P6IZSaSfN1QZnctPgUMUpwhN/R0T8i0pc7wSn0LQt8+wWjOO5OKr9FzWCYHIGMvvOrwN06bFDjP52HSDvt3g6D8YqdZLuOmLttnhudg0Hf7sUsw4dA/M+L4HoSyL6P6HcKspJXuzsWnw6AOifkSGHDS3F1+xKFnn2iUYhEJTo0LL6ubk4Eq64XCwSGWEvvurwZQW8jYUwy+Zh0A7bd4Oi/HgQG7Tpi77Z4TnZtB2fES5VYHio+hD8vlCG+ifgdlvuG0QbHWaJIczu73HatPhUAdA/GlRDr0V7mIWISUIWhb59hQZcIxSSEx7PqmLSZi4TssbwvvurwT9E0cbdIJ9li4Kv8AXPBokqj2bRCOTiLr78HRfjGBlBmTtOmLttnh+d+0Hd8SsIrNuynMvaXhMvNFt98UlNQdQfv8FzVL2d3t84dq0+ERh0D8ahEqhNLafZdWWhaFnn2CUZdJkF3gO3x1K8dcZcAMBb47LI0yeUe77rrqc+skgeyx7gp3fRLEQzJFe9R3bVxeCU7uSd5v9hLxCGhoYVk0P0yKoNf0CVCsig/YoShKixIoqxS2hNOafQeVWi9JKofV2aCw77Z4bndtB2fEcpjTVU0RcIiPLo+xIjCTsNH+yddypolQBPkHS3EWGjqS7LJDqJ147JEd+0+Gwh0T8Sq8FlJQCzyL/PQsiUF57sJQulAV0dVdStEKnEpFc2AtjA01E1xCs9JRFK9tZPYpj8oWVDVXxkj6kuaJP3izaWhoTFEiAeeZYToUBB7VyF9HiFh+9x2czbSN8Bw0vApMIcprISqKl1l5kjJobWjBdG8KVEtNhdCDsSai2+KLt5OeFAZJShtU4N6BLENCOtMz+bGuBCTfZNrQnR9kIO2A5WCIyspswiROVJ2Jtz1xfyAKZZX5jDBVeISsiGsV2f14lWURKehShRZXZSb9436yZrGDoDkOdZB9v1eWjbhEEU6Qh4VF2nL8AkIRTOWe1/YLBSEp6FaFNlwYlVpfHf6LyVmHM1C3aMI+36vKSbcCwhqyfLgvkVAlIk4SGLy1tx9essQ0rH1kacFiwUiz0LKBeFzE2h5omM6FN55H7DG5SYBPKxW0S7HQQ2JyvueS7cIg0jzsp6jDLAqWubEhE5kqd3Y7+gnff8AkIRu+TRZsj6NI2KAlPRrQmTL41H7x7P5FbUyYVFXRDs7k1J7eTOxqAqSOJabjJ/AZwhqg7vqHv9FshQtPRoToviDCUI80NMnByi+WU0INqZC/4pJYkIRL5nRlmI9jSTRYNIXpKROmXCVnc81GSx5hLVxvpSiigmn4mBCLBdj4ezsrJYUCF9KhKi4QtlO60dsMyUExERKZ1GvRDX4fPEWUsbcPQ+ymJQIXppETpl0TXVhGRKW2c9xUmXSMrVlFYP12/DT1EhInyVbTQsqrCIskSF9OyVF0vlMsrmsLBaKCfZJiYQacoo/po/wkokImfGCtk11WDEiJepQkRfoRyTCCn8XsNSqoWQRWhpopllmKyht+CluJCGN34RFJnLuy2w4SES9VMTovUIZKUE/0GXmLgCk2SNCWoUc5ENfgMxiQhjduEFLi9X8ESG0RIT1bJSZMu0IyKoR/k9iIgVKkKCBM2YxiIa9ak2QXEhC49oMinTkrZE2RsEK9dNEpOi7QjyKWyWrirZro3f0goc3RVogMK4a9W53FISLFPov2RVoa9cTZGyQEXr2iUnL1CLIRquGLkIvuSii7eGOHch2ieoaFISEJ4tBaeR7EC8VokbJtkX4KaJyUuUI8iIaOBN+KFJu0kq3MmDg+tMMR6RgQhIgcJS2caVQQgFbFRcET5GwbJARfg4JyQ2jaIshpF3SSmIe9rHX+htBLLK+ZXUaEYchsiH5sDGRqMSsiCBwlU3brI5jRd6HEW1VWSUJEuRsEeRH+ICUnyNk2iLIbWndEofNOlX25C3tGtcrcrUOuQ00GhLXGtk2cYT6iUSshIQQQNWcl/e3aj1aU29goqqySES5GybRHkQCX4honJ8jaNs2TYwvjLPchFeEkCaotfqZIk76E2zRBBBBBBBGDXdBJQuMZp2f0FC9mIRcL2T7sHbNs2RayIsFL8W8El5GwbBtDNDawJ00hrc6kJHQs/ssz4gAQuOP9jzzxTP8ASf6M2ngmMWHD+z4mCLX7LI68PsCEhCWiwdkfobBsiFkQEQl+PeA2xLyNk2DYNsZoN9B7DgxOAWwW0boP0No2DaNsQssKAX5Mw8LsidBGhsGwPaPacJwi2i2mwbBtitBWmEkRj8xAywy8HhI6ENCOgtoigighH/AIIRAgQiCP+zX/2gAMAwEAAgADAAAAEAAAAAAAAAAAAAAAAAAAAAAAAAAAAAAAAAAAAAAAAAAAAAAAAAAAAAAAAAAAAAAAAAAAAAAAAAAAAAAAAAAAAAAAAAAAAAAAAAAAAAAAAAAAAAAAAAAAAAAAAAAAAAAAAAAAAAAAAAAAAAAAAAAAAAAAAAAAAAAAAAAAAAABCIKPIIKACAAAAAAAAAAAAAAAAAAAAAAAAAAEMPHMPBFJIHBHDAAAAAAAAAAAAAAAAAAAAAAAJIJHNBMIBBGNNCKPCAAAAAAAAAAAAAAAAAAAKJNEJFEHFDCGLCFOEKHJAAAAAAAAAAAAAAAABJAFCOOBGJPGMOOIFEFPPBKAAAAAAAAAAAAAAAONHJHCEGNIH6kc/EDJCILIELAAAAAAAAAAAAAONKNNIBEFLHNR+SLBOPGHNPMbCAAAAAAAAAAAGBLBBLNHPNGP1g+Xs/oKLPHHUbeAAAAAAAAAABMGHKOKKEJHPVFt6Gyg+GAaeRZfRAAAAAAAAAAABIGINKNLPGCULVFp5XKFSPWUaYdIAAAAAAAAADKMDJJFCBLCMN755erOAFFVZYTWSRIAAAAAAABNIJGGGBLLKAEJDoSdXtEHVNXcXcVQAAAAAAAAFFMJGGHMEAEOBPCoMAOKFEGSTedaVZeAAAAAAAAMHDGOJFPHLHIAA07KNCOHZJcXSUUXSAAAAAAAHHDIHIHMAIEAC9bogJENFPFUWbQrnUaAAAAAAAKIBFOAtUy3jACTklaMoKNvR0vSdQXVdAAAAAAAIDLNPUZAQaTCvrjne7qooi7qVt1dx7UAAAAAAAFCBDDVTPQcfJk/uqtAOLfu7qaxRdXSCAAAAAAABBPHLWgXDiTcsRH8lEPQSEQ5beSYTSJAAAAAAAEBPBFTwTPDXS4UfrkGrYfsRlckWy/RKAAAAAAAAJNNOTOIMDoJTFMTQaTcWWWRZZxzwWAAAAAAAAABKKNKFfPLCbTScbcWTeWWWWY6y9bFAAAAAAAAAEDDOHOcLTCRUcZWbWZcWWWWUYyWaCAAAAAAAAAAABOMLbSRTTWdTObeRWUWXRY97VPAAAAAAAAAAAAMKCJLSRSUdTXUTUZWWWwU85REAAAAAAAAAAAAAENONEAccdbTSdTe7c+ze3waMKAAAAAAAAAAAAAAAAKGJDeQTTUQScX50x3ZFOOAAAAAAAAAAAAAAAAEOMHJMLe3fZy06WceeBNAAAAAAAAAAAAAAAAAAAAJLBBDIMQeWQeSIPFCIAAAAAAAAAAAAAAAAAAAAAEJKDHICAPFJDEAIAAAAAAAAAAAAAAAAAAAAAAAAAAMAJGJILMAAAAAAAAAAAAAAAAAAAAAAAAAAAAAAAAAAAAAAAAAAAAAAAAAAAAAAAAAAAAAAAAAAAAAAAAAAAAAAAAAAAAAAAAAAAAAAAAAAAAAAAAAAAAAAAAAAAAAAAAAAAAAAAAAAP/EACQRAQACAgEDBAMBAAAAAAAAAAEAERAxIUBQUSAwQWFgcYCh/9oACAEDAQE/EP5nakuFK4QPzLPy9jTEuXdTHH93YQ4NsVbgwlvln+qBGpvGuvsp4IEBdQ8iHkQApwQwqXvr6rfUIGDln1Q8E1BCF14S7YgDyoOMCA7EPGh4ECunsIswh9IqYV2PQdQaFIVkGxo7GFxK7GFsSpvN/bqPGD3hM/eJUC5VYaQ/ODeBWXiVDFRCCYfeKOi2j5w8l47Y0m82m8TcGoeIaLi3HTBTHBWdFtN/QHeNJvNpvN8aQw29E19J7u0FwUWio6YlwU0m0HM2m2NI/iKIflitjhr6T3do6ZbIiWzTAoS7xa4ERVxbgU6Lab+gFgDcW+hPws/qr//EACgRAQACAgECBgICAwAAAAAAAAEAERAxIUBBUFFhcZGhILEw4YCBkP/aAAgBAgEBPxD/ABnO9olo5RbtKHZ8DPNqUVbH0vAU5NEBVlIFFE+tA06FhjofZ19CfNwobnpJ6aPEEV7Y/r+Ovup5OBJqqPnvmPn/AJjFo++FyHbn468GNGXmkL4f1hqWP4Y/0TH+oYCnS4DyPAav9P6wpmF9WLTCO7zz4GLsr6sZpT7cwG5Hd4/caKro7Hga0XLDwNaLlh/KFw6BJPZBGIINl4Bj7SorERylINzU9EC4QT2wD0WkHGCGk1xtNZpiKriWTao7agVDxcdmQU9FozTJpNcbTWafjE4aTvm+N+i0hEQQWuGyFVMQTaaRFYtMh7wCTgogom+Nui0gElYFYrAE3cUiXArADFYAwAYQei0mn4LUU8EFf8Bv/8QALBABAAIBBAECBQUBAQEBAAAAAQARIRAxQVFhcYEgkaGx8DBAUMHR4fGAkP/aAAgBAQABPxD/APHeyU7+CLySncPBCQkBLO/5y4kgnMA5hPdsYA7VhC1zSY/mPpKh5FR9Ulr3SEme4r9gjps2BtXsJywBLPsiZ91T6wL9ylAq26Xyi8jJ1j80nG6tBnfcfSG1gQkTsSG8wGAf5ZBBOYJzCAEB3Ydqsp5qP1sQcXvIHqqOXxgl6418iTgdI3D3MRxCwNkBAK9IcqLpai1asQUYHi7hoSS2zaVF5CcAUp06bFxUeAEvXOON1YjXwE6vLkD0VCzt7sOcNPNVAeYDBH+RSQDmVibAP2rARGyU2tnmL7FPcWXHNVVUhq8NPEdWJlXdjvE8EINobiF4lJglfSEELD0YLXHDBtfVlxdMtsEZeCLuBbom7iIXiZ0AyJxEY9bYXFYbX0KeIiHC3awbS+eygg4H2EfsGGGm8A/xqCAXmNCIRO5VwEMceElvY5enSyggLKw2wVg5C+5bxPHC6gtiAcQAgpgHM7sWAH+pSqUEPDtQm8wm4VcdcdeI68Qc4jl4iBEti+6b9RLOIgI2Kls9nD07SUqbAP2JhgJBv+JWEcww5lIeJu33zZ22YDMeIXL+92tly5F81G6njgEElIWq+eV8zzTzRO43cSt4KoruJ3E7iztYWZlBbIy8Q84ld4lB15Ntbu2HBsPmFCbFRW/GL0HghcMbw0/h1ohBzMKhig/tdgMrgjSq07F9x83ZaR8ulXM+8ywWKOf0NOgmOlmnc6JXmeeWxO5RzBnkhhLVvPVPVHuxBMDmOoVcIkJuHnEVWKJkTcgg878HHgfJ20EyYmKD+k2RyOGEm8G/4QAhhzK68RBU4DgMWsHrQslWC1HD9xZziigIO0uu5WltE4HpCSgQw30Rnk0aIT5Yeh5IQecF3Dy0euL7jpvlExh1pnvCbm/DL7BajuvBgZ7ssR9eAgucJyPAw+tgI3iv+CMhBzEz9BQ8GfDvsOUbZ2XwLwGwcBiHCEZKNJ5Qgnyzywj16AIncHPLA7lO56tXlmPnHzlu55TZGHQYW4bicRHp2bKchsnIzAdLsBtk3vxusPCkN4rP4AwgBzLE13yj8Dl6RTP2LT8wGwYNDCdoOgg0zSkmE9WiR0MF3CCKdwEPLW9WoaPr07NNIpKVCjZAoTepPzjZ2gi8s8A/F4ekIbxWfvqiEHMyFPY4G2LYvG6wco3h6Fo+xxWwYNLCLRaD5nK56tBJ5w8oec9UIPKUS0cv+au/tcyR3V37B9ZvmvFf7hDdef8AqAq50v23Haj3Wj1695y0V1j4H9Uyh5aLikW1kFolagfmTZJc4XS4O3nTxyaeFAbxWfvKCAHMPBdBTgngN14PNDeJKthwHAMBDoGYQ0MYeUHRSGgeU8tFqhch2bM0D43faLJXeDQ2D8I0aOxjvdGeSO7MfOGocjxDa1i28Xhr56CDvDR9eg7T1TZvCCkpLjUyRGtXMbDkOUYTzCsVUW5R5HceTzYUoNn7paIYcxp2E8B93gDK0ETBava3F+W67xsEEIMtIMGXUvzos6PVDdCSTGEDQxBzLEoAIde5cOnZ9IJRMWUNKp337aO7PJomnD7I1l5hBJN3Ut3DtCLgwgYJGUttmPE6BcW59m67xstk4wrgP2eEcjiWkP3NIwEzG1Mz0C8ufq2eBmTva5hLg6Lly/MvnUtL0EeSC1CCAq8Ym3jcyfyPefh77xX4n1gGJCxHCTyTc0tlg+fgJBBBBBAwYpeqVJAG9eHdvGz4p2sAMyw/cVDBTMyAyxbq+eEryN6Y7KrttvmBEpUBy9wcQzL0uXLly5cuXL4JcUIb8pge14iE/wBiB4FG/XER2i0DEWltDoz9DiebxDbcgVnVd5/ExaXi0tjAp47YtnAFB8qSjqTiD2DD4NrycwWbgIWhApcuDB4gwYMGMayMb1kEmBd8l9bsKfI9kPcis/bLRLTMU0BmDKr6BG6b2pNKtpcrytBFly5fMuLF4ly5cuXiDnEHEb0UAyq0EaYQUi+f2ONHc+MAZhzZfPSYZ4sqxMI+IjguV3eXLx9Qy4NS5bBgwZcHEGDCXiMxqmdA90CnqUDyEVtIthLE8Iy8/bVDNwR24yo5Vj2HyZzCG02hLzL8RZcupei4S5cuG0SsOIOin1qUH6AAE6Lg2Fc0In6HzmEj1rB+sxpGKINdGF2e5JcFeYsS2DBlwYoNS/MUJe8ayEp8oh93Ryr9Q+Q6lBmOz9otEtMxRyX2Eq+wS+EWV4Me0A8uYS5eYy4NS5d4iy4S5c70uDAX3YPf/D4BGGQbuEfNhFLn0T/iMR/nhu/TwGXBmt9doQ7FLAtIMBoLurje8RtGP+UN/jJcGDoMFg6XCHUHjQ0voyz8A75se8n3qKGAzALE9Rlv7RUM3xFTK2Kcja8noRjuEXEvmLOZeKl4l40ZeIugy5cOYN/m75D/AHQ3IsCoJgrWhoyt0Byw9vhbblMJfgo76KBQG7a/Wfhv9xPn/HuV7TxTYUjNkU0+kU2DGgwwr9hPZf6nMuXLhBYMIaGhCXppKe8c6JY5b35EHgi/dHZ+y4lSleSVgTKBQk+du+qly4wcS5vGMvS8y9bly4bVKFdD7gx9QmDQqGCikiuT9gpeW9yXiFaHBjDCx8owwp8Avmh+f9suDoQl1swhBxBhDaDBlwadBdd8cWAn0K9BlLmWfsiqK1mWozNl5svi1vEVVVatq8zaXLjL307lxZet/FTSV3hG4E9Dg7uT2bIxiZuvwubxGFjDhGHQMBiC1WgIxjfhs3i986BCEIQgwhoQYMvEKm4RKJSYTiGWmVwHE+hlwht+xoUqzRLoCjICrHSt1XCM4ly2WS4OhzB1vXdLWjtWld9H7wWhS20PkMWH8nyih2mPiWGGL1SV7CJZVz1FeULENvKe4hmSYOC6QQ75oO6B7ad8cy3nUcQhCXDfeHiEuEPSXDaEq9UFxyRgayC5pweBEWjMV/sHErUqySzX7V3Rm8gvaXptCLpeJcvQ0uHx3LhHX5GIcJsxFhWuESzauY/ln3n5J/cR2qRyC1npSLLguNSENSGoYbQhmGNHQSK4dBQ/I+Yi95acy79gdKVqFtWQ0AbsFEBA2FqfXVnEvLrf6J8Zrxkq8Qw6DuhBAdJCLywJGeMzeV68O1uKsBNqZagKLyy5hDQ0uXoQqDDQYlzKENXYnK8V2X9IfkVDZEsZcIfrulKoA+hujgPvCcaDLl6Orqwl63L+EhgkTfCsDm3HS81DyQLAeRIwxc92u0FjZE3GEQEiG2U0tull3iDZMjlYCc1ar3XTFLly5bqQhCEvUQhCENFsl3pYd8Q8+p+qlomR+u6Uqkw4PM7Uv4eYuNLJenMdL1v9MhBqOUTljDtbXtZT5lZDbhnxTiCKV3TT6oHf4o3CEvWOHkCz71BhUwU6OU5Lp6lr8BDW4MIbQhM6CoaGlxZENLxHd4j0UjaI7/XOlKYEJLJ8s+6Mv4GL8Ny4MuXLly5ehjUgQcrkAqLdC7W0/LQly9CDBg6kIQhoMIQIQcw0Isscs8RTXBPvE3iO/wBcstM/9zVH9aFKCxSne0CGqJbHTnUf06xqSw5gsZ5FldxhJKQw6wxLg6mh8BoMuDC4Q+AIS9Deb02T/wA8Mf7lxjv9ZxHlMEParIL2X/AiOQ6YupF2TYpXiCYVYJf6Fw0uXLly4MCULXiWmqqgCgFFwOQqMN4pdTHnU1JcuXDQhDQhDQGR1Xce7AaPacfBJuA7ksjFJIWF7iFXZMsJfLpu0xUoWDPUvQctFgWrB3X+kwf152Yso8Rd6oQ4C7GDfE3Mddr4L8Na18FQjwTDhNQiwtX31bGm7mNy5cF1NDQhDQTU2hBgxP5e8dyHi8GfKvsMSq51u3p9775u4EpN7RY6Jbwmx+s7M3JthCq4JrGP9J7Aw5E3JiU9zErMDqYNl4LlyVKrTE2XpjW4MXzEFNrh8C5ElYgakCBWj6EtAhqEC/MKLtXcrQIRNObe5B5qM+NWFFPgv5ku2imTcPRi4QnOVj0LVh9f8Jsza/Wdmbk2xX/yCr+54Iiu5uXKml2gyGD2p2A5YFHZAq/BXobewi+irYme1ufICJ8U1b2DRAwF+yeVezHs5WkQV5p8h4raMjdApE3EhvElxL6PARfuY0iB1JYA+BeN5dyjO8om/gC3WvMAbbmErZnepy4CGqFvmghMzI4MQfWlgkLLVQf7EOJhLjdqvntXYHK4OZvgNpKHQM+aD1Yum5XXu24ICFYd6NGX6TForhKOXLhKze8pLhC6rLqnGHhbPmom5li6vitD291m/qCn0EkrE7Co9Mh7MvskpgOe9a3Z8rFaIpEyMC5dTvS+3wfd4uZzTMC9dLv5ITBdlfKbysHd/kkzBYRSgHnBb63KV+eDPxHgwmHxKhDQhCHfo/8AdyX+oMZtfrOzBlDiAMZR84nOd8E34uYvgTxFfRVlBj5BU+Yea1N2YvxZC7ousXw17BLcw7osF3DJfOnc4m9WkZBMj5Gx8kf+TXoPKrw4ckG8/N+Z9WnxqvxeEz/Awgu0XzcHHr7Zdz6jOszjDTuiMq19FcEfYCprjLVnpy8om3Lbbym2IhHpcaruuoI7YSqbeMQ6wOESVrjC3jM/NAPaPDaALOZ8C19IKsJSKuSBarL7SmpxfYYMhRKHktlAsUq9suzqawG1FmSy9y8JK0KTOQwvo88lPM3Bq5IU6BRHbIcxgw9w1azaW6eWGUwc2sO0VsE3buLlI2q2sZpFrCux4grEv3fpOynLkc5Mmkh2LBL9oD7Q3hCEIGgoTZPiOtVG+4ycYMP1uIcpghiOQx2sd272qb8puW1NiFVGTpy68areAm2xh9rfqgaWxt018zHvCKvzcscnxq/xeE/IdITGcPRYjr1U8teUGuIZE2SEmAkcIr7wWKfLHH7BLpnRYlv1oHumLwDjhcy4RAPTiN56j8pKjWgWVLPYRSUSnQXlLzRYAKd4b5id/wD8nQhAhCG9QUSK34jsPh9qSeLD+uOWiE0K0hyNfqIFvCuWjNzEoNbW15KXcape4ieWr9iUF0a+nEzmfjfOlfGv5PpPwnSEcYWnxPr03Gblw0zZiaQayXoV/dihjsX8/E5uBCNtjzY/0EzB5IWFGHQFHqWNIp/891MwgQhoLBpqXmEWI1j6v6qVGGv1xylsg+DUGEdyIaDqbKn9IAnYDN6DTbuM/uKa8iTtqpBtryl9kqaxS+VI+qTlj/F70r41X5fCflumn1qCx6cT69N6sm8ce2/zzPyLpDKnFiUhQTQlBXcOgz6XCxOfyCvyIY1JPVL/AHqrmhDQ/wDLdaEJehLG9aE9Am9IH9wpgwBgDaUiGv1wtSzSy+oaGPmKveIENN6CxjcjKFUo5kok7QIEw+GfJxPmsCcViHJkfkEOYMoC07QPZGV7u59W+v8AbpWi/D4T8N00yOUSl8P+UywOInZCYeo+D8kcOeP45m/oveEU+5SQJsU7BH7w7i+wx0HhKTwwhtHYFxN0aPVVIIw2xsDZ4LHqIRaApSBMJdv42zoQhA0qt3BL9BeL2PmUPtMMViCv1xtS2HUlINowyjdvAqAew9V4m7LhKisSi7305HQQqxkR8JCRZxff0Gw9T/FVG/IOfpBPfUaWygXnhjy7ROcnaAgZDrxgXI4TL7GauESo2pDyy7N4d2+90N7xXSO4jkY8AFpbwOPcs9Iaamk1HnBfpMbaIpHnn30dkIzAUAUBMvwsITMU0WWd6sD/AIgUzRLGWJ1ZT4YRTOEod3evept1F8xNa8kUmzH45lIriFImyPcIQSrSOPW6d52ZTqtTRuq9kduHW1bqNQjebHHvA8qogXkCqxZZxezNjj4hYC8q+6sLnl5mzdylt2vBx8Ci1IaT/junQlkGXLgQUVFtXBccAWgTNC6eFEUEUibP1xalqmCKlRWTQZG/QS/rHB7gIs35VrOb0dCTaWUUiZCV/PEQG1DL7ItXNxfMK/SLTpzvkpwVPTwl5XlvxWo1iLEaR7gjCUBGKauzsvzFB5Sh81n2l4MeEz6C+8L6Ts/61D5Eipg02rmXzCr/APKaDWEhSjZHhhjwEYZ4E9SD5YvDQwp86jCAV7oAq3/qG96e7bEp7vGozCqE28wrVsupb+Y/kK7o760tL6O/sTIwKOAfMGH5BHLwQXfqn7QbozGg8tl+l+8WvtP7Qc+W3zp5w7hAe1cGy6uo5gqXk3BR7PEKgwA2/YrzVZbcSvVYXwvQfBalxDGN8lAS8jCfyG6yoYlA/Y2qW4JTghLprbYaj2A9KjHDVfrNzEF+yuoRlIXSVcS5fx+kFFatBBCUNOqD+pciYXhoL6r4yVKhCBjQly4MuFw0IQh6Q0IaHUwsMRJWCOw7PnR6XOpKzKP2K5SzFOlFIrRDLQfIi9LglTmu8S9ZQNjHFhpxKuImtahKhACrsBKjBkiXanIINp4YbhyqUgVGn1q/QWXIFPaVfr8R8BLhoStA0IEIECGhCENMrwQQ+gMRCwBuZP7jb5KnQlIxBX7EbJap1oalIsIIj7QZiCG/n3ke8LQIjLDFw5MX5RCzzlA7JWjhhfxk4i5RpBsBGCv2jNlU9bmLy4IPkX1fEoJSj2q3jntufG36NQ0NSEDQIQhDUgQhoF4Jh+YYsCJAcOfYBhNgQ2AUEqGJSIbfsrVNgShwjO3at1uH3Pkuoq84u5DwYmbjm0ayvO340rBR3KZUr4a0QoK3SK01e68zrOlOeguPaW2/QCBCBqSpWoQIaEIQIEIa3NtuIWAq4J2ho4Ll9x9Hc6krMSr9muJYYnSiVVlWIUj7QIIFbuLT6lI+RhfAneUyhsm/HxnEcNMuXL+CtalQlSpXwVA0CBCGhCGhCEIEIQ1WogUHEMqZX6y3evB5SEZBXYCglQNSkYgo/ZpiXKbAlThMIKaNz/YGPIeY96HqzZ6gIojB5BzaMGLl1uaVrX6ASpUqVoErSoaVA0IQ0IQhCENAtqZ53YJiMsAQXXzEz/U235XqbWJUYlZ+1sIaYnWi4EDotRynfx9y+yCopAXLBiziDfgbDcibE0j8FaVKnGhK+CoQNDUJUISoQNCECENCEJyD0gij7BAj9rME7+T7vRiKNSoGtMNH7VlhibInQjhX7Uj9nzxB/il7ufDZP6SCPALL2YEYKG43YsUMKbSvjrWpWoSvgqErUhCEIQhCBrYsY1AKVAm1/wB3YP8AGBHFxR/vmdSAGJSftzZDTEuEEoVUGLZEvt+ThOflL5ho48DsTIwtpREZaMWmopoKxbkrWoED4qlQ0qBDU0JWhCVoSoaEIjtMSoogxER1wNg5XoN1gUlBJnv9Dg/7NnEqMQYBR+4vGCmJbBlhE9yMe/8Ac+jnsTBHID/yYLrkd4NAGwI+Gsb0CVKlT2hKla18RqHwBK0IQIau72SoohhfsF2qzE1zBj+k+vyC1FJUGoYMSo/cpiVHEFMaIiwjo+iAT8h4jwytG5/5Bt1wjcFAZEDeLUVSOgStQlYlaBpUqVrUrWoQNAlaGoXLo4KIJUegNqwyfaML+C8xEKSgIMMSs/diyAGHgaQycS2+yPf7/wBRuci/ReGdHCPJ5gexjDcxUDKHMTAikda0rSoGlSoaVpWmISoQhAhAgQjtBAzydIR1FVQwO14PMwafIf8ACfV+QIiKwgQxKiGP3gJDDiGmNEVMPMtpc/js7OfrBAU4TT/Xg/UzLpoZXJANWZQN42F1I/CE20r4KgQ+CtKlaEIE8TbVEFwaDQVQCWLKoOP+3wfTeEcLoc3no6IqIoqABiENoFH76whhxBLjQFTANZotj+dw+UchQ8f+3rlg7iLwWE2KWckTkhw1hhAlfFUIEDWoQ0IEqBCbcUdzO7ugMQunK2G8txO9g/PT6+m8JbtHoPzuOpcVhBAxDDaBR/AWEMOIAcS6DpqHTiLg7uwd+K/XD5iIK/RxwcbNMXW02dxl8IYQ2ikiI+dTSpUJU41qvgIb6Argm+lE38tlJRCEoAeZehVq97nvwWxcgc75+l67x1G1cCVcEDEMbQKP4JCQA4ghxAbSN+FtBUxowHkZYTF2n0Hfl37QewZBfoDDHN5Lzj+o81hmxFxLcda+CpxCGhBuws6R6w+6bHBBCvMCb8LVFeosErJORUPq7/R7w/t0cDoCKiNmABBDaEECv4RLgowg4hBjehy6hEwbhaBT1GW0Pe+OfV7GjqNSC1X/AMHylmPlw1G0x9xe8K2UjxR5hnh0hAdMOWpyY5iziEFsHyhBBTeP1kdgzGBR+B6hu9iBVGblfsy+7XiBfOhAPARobUU1AggBtDP4gUg2xCDAt1G/DF1DlwpeJcvRJ9gfrCiMrB0erKQ+ctwGWlfsK+gy6LbFz8ybA3vDCejSaBoEVW6E/sREnRK/ZEBqlhh+S0fUiLe5yLq21PYlShSt492YjxHahcRsxSQA2hBtAP4pBhIwW8S8gW43IbMEuFLhTiE6IpBYw1y3L9QUZ9e4b+uWbF6+2VPqnZBloOKP9OhpaVHNn+p9e7YuWR199uLX68H9ICZZ2HzswiRFAUEd4iMIjYjbiggxtAG0Mh/GoMN4ht4hNxeQbcb87sKXBrg0LCot1LdQUJDaERDOrADRgziFwgECv5GiAw3iC3iE3DLh1wWYH/xC0F+ADRkoEgECgTiE4hHECfy9ESwHiC8QeoHUR1E9NYDqQekDqF1COIRxBIAgfztSiU61jwaQZTqUdf8A0z//2Q==;" vertex="1" parent="1">
          <mxGeometry x="1140" y="1490" width="270" height="270" as="geometry" />
        </mxCell>
        <mxCell id="07vgb-UoSSxsXepg9ZPe-13" value="" style="endArrow=classic;html=1;rounded=0;exitX=1;exitY=0.5;exitDx=0;exitDy=0;entryX=0;entryY=0.5;entryDx=0;entryDy=0;strokeWidth=4;" edge="1" parent="1" source="07vgb-UoSSxsXepg9ZPe-3" target="07vgb-UoSSxsXepg9ZPe-12">
          <mxGeometry width="50" height="50" relative="1" as="geometry">
            <mxPoint x="840" y="1640" as="sourcePoint" />
            <mxPoint x="890" y="1590" as="targetPoint" />
          </mxGeometry>
        </mxCell>
        <mxCell id="07vgb-UoSSxsXepg9ZPe-18" value="" style="shape=image;verticalLabelPosition=bottom;labelBackgroundColor=default;verticalAlign=top;aspect=fixed;imageAspect=0;image=data:image/png,iVBORw0KGgoAAAANSUhEUgAAAfgAAAFoCAYAAAC7Tuk8AAAltElEQVR42uzczWpdVRjH4d6IIKgTB6LQkThqqNCmovlA600oRUSEEk2k4KAgpiRqA5KkxSZNzky0dKBpa9L6Uau2iko0KTrTgeAFvCYnhhyJgxIC2eefZ/Cwp2u/bPix14J14NOVvwsAyHKgKQsBAAQeABB4ANhfBB4AAgk8AAQSeAAIJPAAEEjgASCQwANAIIEHgEACDwCBBB4AAgk8AAQSeAAIJPAAEEjgASCQwANAIIEHgEACDwCBBB4AAgk8AAQSeAAIJPAAEEjgASCQwANAIIEHgEACDwCBBB4AAgk8AAQSeAAIJPAAEEjgASCQwANAIIEHgEACDwCBBB4AAgk8AAQSeAAIJPAAEEjgASCQwANAIIEHgEACDwCBBB4AAgk8AAQSeAAIJPAAEEjgASCQwANAIIEHgEACDwCBBB4AAgk8AAQSeAAIJPAAEEjgIV/NTEzX5LNP1/dDJ2vpyq1GrAkQeGCH5qdma2zgWJ165P4aO/hQrfYfqt8HD9ftkZFavPJNI9YICDxwj1rTF9thP/3YA+vagT/75BP1y/Fj7cCvDvSsxb5nLfTDtbjgjx4SCTwEaZ1bD3vvZtj/G/jDj68Fvncj8P09bXcHDtVqX0/dGX6tlq7ebMQ7AAIP/Kt1fq7GBrf+2O818G0DPe3IrzyzFvqRIaGHEAIPXax1fr7GB5/aDPmOAt+pHfo+oYcEAg9dqHVurjPsOw280EMwgYcusi3sux74TrbuoZsJPHSB1vTFzrDvVuCFHoIJPDTYtrDvTeC3b90PnxR6aDiBhwZqTc12hr05gd92Ri/00FQCDw3SmpzpDHtzA/+/of+qETMEBB4aox32rZvnuifwm/o23HnDGT00hcDDHvrw8o0a37p5rnsDv6lv43n7zVO18NMfjZgx7FcCD3vowltv1+lHH8wJfEfoP/vy50bMGPYrgYc9NPvO2cjArxw/WtduLjdixrBfCTzsodl3J0ID3yvwIPCwfwk8IPAQSOABgYdAAg8IPAQSeEDgIZDAAwIPgQQeEHgIJPCAwEMggQcEHgIJPCDwEEjgAYGHQAIPCDwEEnhA4CGQwAMCD4EEHhB42AUzkxdq4ZWXa3n0TF2/vFRXv/1N4EMDf+n6DzX3/gc1ceJELY68Xp8vfNGIbxAEHnbR/ORMjff31tDD99XHhw7Wn88fqbvrIXruaP346kv13eho3fhooa59/avAd2HgP1n+qy4t3qrWe1M1/8KLdabvSP3Dnr3/VF3HcRz/G7ppGqiccyAzQjjcZKyNy+EmicDhJkgxLHI1xFZbIYbcdCU7YBlgIZBMUJBCmCVBKCqQwUELIYSDMGuENK3lD/njq8+Xb4czZdBxMjmX1w/P8f0ydvh8zvnsPPY+R9r3x+4KkRP0Ef6YiQ/DUMFe9F4csIgzyRiBZ+yRYK9HmTZyDrq8jUq0b9Xgz6RwGSOtKEaAJJqFSSBw/b1dGNSV4MeWDlzSGwi8BQLfOXob33Tq0Vh2FNWZmfjsFY14HgXoahUKvV2gE9dG4Iv9XkJfcjT+SAiTXuvZhgpz0XvpikWcUcYIPGMPUVONgD128zzo8tUuaI8KNgL//8VpMJa1E8P5+dCfbkNv/xiBXwbgvx+expm2Hpw8VIaqt97E4YgAsS+FvD+1cZ/znkcT8NuiZODl9ZmgL8oT0F+1iDPLGIFnbJGaqutRHmua2B8ZeNGkVoMJ6e9jgjAREwjDrgyMFBWiv6EFPd2DOD9xl8AvMfDf/XwTrWe6UH+wBJUZO/BJiL85+zQXeELP7CICz6w+6ePapqo6lJsm9iUEfn6Togmt8T4IhrfTMVyQC/3xRvR2DaDLcMfstTcSeBl0/Q2cbj2HhsIDqEtNhi7Id94elh74+dBfKypCz8WfLOJcM0bgmd1X+2Gu8Q39MQC/MBDG7/QNGan4JTcHA7X1+OFcHy6MzCy49hMVX0Dn7mxzwE+I/9Nz5cbCoF++jpZTZ1GbX4AjaUko9XdHicD4I08V9ns5i2vl4wTelFb+ebmt2yLONmMEntl14iPcZQDe/MbTkzD67m5crapBnwT+0JRpgj9+Cgc3Km0K+EnRdGo0zo//NbfPs92D+PpEM47l5KAiKRYlfq5z36HrFsB8OYA3pj/ZbBFnmzECz+y66qxMiwZeaiIxTMYvOgDjaVqMZL+Da3UNaM3fhwLXtTYF/K9aDaYE8M3llfg8ew+OxG2Bznv9IuuzPOD7v/rWIs42YwSe2XXWAPyD3YzR4E5iOC6EbEKejQH/u3h8Q3QgyryfxwG3dcY1EHjGCDxjtg+81G0BfKfGx+aAnxKPPx4ThAqf9dhP4Bkj8IwReAJP4Bkj8IwR+IcEvlLjh8lEAk/gmb1E4JnVR+AXr1StQrGHE45tCcLfaVrc2x6J6fgQ/KbVEHgCz2w4As+sPgJvSicqUStxyFOFMm9nHPZyRrHvBuT6umGPnwdqQl5GR3QoDLHBArxQ/JOyGXe3ReBWfKiY7DUEnsAzG4rAM6vPnoG/H3QXfOrpDJ1aJWBVIHvDWux2WYN0lSNSndch/rlnELbyScQr1mCn0hH7XJX40s8NHWINY1sDMSOBnyyDPyODT+AZs+IIPLP67Al4najUNKHLoHtIoCuR/YIEuiPSnVYjde2zAvQVSHRYgZQ1K/GquJd6TSTdxwnso1Y9hfAVTyB29dN4Q7Eaua4K1AgM24N9MCqBb5rwpWsJfALPmBVF4JnVZ+vAz4HuNQu6+J08oX+w4T/Q162SQXeQQU92XIntMupmJIMf/wD4rzvJ4FdtMoIfgFsC+XspkRL4AstQCXICz5gFR+CZ1WdrwJeqVfeBXixAL3JT4n0xoWeZJnQkOBgndHNBNx/8BAcZ/DAZfOxwWoW9Lypw9F/27vanyjIO4Pi/UM2pgYD4gDyjyAEUFHlSIFQQHaK5rK2tLd+4WdbmfMIHsrRwOTfdcm21slqtfMgUszZXWauVmpYZjmnqhlhm6+2v3++68WDIkJWtc677++I7ODcM7+Obz/W7zn3OreB/pOCfNfAXVPcHH+CJYiiAp7gvnoE/UhlxwLcHoAcXxel5btAJfWW6gj4+SR61CT3Zga4NGfR7DP7wXvDvM/DdrsGqzDGyuyhLDlVE5MycMrsy37b0NfdWPAf8BoAnAniisAHfo+fQURWR5WkJutU+Sl8Hf1Ae00l5YdJwaUkaMRDoMZGdT/Nt4M/Vr7aj8HT6aF2gZMr+8oicrC+TXUXpfFQtEcAThQ94u2jtXMMMt+W9pzhPWnPHy7JgYncXwdWNuF/qRz4gDQpoU+IwB/+S/xH2JQHu7jX+liRDfoSe0wg9ZtkxXYxoy8YlSFveGGnPd/e5B3gigCcKF/CdjRVyqalKbrTUyu/ateZZ7vXr07PL5Fh1sbwzPV92RDJldfZYeXLcKAPWpmZD303NjQnD7LVyw/WeY/5w8khZ5NAOEG/W7PFSXXzYFffL9HxWpCfJqqwUXZikypaJwbUD7ZNd+niMBfBEAE8UPuBvryu4zapN9e496L+11Mgfi+rsPN3jn3UxcKK2VA6UR+y96wpXmqyYkCKPpybYFfCGvsN/bjDt2zT9j6byhUF23L1c8MTYBFmeNsq9p35N9mjZrJP51t6r+rdrds2Agb5Ncbe38FkvxFAAT2EO4Cnu8wH4gQvQv6jZLVh7dMK/qZP+Da1bsbLp/2R9MO2/Pa132s8aa9v8NoE77Of01pDgtvjd8ZYo5v2m8vGJ0al8fU6q4hidyg1yB/pL+YZ57EEO8EQATx7mM/CDTvuafgBNdIv/erOb9t292L+oKZGDvdN+WzDt60SeqJiP1Kk80V3U90xGiqzVqXxTnm2l21Qexdy+Gu5xAznAEwE8eVjYgB8cfjftK/azHPq/6vO01/avKvzHm2qlrTBDnlf02oMt9ricygGeCOApJAH84Ohb3Trdn186X7aX5MlzeakxgS/AEwE8EcD/y67oBH9qcYNsU+zaAB7gKRQBPMV9AA/wAE8E8ORhAA/wAE8E8ORhAA/wAE8E8ORhAA/wAE8E8ORhAA/wAE8E8ORhAD804E8r8FsBHuApNAE8xX0Af+cn3NlNa64q6oZaT3ON/Lm4Xn58pElaCzPk2YxEdw/61pzRsjHXPl8+1UG4xTCMEZgBngjgiUIDfBTw+QHgV/oAd8+nW7+/rMftd843lsup2WVyonaqfDKzSA6U58u+WSXSUTNF9s2YJHtLc2XPlEzZUTBBtk4a5yDcoNivyU6W1VlJsq53AbDp1gIgRu4OB/BEAE8hyhfg+wCv/hvg1xzgtX2A6+/Z3eVOK+BfGuDVRfJhxWR5d/pEeW1qtuwqSrePorXn63Bel5MiKyYkSHtBuv6dOrm5qM4+w97dxKazsVJ+mDtDvnmoVI7PKpYjlRH5QBcAb+oC4JXiTHk5kmYfYdtvAZDs/marPt4Y4wsAgKcwB/AU98Ur8BcUacU8OoHb1ytuAg8A/35OmXxVVyKf6gR+qLLAAf56SbbsLspQwMdHAV+v2Bq6hq99bxBv0uNtmgNOf8+O7VbouubPtB2A6F3qgoVEtd2kxhYQ0fOw7X37+YV5/RYAVRF5XxcAb5TmBAuAgjTZFkDqwF+t52DZedi/uxXgiQCeKGzAG7RnFfFj1YVyqKJA3jPApwaAb78N8NYcgzMAfN1AgN99cu4P/FBvUxvdSbCJP1gA1AYLkb4FgHsOX9cFC4DDtgNQNkkXIjl2j3ib6gGeCOCJwgW8QWlb4iszRgVb3wMDPhQk7zHwg9c18AIgeCmh2e5XX+d+vrMw3bbwAZ4I4InCBbyB2FFVaNvrdzvvmAL+btl1Ap3zKgGeCOCJwgv8UQVe37LmFfA21Z9vrAB4IoAnAniAB3gigCcCeIAHeCKAJ/8DeIAHeCKAJw8DeIAHeCKAJw8DeIAHeCKAJw8DeIAHeCKAJw8DeIAHeCKAJw8DeIAHeCKAJw8DeIAHeCKAJw8DeIAHeCKAJw8DeIAHeCKAJw8DeIAHeCKAJw8DeIAHeCKAJw8DeIAHeCKAJw8DeIAHeCKAJw8DeIAHeCKAJw8DeIAHeCKAJw8DeIAHeCKAJw8DeIAHeCKAJw8DeIAHeCKAJw8DeIAHeCKAJw8DeIAHeCKAJw8DeIAHeCKAJw8DeIAHeCKAJw8DeIAHeCKAJw8DeIAHeCKAJw8DeIAHeCKAJw8DeIAHeCKAJw8DeIAHeCKAJw8DeIAHeCKAJw8DeIAHeCKAJw8DeIAHeCKAJw8DeIAHeCKAJw+LZ+A7FPjVWcleAX9Zge+cVwnwRABPFE7gexT4w5UReSo90SG/JjtZ1uekOBQ356VKm+K0xYCKQeC7mqrkonZJMTfQry6YKd0K6HV9Tjdb6uy4A34DwBMBPFHYgDcEz8wpkyNVEdlfPlnempYnr07Jkp2RCfJi/jjD3WG/VuG3BYBt5bfeuQD4T4Dv0m4B/ksAuAFpixL7v7Pv7bj7vZ8ayuW7+mnyee1U+bi6UA7qc9lbmivbgucA8EQATxQu4DsbKwxQO5comvbYfnZubrl8q2h+VjNFjlZFZN+MfNk7LVf2FP/F3r3/VF3HcRz/D1r3WVqZgMARC+UAJw6BcucQChbIukBuzRaj+sGVcybG/XJAQ7oo6rwlcb/K5QB5o19azrVpt7VzToAiJJpwIG2lrz7n3dkZtcK22uSc8/rhOeB82eC3x/f1+e7saPBBsK8dT8FLwS3LP1eVp/AvUD8XK/xLVOq6APs3wAvMwwJ4jEB9yQH4hAPwifQEjP4BuDxPP5ccgc8V4CdiQ9EdFYSmiCdxOCwAu0N88d5KHxgDvex/V25Gti2T/0VOHipXeBF4xgg8Y54F/Byr+a/H3tJ4usJZXbeq3/t27SqcTQrHZ/E69Mdo0R65AnVqNe/XaVCtXWqHVRa+WvyC/1t+D6M62E8Bngjb8wZZ4gp1OWo3K8C/WhOJLxL1OKUA71ELvCUiEB8rwGtC/FAV5CNYq5sGgXv244RCxw1Fqcr5OGEeReCZJ0fgmcvnLsDfrmF57i2LG6NpsQK+3ABkJMABtly3pEbL0f8ZQzgG43UwRWtlcbfE6DCYGI6+GC1aIwNRq1+OfaH+2KX1QYUD8IJ/BHwJyuYh4ASeMQLP3DhPAX6uhv58AyDYjzuP3O2rPQnfZK5DSYgGWzWLHEf6swF3HunPC5gJPGMEnjEC/y8aU7idfykVFboA+1KfF/gSeMYIPGME/r8li/7cCynYobArJfAEnnlEBJ65fASewBN4xgg8c8MIPIEn8IwReOaGEXgCT+AZI/DMDSPwBJ7AM0bgmRtG4Ak8gWeMwDM3jMDPUWqUdGldFL58LgGlgd4oCngURgVfhZu9553AM0bgmZtF4GdhnrIa1uSnYYkPhTk2WH3VwWIIw2haPL57LQt74vQo0ixCvs+D2P74vchdfI98X2pHXy17o5uhT+CZJ0fgmcvnccA7Vrl17SpYk/SwKMilxKcE96GMRIxszMDoplcxXrAFV9434tqRvbC11WOi4TAsu3firHp9IGcDGtYnYV+cDpVB3ij0XYA8r/ux7bG78e6S+1DsvxDlTyyG0YWP9Ak88+QIPHP53Bp45yqPgCVBB3OMFpa4EFgMenl9ODMFF3OyMLb1TVw25uHq3l2Y/OQgbJ3NmB7oxnR/l2QzdcB2rBk3etpx83gvbp0wASf78NunPZhsrcOFAx/h68pCDL6dg46X03BkzWpUhy1HyTJZ+8hV6NsrXLpA1n65i6x9As88OQLPXD73AF4gd6zycJgV4uboIEHd+oxa5QqnkVfWq1W+EeP5mzFRXY6fDu3BZNNR2Ho7MK2gFsz7jsGmELd1NmGqrf622dobcL27Fb8OdDnRx6l+ee3H2gMwf7gDZ/I2oy87C/XpBtREBQvsau3LEf87j9wlq79Yswhl83DtE3jmyRF45vK5KvBWx8fDjhj0ssqthjD8oIAffjEZF7MzMbbldVwu246rNVWYrDuIqY5GWeVOzE2dsHW1Yqq9UbD+P5tRa/8XU6da+z24ddIEDA6otd+Na821svbPl+fj9KZstGU9i0NJkagK9VfIL0S+9wNyxJ/n+xAqVnrz8+AZI/CMeR7w9sX+fWoULryxAdd3FuFm7X7caKnFjIJ8RuE6c7xXgd4DWeW97XLELgDfoWwdjXLE71z7pwekn7vbcKX5KIZ+Z8/OYqK6AjCOP/eh1pemPigutcbdilWs1SigICgqiwWtaNRWW2vqFhpXUNGWRSwoLoBGQKuDQJmKAqLgIFvZqtCUIssAAnYRRRS1SZt8PXOHzRGxRCJ37v0e/rkPk5k55+ZkfnPOjY5AfqAvkr9ajWiH6Tgwfohht0/gGSPwjKkL+LuL7XDFdjKC7T5E6oZP8bOfD34/fQJPkrVGPLOv4Z+0ZAFogoRrH8FueqQvHf+3iDE+TU/BIwG9dJogxtcceRzNwfvRvHMTbnsuxNFJ72H/+CEEnjECz5i6gL/n4YBUAfzXw97GDou3sMuiHw6Ms8AJ60lIWuGKAgFlQ/ghPNaeB3Sp7eA/TdK+NvAfiUxBf5CUgEZNFO4cDkC99xZUrVkK/WJ7lNtbQW9riQbHadAvmInjVqMIPGMEnjH1Ad/oPhdXZ0/B7rGDpWfVgaJvxgzC3hHvGMEf1A+BYwX4s4zg5+8Q4IeFoEUb8yz4yb0LfktivAD9Rwn0llbQ78UI0A+1gb5EgG6H8rkCdBtL1IhrzfzpqF1kLc2rwW0OKp1tcGzKSALPGIFnTN3Am44zyHK49Pz62zbwBfbeAn0D+BEC/EvLDeBvlMB/pNW8CvgdoIv3SqBfEqBLO3R/1O/a3AG6/VRUGUC3N4A+ow30zhF4xmQUgWdmnxKB7yoJ/LGD4DtiALa3gh9gAN96Ei4ud0H+9o2oN4CfEANkdID/d7JWenb+MEFjRF3gbwD9iQR6KpqSEnBfEyl26P5oMIC+VoDuZoeKuS8FncAzJuMIPDP71AJ81+BbdAK/vwB/kLTDv+hpBL8uLBgPLsTh32wdkJWOx7pUNF9Nxv3z0Z1AX/o86E5dgk7gGTOjCDwz+9QKfFfg+7WBP/BN+AzuD/8xAxHhOBMX1q1CgZ8P/gzyRf22Daj2cHwO9JrnQSfwjJlxBJ6ZfQS+G/DHDcY+Af6WAW8gZLolKpxm4bYAvbpr0Ak8gWcKisAzs4/AvzQJ2jAbK1S5O6JeANw6BgJP4JmCI/DM7CPw/w/48DnTUOUxj8ATeKaSCDwz+8wZ+DSFAl8hgD9K4Bkj8IypBnhXW+g/toNeXJs8nZDhNAs+CgS+0s0OoVPHYN/4wQSeMQLPmPKBr1ztgTKvTSiJiETe5RzEB4di/4QhigK+VnRnhQtSkzMRH5uE07u8cczdGd9NG98+nsCJwwg8YwSese4LW+kpL+CdO64VazxR6r0NRVFnkXv1J2SU3X1m7GfCo3HQ8l1FAW+obsl8Mde/nplrSl4ZtLGJOLNnH8KWeSB4piWCJg2XH/Cutig894Ms1jZjBJ6pupgj4ThoNfr1A+86G9WLrKFfOBO1LrMl0MvXr8Kvvj4oOBeHbF0BdJVN3Y79XGgEghQIvN7dEdlFVd3O/bJ4XRubjLN+BxC+chlCbKf2PfCuNij/zBM5ukJZrG3GCDxTfSm5pYjasUuC/nUAL+Euqtj0BX7z90derBZZWTdxTf+wZ39OFAp8tfiezKLKHt2LK8V1SLyogyYoBCfWrsIh+xkIbJ/DsN4H3hT2NctQGKWB7lajLNY0YwSeMRPoo3cK6KeM7m3gBeh2KNuyHiUHAlAQexE514tfebwaAv/Crpb+gcTLOYg5fBwnv1yHUEeb9vkEvT9UugZavgLwrm2wexphL78nizXMGIFn7GXQ79iJoCmjeg68qwDKReTugDKvjSg5eBB5iWnIKig3/R4C36vAd1+6APhSWiHOh53Cyc2bELrQHgGWw3sOvKstagXsFQbYo2ME7PdlsWYZI/CM9fTofvt2BE0eKf3ge4+xMAK/xAE1ArrqRbMMz9ClI3f90vko3eqFm8GHkZeSgcwbetPPI/B9A3zX6R8iXXcD8SfP4JSXF464OXUJfIDVaCPw7vadYD8PXQVhZ8qOwDNVlJJTisitW7F74gik2nwg7eArP1mAW3u8URxxEnmpucgsvm36PgIvZ+Bf8Icu/kwcorZuw/ElLvATc/ebMBQFDh+h7vNW2CubZLEmGSPwjPVilzJLkBZxCkUpWbheUm/6OoE3c+BNS8m/hdhIDTJPc8fO1BeBZ4zAKxZ4xtQcgWeMwBN4xhQYgWeMwBN4xhQYgWeMwBN4xhQYgWeMwBN4xhQYgWeMwBN4xhQYgWeMwBN4xhQYgWeMwBN4xhQYgWeMwBN4xhQYgWeMwBN4xhQYgWeMwBN4xhQYgWeMwBN4xhQYgWeMwBN4xhQYgWeMwBN4xhQYgWeMwBN4xhQYgWesD9McVirwjsgsJPCMEXjGVNr3gSGKBL7WxQZZBeWyuMeMqTUCz1gflpiSi6Nu8xQDvAH2WmcblPj7Q1feKIt7zJhaI/CMyaC4SA2OuDmZLfAG2GucrfGL715kZRbL4p4ypvYIPGMyKi4qxgC9mQA/27hjl2Dfg+zrN2VxD/9j79553CrCMI7v56CiQLQ0FBQIUYRUIdyERAEtoqBDokAQSIAALYpSpQi5SCjsQgcFFSKIAgESCy0CJAo+hXkyihzrkfccv57dyczrf/GTdn05Hs+xzzOXM8cACHigW/uf3dLQ/dPdBvw/z54qQ/GHF94j2IFOEfBAxw6uf7G4/OLZbgJewV4cvv/O4vbtn7uoIwAEPDAsC/q2Ae/B/v0vXdQJAAIeSOPg+n4J+jYB7z12gh0YCQEPDOjgxoEFfW3Ae7A/JQr2D84p2H/t4j0DIOCBnWFBXxHwFuwfvkuPHRgcAQ8kYEE/F/AEO7ADCHggEc3R2/K6yYAvwf43wQ6kRMADCems+2XQLwP+9OMK+DMl4Jc99ovnmWMHkiLggcQOrt26c2W8EvCXH3148dczpxb/Pn968dtH5+mxA8kR8MAO+PzKjcXVl55b/H7h7cUPBDuwEwh4AAASIuABAEiIgAcAICECHgCAhAh4AAASIuABAEiIgAcAICECHgCAhAh4AAASIuABAEiIgAcAICECHgCAhAh4AAASIuABAEiIgAcAICECHgCAhAh4AAASIuABAEiIgAcAICECHgCAhAh4AAASIuABAEiIgAcAICECHgCAhAh4AAASIuABAEiIgAcAICECHs3d/O5wsbe3t/TaWxe7KBd2y7lL14ryOTQvv/5mue+bP/7bevuf7n971PbL7bq/i3pAXgQ8mnvj40v3DnbywIMP3TmQdlE25Gehu5Y3QPX5DDVgnzzzwibbLo/T47uoF+RDwKM5Bbof6OjN4KSVkD77yqsbB7s3Qq98/eMmvfattq9td1FHyIWARyt+APQh0S7Kh7zW9ao1mrQMV+/lP/LYE/74yd627lv3uS7b9++AGhqMYoGARy464K0NeOEAh2bD8gpUC+u1yvD86vMU+kc+Vvf5PHto22psdFFXyIOARzMKcO/d+AGxi3IiHwX6tkPiG31OfWRKz9no+7BaLv3dRV0hDwIe960X5Scj6e8uyolcbOjcPmcVz/cTR+MNCH8eJ9yBgMeYNO9oQ50l9DnA4UR9cvWrimWZNvxu00n22bb7441elbWLOkMOBDya+PKnP32+ceL2+DZ96FRDpsvekQ2drh5Efch0eXKVz9fqdmt8NF8Pbc+N0/sKjbaoro5aH34c+6jUp/734fMSlrq9q4BXmbyH7vW1KlI2Ah4EPMY21VPXkOdqmFaFh27bZClUeU0FupdvQrwBohAIrYdW2RsEfChwnIfR1gGvkI3USURkfjwSxKsBvkm56MGDgMduULhY0PhBztfExwNeoWG9wdkAsbCZ4iFVH5ROZbfgqA547xkHVzjMU92FA17liDRKbLi7+uTOQuXq4nuhOmeKCgQ8xqWerB/kPQTCPSx/noeCv4YOnMsg99BbDXwFs5fdAskCYqLHaEHoB2+bDrAQruFlmA+PZd3YaMXq+yx/67Z1j4vsI68TnyIJNKhMcLmbytbVtJX2fRffV+RBwCOg9uDqQeNznH7Rj3jAazuhIdF473Y+dDy0vdHgvUt/vBoV1cGhOvTyTjUGImvES/l8+9pGKOC1jbny+EjLsdeJ/rd90zbc9b7ovYOAx7h8ra8OarVzkR4e4YaBHhd+ni+VUuDXPM6H871HXDvsGynDVg0MD2FtY2ofRfeth5/tnwDbN6v73k+i1Gs0Cfa7n3WuAQECHmOz8LIDmc2Teo86PgcfCMBQoHrDwAPNzwxfKmEZvwDQcV6xLTCdYHUYP7O8Zhg6vq48bvYkTDUsjjXstU3H7zCAgEcOgZOI/MBrwVQZ8PUn9XlP1+6v4iG4bQ81EB6+f+Jho8d6Q6ndPoqbvR680/21r0u4g4BHTuoFee8odFDX/00CXr3DFAGv+vXAjb6n+v07v4+6Wj52d8RlbrXFtkHMT8aCgEdO0cD2wFD4pAh4vZ5f0MVVB7zCfHp5WTygw3Wi9zdcwIuHve3nQIMp8HnwxpjqjpAHAY9xTJwlHJnXHTbg7XVMdcD7MkSv6xbLtHx/DR3ws8sjvfz1Qe+Nsi6+t8iDgEdXP/Cx5rKiQwa8hUNtwAeW2dlISeOAV3lSBLydZ3BiZVF9dPE+kRMBj6j4kHGcL2EbKuAD13CvmYP31/KGFD34iPiSwIDQ8ssuvr/IgYBHg9/frqMD7DABr20F5lbrAl6hF1oSJy79HLwvW9RnqcV0U3Qf8JPJIOAxBuvxVFOvZpiALyMX8WDa5hoA81eTiwd0urPoA+v8Q0Pp2q5fYncpWFbm4UHAYxwKZA/Q4/j97SECfmZOuj7gvUfp771+X3W5Dl6h2e5ckPhcub8GPXh0gYDHyax9915h/RK7IQM+UGeR6+lHl8R1cyW7RgHv00XVw+sKXn+vcw1S5uBBwCOXwHXVoz2vIQJ+m5//VB15wM/VS/Q1urkWffuA923Fe8mqj9kTP30f6jU5ix4EPHLxXt3N/9u7g5WGgTAKo+//1g6SRbjQ6M+gTC5ncRYKxk5a86UzNYn4bH6w6fjAD2ISYYjAT/8lbv+kLD8YOLppywr+sYG/9lvu44j0x7HGz8YYYpyT19Uak/V3BJ53iIPc9gErD/IrhscHPu6eF9c0f7oX/M/7bY1v9k50vhafJw+T+8EfG/g8KcnHfj03OUMR+zuWQx5O1mK8+fr6/np933XpEXje48d18/31/OMDfx3Apxe2uccnx5lT83MZyv2L8+Q+Pz7wcQ/2uSvuaxuDKfdHpuYReN7jCuDu9HxGJ9/lHB/4K/K3aId4B/lhOSK391eBz30z3dZrAn8Z3BcgnqfBkkds//GkYT23R/z90kfg2RABGk8fz9eHV/BfEfj771qPOWciYvr74UNa/xf4fNy/uSLfKwN/n4bPpZJ8DpatE4k13k/bNiWPwAMAAg8ACDwAdBJ4ACgk8ABQSOABoJDAA0AhgQeAQgIPAIUEHgAKCTwAFBJ4ACgk8ABQSOABoJDAA0AhgQeAQgIPAIUEHgAKCTwAFBJ4ACgk8ABQSOABoJDAA0AhgQeAQgIPAIUEHgAKCTwAFBJ4ACgk8ABQSOABoJDAA0AhgQeAQgIPAIUEHgAKCTwAFBJ4ACgk8ABQSOABoJDAA0AhgQeAQgIPAIUEHgAKCTwAFBJ4ACgk8ABQSOABoJDAA0AhgQeAQgIPAIUEHgAKCTwAFBJ4ACgk8ABQSOABoJDAA0AhgQeAQgIPAIUEHgAKCTwAFBJ4ACgk8ABQSOABoJDAA0AhgQeAQgIPAIUEHgAKfQEvT4eWUg8G+gAAAABJRU5ErkJggg==;" vertex="1" parent="1">
          <mxGeometry x="2230" y="1530" width="314" height="224.29" as="geometry" />
        </mxCell>
        <mxCell id="07vgb-UoSSxsXepg9ZPe-20" value="" style="shape=image;verticalLabelPosition=bottom;labelBackgroundColor=default;verticalAlign=top;aspect=fixed;imageAspect=0;image=data:image/png,iVBORw0KGgoAAAANSUhEUgAAAOEAAADhCAMAAAAJbSJIAAAAdVBMVEUhc0b///8Wb0Bpl3sAajYAZS0dcUMZc0TH1801flUNcD8EbDmsxbYAZzERbj5gkXPr8u+Dp5GWtaKivKwseE4+f1nh6uVXj27w9fLO3dS90cVxnoP3+vmJrZfb5t+zyrybuqd4o4lJh2MAXx9akHDT4tpQimg5//oLAAAI6klEQVR4nO2d7ZaqOgyGGQYZFUFURFT8POr9X+KhIKM0YWhRbMru+2evNXRXHgNpmqbV+uq7LNU30LlUE6bxZj7ddvkJCgmT9eK0tH0n8L67/BglhOn+sLv8DBwvcK1Mdq8I4+FxG3kZm239qi+EyXpyuo2zh9J2rar0J0z3m/nFdqqG6wthOFxsl55fx6Y1YXI9zG5+9lAG/EPZA0I2xI280lM2SyfCkA1xPuZNekB4PexWliNuOJ0Ic2+Se0p5OOqEaWa4WzYMCHgT/Qgzb/I98ls9lOQJ84DZcSS9iSaELGCO3mQ4YoRpmAXM1uAFb0KYMLlOZmc3M1wXbIoJs+n3bprP4v4KKjUlZA/lKPC7eSgVE7KAeTUWCpj1I2RDHD/97gthmE2/z55swKwL4Wa3GrcLmHUh/PxD+WlCAjKEfSOcO+P3aTRLVNMxcYTBG7t2vcsbe2utDgmJyBDqL0Oovwyh/jKE+ssQ6q8q4e6/ASKnaOpi13ippcEkMnta54juqLnl19ePaiAgEcKhITSESmUIDaEhVC9DaAgNoXoZQkNoCNXLEBpCQ6hehpCJaibKde2guX6sSni0RoiiohMC2cQcyfMcJy+0jc6r7Wy+akDkMsKei6nb2xaXe96edovJZniNwyS933NTSRKNnHf2vGVi5snsU99skMDXYu419K2Y0HZ83x94P6PbNDPPfHLI7DOubYz4jLTxjtUS2ts4DlPupmd1N+GsIeGOOKEV8HiZ9j7eFnPmSU3bJ/ErMz6i+5PuYtd4yRLO4V1/LXHX5k1g01p71xEmIaLkkCO6oxS7ykl2PPQQI05w5+HApqHAN6o6pvGOsI8UHVWDGWy5FXirVBO6NmJE9Mb9GLSLRV4K1YSWt4CdrJE7t2+w3beIY1ROaHlILxH0Nc4GtNoLxYgECBEjHoFxXGRzykWohlw9IXbvCbBOAD0S9iyTJETHOWAeH4akZ7EZAQFC96fuIx8K4BEsQ8HoggAhakRuyuZfQYuayIckoRvBfqoRtbsEDTZ/zLLIEVrOAfQTV3yNBxsgAwphQsyIt2cCB1w+iJqQBiFmxGeEYAcuC5uQCCHSd/o0wYAh6UTYhEQIsZjsMfWzL+BibaaDLCHiLB9TfWfIXzs2pZ/oEWJGLAc8GNY1p58IEiJGXNwNBUNzqXQSFULLB49ien9MPT4kTcTdDCVC+wz6+s7Db/vE/705gyhL+JmVGWjEYno02HN/Fkk/1RJOLlNEZXiBXePVfo0DMSIb1l3w55NcUpffQ2ojKu8au8arNWBmRJDSZoMCcLKx1FuoPOdduRWQawoHyORRKP303C0dQmQSuLJBUjyWXaKkRAiNuHH8kPuTWPrpuVdChIgRx7yrv8qujPCEAw9RiR00SyJexG4GhNgzfgg5S/uyKuF6guk+wkaTRbNeWxH3+bGPD2cEM4j1hLg+V4thTxu6lzchnaitEDBiVRt5E1IjDP6+nVGLl4AYoTWAa2gPiaefCBMiye2HxNNPhAmxhdBSEuknyoR/GPGn1VBEjtAa8HFaqUW7cIIeYXDCe04lMoi0CbGqEibpSQVZQqyqJJfk3J4uoY+bUDo/Q5bQw+rACsnl2KgSulgt311JK2dKjdBBVrx/JbNcQZUQWyt9Ug8IkQWaZ7UZ9GkRIuszVVndnKv/OUKY2efUYv5EKosB0okbkAaXn0BVCTczTMUakBXt0KtVvZSJAtnEFfj+5fMYXDbRx1KEZfZHIJv4Ur4V5KHCASxnk85FUcoIg8nvLoAliaLlbL8iRAimTWmAlWbeJI1IiBDs+WGOEw6Qsnl9OoQeKHxixRhIefdUzoh0CEHIXRgLZqYkp8Iia8Dld9bpGjDceFHsSUBq2kR2WdQRHr63iFb3+8au8WoLCNd6y5oSuKsmfHu1ySdiGjhrKuv1kQpigd1OcoSfqGuDnZdBNhKNS02FiRD6YFB4VDkjNd4y+QwahEgtzWNgRxKoqXa1ibCU5nnTFpJ9k8hnkCC0V6CfZ2eC7RsSnwqTIIQrv5UKUuyTxdehKBAiC7/VbaSwSFjCiBQIQVUQv5yNFHprtaMEWajgi0qwFTeNdgWBGuCydvbpS0BS/frs7EJCaxB4ui7yUdrszkN2ycJJHLKpRnQqrJwQG+zgcA4rhb902SWL7ZHF0r5YiYYeO52xxw97wZC3VY/d6lin+MkfY2RdUYcTB7CFCjxJgW2lFVraV0uIOZAUNwy6LCWSz1BLiExua9cIsbYiU+EqYTzEVGRM3GiNXq1KihCLN2tXl9BKorTZiHydt4Po/j252DVeMoCWgwwB/E78p9ZYDUPzVFhlRti9xTGISVe1wzjqa9LGH8ZUmvN2HXbQl7W8sGPYDpvhPkz29U8BvgRecyDRQwSy+uywtvIoPe+vG8CLwJtqMgkQCsueHqrH7eVqmgrrRGjZ5ZGJtjU6T0+7eX7CYNTwn3QifMgtzr0MvGb3bX5Jh4nq+aViUj176l6G0BAaQvUyhIbQEKqXITSEhlC9DKEhNITqZQj/DcI+5WkWoyWiskApEpBaGkwyvzODXiP6kzQPaZoRlpAh1F+G8BW5y3f21lZdEtqtd9C8U10SBsd39tZWXRI663f21ladPqVf7+ytrTokDLZ9J/TXPSdke5ne11t7iZzu2UrOOKRIiJ/u2U6snks1HZPIDLi9VNMxdUzosfIetZPGjgnTeDOfjooypn4SFv+k18Nu5TrsF257SlgoXE9Ot7HvNP9Isa6Ed87h8bQMMs5PvZ4fJ8yVvZ7H72jwETekhvCu/WF+ibp+PZUS5koyN3RzunO36gkLhevF6fzThRuiQpgrzdzQduS89/UkRXhXFiV8F1HCOzgpEuYqogTvdTdElrBQsp7MVmP/FU7ihIXy17NtlKAFYS4WxLeJEvQhLJRKRwm6ERZK1odZESU0c+pJWCiPEsZNr6fOhLnSOHND0R9RgvaEhdjrOY3Qx7YnhIVYlHCzM3s+n4zXK8JCLJdw9n7t2UPCQuz1HI19L/D6SpgrT/X99bsuL0s1YffqP+H/uq7soAajBBcAAAAASUVORK5CYII=;" vertex="1" parent="1">
          <mxGeometry x="1710" y="1505.0000000000002" width="240" height="240" as="geometry" />
        </mxCell>
        <mxCell id="07vgb-UoSSxsXepg9ZPe-21" value="" style="endArrow=classic;html=1;rounded=0;entryX=0;entryY=0.5;entryDx=0;entryDy=0;strokeWidth=4;exitX=1;exitY=0.5;exitDx=0;exitDy=0;" edge="1" parent="1" source="07vgb-UoSSxsXepg9ZPe-12" target="07vgb-UoSSxsXepg9ZPe-20">
          <mxGeometry width="50" height="50" relative="1" as="geometry">
            <mxPoint x="1380" y="1640" as="sourcePoint" />
            <mxPoint x="1700" y="1630" as="targetPoint" />
          </mxGeometry>
        </mxCell>
        <mxCell id="07vgb-UoSSxsXepg9ZPe-22" value="" style="endArrow=classic;html=1;rounded=0;strokeWidth=4;" edge="1" parent="1" target="07vgb-UoSSxsXepg9ZPe-18">
          <mxGeometry width="50" height="50" relative="1" as="geometry">
            <mxPoint x="1960" y="1640" as="sourcePoint" />
            <mxPoint x="2010" y="1590" as="targetPoint" />
          </mxGeometry>
        </mxCell>
        <mxCell id="07vgb-UoSSxsXepg9ZPe-26" value="" style="shape=image;verticalLabelPosition=bottom;labelBackgroundColor=default;verticalAlign=top;aspect=fixed;imageAspect=0;image=data:image/jpeg,/9j/4AAQSkZJRgABAQAAAQABAAD/2wCEAAkGBxMSEhQTEhMVFhUWGBYWFhgYGBcYGRcVFxgWFxUXHxkaHyggGBslHhgZIjEhJSkrLi4uFx8zODMsNygtLi0BCgoKDg0OGxAQGy0mHyUtMDYxLS8rLS8wMi8tMC0tLy0wLS0tKy4vNi0tLS0rMis3LS01Ly0tLS0rLS0wLS03Nf/AABEIAHgBowMBEQACEQEDEQH/xAAcAAEAAgMBAQEAAAAAAAAAAAAABgcEBQgDAgH/xABREAABAwICBgUFCQwJAwUAAAABAAIDBBEFEgYHITFBURMiYXGBFDJykaEIIzRCdIKxsrMzNVJUYnOSk6LB0dIWF0VTg4TCw/AVY+EkQ0TT8f/EABwBAQACAwEBAQAAAAAAAAAAAAAEBQEDBgIHCP/EADkRAQABAgIGBgcIAwEBAAAAAAABAgMEEQUSITFBURMigaGx4QYyYXGR0fAUFSM0QlJiwTNy8UMH/9oADAMBAAIRAxEAPwC8UBAQEBAQEBAQEBAQEBBjvrGCRsV+u4E25AcTyXqKKpp1uDVN+iLkWs+tMZ5eyOLIXltEBAQEBAQEBAQEBAQEBAQEBAQEBAQEBAQEBAQEBAQEBAQEBAQEBBg41Xup4XSthkmyC5ZFlLyOJAcRmtyG3ldJZiM5yQGPXPSO3U9T6ov51onEURvT6dG3at0x9dj1GuCl/F6n1Rfzrz9rttsaHvzxjv8Ak/f636X8XqfVF/Osfa7bP3Nf5x3/ACDrfpfxap9UX86fa7bE6HvxG+O/5Pqm1yYc7zm1EfpRg2/QcVui7TKHVhLscEjwbTjD6ohsNVGXHYGOvG8nkGyAE+C9xVE7mmq3XTvhIVl4EBAQEGsxzFm07Obz5rf3nsUjD4eq9VlG7jKu0lpG3gretO2qd0fXBGtGZnPq8zzdxDiT4KyxtFNFiKad2bmtBX67+PquXJzmaZ8YThUrthAQEBAQEBAQEBAQEBAQEBAQEBAQEBAQEBAQEBAQEBAQEBAQEBAQEFaaxdXImLqqjaBNtdJENgl5ubwEnsd3749+xrxnG9Z4HHdFOrX6vgqWMbbEWINiDsII2EEcCqmuJicpdXaqpqjOGQ1gWrNKiiH10SxrM9HDCr6IHrDx/it1q7O6ULFYSJ68drWS0wPBSqbisrsRMLL1a6x5ILU1Y50kQ8yTaXxt5Hi9o9YHO1lvpxOr625W3dH6+fR7+XPzXZTztkaHscHNcLtcDcEHiCFMiYnbCpmJicpeiywIMDGMUbTsudrj5reZ/cO1brFiq9Vqwg6Qx9vB2tevfwjnP1vnyQGqqHSOL3m7j/y3cugt26bdOrS+c4rFXMTcm5cnbP1lDZaJ/CW9zvoUXSH+HtXHo1+bn/WfGE7VG7wQEBAQEBAQEBAQEBAQEBAQEBAQEBAQEBAQEBAQEBAQEBAQEBAQEBAQQLWDoC2rvUUwDakecNzZgBuPBr+TvA8CI9+xFyM43rLAaQqsTq1bafD65Kd6zHOY9pa5pLXNcLFpG8EcCqe5bmmcpdfYv01xExOcPYPWrJKiozpkzrQ1tTHlNuB2hSaKs4Vl6iKKsuDxZ1XNdyPs4+xe520zCPllVFSdaKaWTUDrDrwk3fGT63NPxXew8eY8YfFVW9k7mvH6NpvbY2Vc/mujBcXhqoxLA/M07DwLTxa4cCrmiumuM6XLXbVdqrVrjKX3ieINgZmd80cXHl/5Ui1aqu1atKBjMZbwlqblzsjnPKEArqt8zy952n1AcAOxdBZtU2qdWl84xuNuYu7Ny52Ryjk8bLYhtvon8Jb3O+hQdIf4u10Xo1+cn/WfGE6VI7wQEBAQEBAQEBAQEBAQEBAQEBAQEBAQEBAQEBAQEBAQEBAQEBAQEBAQEEO090HZXN6WOzKlo6ruEgG5j/3O3jtGxab1mLke1OwWNqw9XOnl8lIyU0zJjTujcJg7IYyOtm4DlbjfdbbeyrPs9U16kRtdRTjbfR9Jn1eawaXQiDoGtkLum3uka47Cfihp2Fo7rnsV5Roi30cRV63NzVz0hvdNNVHq8p+s0N0o0cmphd3XZfqyNGzucPin2btqrL+Brw9We+nmurGk7WMoyp2VRty+XNGw+4UfLJtirOG/btAPYPoVfOyVtlrUxLNwXF5qOUSwOsdzgdrXt/BcOI9o4LfZv1W5zhX4vBUXqcqoTiLHxXXfezhvZ+AOzmO3/wDF2mi8TZu28qN/GOP/AB8T9LMBjsLida/ttz6kxu93sq58+Gx+kK1zctm/LIy2mi0gFUxpIzFryBxIA2nu2j1hQdIT+F2uj9GaZnFTVlsimfGE8VK7sQEBAQEBAQEBAQEBAQEBAQEGNUYhDGbPljYeTntafaUHtFIHC7SCDxBuPWEH2gICAgICAgICAgICAgICAgICAgICAg/CUEKxuWKacStY3MxpY2S3WLSbnby5d55lWmGwsU9erf4K2/jJqzopnq+LH6RS8kXpJfZAe0teA5rhYg7QQd4IWuuiKoylJs3qqaoqpnKYU3phgXkVQWtv0TwXxE/g8WHtafYQeK5vGYboq9m51+BxfS0Zzvjey4vNHcPoVBVvl1lPqw/SsQxVDIwWF7qiMMJBvckcGja72bPFWGj6K68RTFE5Tnv9nFzfpHfsYfR965fiJp1d08ZnZTHxy92/gsFzV38S/PUS1OLYyyEFretJy4N9I/u3929YmU7C4Ou9tnZTz+XzNVOeXEZZnm5EDhfld8eUDkLByrcdPVj3u40Papt500RlEQuBVi8EBAQEER1jadR4TFG90fSvleWsjD8hLWi733sdgu0bvjBBotAdbkeJVQpXU5gc5rnMJlD8zm7Sy2RtjlzH5pQWWgICCH6faw6bCsjZWvklkF2xstfKNmdxPmi4sN97HkUHpoFp9TYq1/Qh7JI7Z432uA69nAjY5uwjmOI2i4SxAQEBAQUDrk1mTGeSho5DHHESyaRhs58g89gcNrWtOw2sSQeG8ILg+rvFKyMTw0r3MftDnPjZmv8AGHSOBcDz3IL/ANW2By0WDiGdnRzAVDntu02Jc/LtaSD1Q07Cg540OxKY19GDNIQamnBBe4gjpWbLXQdgICAgICAgICAgICAgICAgICAgICAgjekWJ3vCw7Nzzz/J/j6uasMJh/8A0q7PmrsZfz/Dp7fk0QYrDNBih9ZUzetR9NCxL3TGUozrNoRJSNdxjlZY9kh6Nw9ZafBVekqfwpq5L3RNU9NFHNDgVxj6HFRv2AEk7ABtJPAW4lZppmZyh4uXIpiZmcojilWDRx0jS6Ugyu3tbtLRwbyB5/8AhdponR04ejWqjrT3RyfE/SzTVel78WMN/honfu1qv3e6N0ds8dmPiGNySbG9RvZ5x8eHh61c6qgsYK3b21bZ7vg0stgEnYsac5lZGpzDyIp6gj7o4Mb2tjvcjszOI+aqfHV51xTydLoy3q25qnisRQVkICAgIOV9c2knluJSBpvFT+8R8iWn3x3i+4vxDWoI4zyjDa1pc0snppGuLSeLSHWNt4I9YKDr/B8SZUwRTxm7JWNe3ucL2PaNx7kGYgIKk10auKnEJY6qks+RsYifEXBpIDnOa5rnWF+sQQSNwQe+pfV7UYcZairytkkaI2xtcHZW3DnFzh1bkgbATu37UFqICAgIPmR1gTyBKDjDDmGqrIxJtM87A/t6SQZvpKDs+KMNAa0ANAAAGwADYAOxB4Yl9yk9B/1Sg4+0L++FF8pp/tWIOykBAQEBAQEBAQEBAQEBAQEBAQEBBGtMNKIqRuTN744bGt2uA59nebfQpeEw03as+CNiL2pGUb1czaTSu+5sawdvWd+4ewq/owvOVbnEbmK7GKk75j4NYPoatv2ajkzry+P+sVN7CVxPAWafYQvFdm1RE1VbIj2sTcyjOZ2NnR4jWfGdGfSaL/sWCob+lsHROVGdXu3d6uuaYs0TlTt+vrg0OnuI4jK6GGnjDo32zBjQc0jXZgHF1yxoyg3uN527NkOrERjYm3TE7eHFZ6M07Ypzu1TFE085z2fWzLe95NGpW77kfkgH99/YtVHo9OfXuR2R/wAW1X/0PCTH4duc/wCU5eEVPhtOYt0cgPMtdf12t6ld4PR2Gwu2mM55zv8AJzekvSHE6SjUrriKP20zs7duc9uzlDxc934LvUVPmuFVEUxxj4vqOjmf5sTz3jKPW6wXmanmq9Zo9auPjn4JDo5oO+okHTuswbXNby5F3DuHrUXE3+jp9qTo6Zxt3VtR1Y31T4RHOfbu35LcpKZkTGxxtDWNAa1o2AAKlmZmc5dpTTFMZRueywyICAgi2svST/p+HzTg2kI6OH86+4aR6Iu75pQc+andHvLcThDheOH3+TuYRkHi8t2croJb7ozR7JPDXMGyUdFKf+4wXYT2llx/hoN77nXSTpKeWheetCTLEP8AtPPXA9F5v/iBBcSAg1+K43TUuXymohhz3y9JI1mbLbNbMRe1x6wg+sLxinqQ51PPFMGmzjG9rwCdoBLSbFBnINI/TDDw4sNdShwOUtM0dw4GxFr777LINliOIRQRmSeRkbBvc9wa0ctp4oIxQ6z8KmmZBFVZpHvEbAIprOe45QM2S2/je3agzqjTTDcrh5fSXsRbp499vSQco6LytZWUrnkNa2eFznE2AaJGkkk7gAg6x/pthv4/Sfr4v5kG2xE+8yeg/wCqUHH2hf3wovlNP9qxB2UgIMevrooGGSaRkbBvc9wa0eJ2IIjUa2cHY4tNYCRvyxzOH6TWEHwKDaYHpzh1YQ2nq4nOOwMJMbyexkgDj4BBIkAlBoP6bYb+P0n6+L+ZBvwUBBp63Suhhe6OWspo3t2OY+aNrmm19oJuNhQbCgrYp42ywyMkjdfK9jg5psS02cNhsQR4IMhBrsUx2lpi0VFRDCXXLRJIxmYDfbMRfeg+8LxinqQXU88UwabOMb2vAO+xLSbFBnICAgIPOpmDGOe7c1pce5ouVmIz2Dn19Q6eR88m18ji89l9w7gLAdgXW4a1FFEUxwUtdU1TNU8WXFGXGzRc9n/NilTMUxteJmIbCHC+Lz4D+KjXcRFNM1TsiOLRXeiIZLGNb5oA/wCc95XCaR0jXi6/4xuj+59vg5vF4uu/Vl+nl/ZdViIxxV5aqnbwdnB7yLN9ot4qz0VXq4mn25w2zZ1sNcq5ZeaTLrlOICD2pad0jgxo2n2Die5eLtyLdOtKXgcFcxl6LVvtnlHP69ya0FG2Jga3xPM8SqO5cm5VrS+o4PCW8JZi1bjZHfPOWSvCUICAgIOdPdCaSdNWMo2HqUwu/kZpACe/K3KOwucEE69z/o95PQOqXCz6p1xzEUd2s9ZL3doLUEt1i6P+X4fUQAXeW54vzrOswdl7Ze5xQcw6A6QnD6+Co25GuyyjnE7qybOJA2gc2hB2Ax4IBBuCLgjiDuKD6QUd7pn+z/8AM/7CDO9zX8Fq/wA6z6iC40HGumItiFbbZapqLeEr0EuxeXENJa6TydrjBGbRhxyxwxnY1zj+G61zvO8DYNgSvRLUvV0tZTVMk9O4RSNe9rTJezduwlu037kGiqtRmI3e7paS13O8+XdtP90grLDqN00scLLB0j2RtJ3ZnuDRe3C5QWX/AFD4l/e0n6yX/wCpB0LWttA8co3fVKDkDQv74UXymn+1Yg7KQRnWBphFhdKZnjM9xyQx/hyWvt5NG8nw3kIOaKmqxDG6sA555nXLGDYyNuy9gTljYLDad+y5JKCwKHUBO5gM1ZGx/wCCyN0gHzi5v0IIzprqlrcPjdMC2ohbtc+O4cwc3MO0DtBNuNkG91T61ZYZGUldIZIHnKyV5JdE4nqguO0x8Nvm9wsg6GQcj60cD8jxOpiAsxz+lj5ZJeuAOwElvzUHSOrTGfK8MpZSbu6MRvPHPH724nvy38UEhrKlsUb5HmzGNc9x5NaCXH1BBxdjOIuqZ5p3+dLI+Q7b2L3F1u4Xt4IL59znjfSUk9I47YHh7fzct9g7nNcfnhBbyDl3XnjHlGKyMB6tO1sLduy4Gd5twOZxHzQguvU1gfkuFQXFnzXqH/4lsn7AZ7UE3QEBAQaDTyfJh9UecZZ+nZn+pb8NGd2n3tV6crdXuVDg9AXgE7G8+J7v4rqYryjYo67sU7OKQxRtYLNFh/z1rxO3bKNVXMviVy570gxE0W6bMfq2z7o4fHb2K3H3JiiKY4vO65NUv0LMEozpK8idpBsWtaQeRzOIK9a00TFUb4XGj6YmzMTxmfCE1wXEhURB42O3OHJ3Hw5LtMHi6cTb1o38Y5S5zF4acPcmmd3CfYz1LRn6OA5kAd5NgPWsVVRTGcvdq1XdriiiM5mcoTPB8NELdu1584/uHYqW/em7VnwfT9FaMowNnV31T60+3l7o82wWhaCAgICDWaS4yyipZqmTzYmF1t2Z25je9ziGjvQcj4ZSTYlXMYTeWpm6zuRe7NI+3IC5t2IOw6GmZDGyKMBrI2tYwcmtADR6gg98w5oOVNcOj/keJzBotHN7/Hys8nOPB4ds5WQXTqO0j8rw1kbj75S2hd+bA95d3Zer8woLDQUd7pn+z/8AM/7CDO9zX8Fq/wA6z6iC40HG2mv3xrflVR9q9B1Hq3wJlFh1PE1oDnMbJIeLpZAHPJ5280djQgkyDzqfMd6J+hBxtoj8Oo/lEH2jUHZqDGxL7lJ6D/qlBx9oX98KL5TT/asQdlIOZdfmMumxN0NzkpmMY0cMz2tke7v6zR8wILQ1DaOtp8ObUFvvtSS9xO8RtJbG3u2F3z+xBZSD8cLix2goOSdaOjzaDEp4YxaIkSxDkyQZso7GnM0djQg6I1TYw6qwqmkeSXtaYnEm5JicWAkneS0NJ7SggXukcDuymrWja0mCQ24G74+4Ah/6QQfvubcZvHVUhPmubOwdjhkk8AWs/SQSvXjjXk2FSNBs+oc2BvcetJ4ZGuHzggqnVHoV5fT4i9zb+89DCTu6Y++A9haWR+D0Gv1KY15LisTXGzZw6nffm+xj8c7WjxKDp3E61sEMsz/NiY+R3osaXH6EHIeA0T8SxGON211TPmkI5OcXyu8BmPgg7DjYGgNAsAAAOQG4IPpAQEBBoNO4g+ika4XBMdxztI0/uUzARE4imJ9vhKHpCuaMPVMezxhX8Z2LpJhzNMvolYe5l5vctV/DW8RRNu5GcNNzVmMqtz7q8OmjjZK9hDH+a76L8r8L718/x+E+y3JppnWp5/1Pz3Si4jRt61RFyY6s93vY8T7qJTOauqjJHdJh78O1jfpcF6ucFto+fwe2f6eWC1b43dQ2O8cjzBHEfwWLeJu4euLluff7fe94uzRcp60bExoNII37JOo7t80+PDxXU4PTdi9GVfVq9u74/Nz97R9yjbRtjv8Ag0WkuJmY9Gw+9tP6Z59w4evkqjS2k+mq6O3PVjvn5LPR+GizGvV609yXaCadEZaasdyEcp9jXn6HevmteExmt1K9/N12Cx8VdS5O3hKy1ZLYQEBAQUj7ozSWzYaBh2u9+m9EXETfE5nW/Jagp/CdGqyqYX09NNKwHKXMY5wDrA2uONiPWgzv6B4n+IVP6p/8ED+geJ/iFT+qf/BB41mh2IRMdJLR1DGMF3OdG4Bo4km2wIJDqU0k8jxJjXG0VTaB/IOcfenfpWF+AeUHUqCjvdM/2f8A5n/YQZ3ua/gtX+dZ9RBcaDjbTX741vyqo+1eg7Bw77lH6DPqhBkIPOp8x3on6EHG2iPw6j+UQfaNQdmoMbEvuUnoP+qUHH2hf3wovlNP9qxB2Ug5R1zQFmMVdx5xjcO0OijOznxHgUF/6paxsuEUZb8WPoz2Ojc5h+i/iEEvQEHMev2sbJizmt3xRRRu9La/6HhBbWoiAtwiEn475XDuzlv+koJDp/gnluH1NOBdzoy6P84zrx/tNA8Sg5y1O4z5LitOSbNlJgf2iXYz9vIfBBJvdF410lZDStPVgjzO2/8AuS2NiOxjWH5xQWtqiwTyTC6dpFnyDp37LHNL1mgjmGZG/NQUHrTwt1Bi8xju0Oe2piI4ZznuO54cPmoLZ1s6WNfgUckZsa0RNAHAEdJIP2Sw+kgiPucsDz1U9W4bIWCNn5yTeR2hrSPnoOg0BAQEBBotNfgknez67VN0d+Zp7fCUDSf5Wrs8YV2xdJLmqR7kiCqpJdEdHekInmHUG1jT8c8HH8nkOPdvqtIY3VztW528Z/r5rXR2B18r1yNnCP7+XxTmaJr2lrgHNIsQRcEcrKimImMpX1URVGU7lfaR6JugJlgBdFvc3e5n73N9o9qqcRg5tzrW93Lk5bSehppzuWIzjjHL3IFpPHfo397T9Lf9XqUaZzpzVWj6stajt+u5pWOIII3ha1jMRMZS3DbOAcOP/LKJVTNM5IE50zlL5LFjNnN5SxL3TU901ppoPpwYMtPVOJi3MkO+Pk13Nnbw7t1xhMb+iv4r7A6Q3UXOyVqtcCAQbg7QRxCtV2/UBB5VVQ2NjpHkNYxpc4ncGtF3HwAQcc6V40+vrJ6lwN5X3a3iGizY27N5DQ0eCDqrQDR8UFBBT267W5pO2V/Wft42JsOwBBIUBB41lMyWN8UgDmSNcx4O4tcC1w8QUHG+kuEPoquamdfNDIWg7iW7437N12lrvFB1Vq70iGIUEFQTd+XJL2Ss2P7r+cBycEFZe6Z/s/8AzP8AsIM73NfwWr/Os+oguNBxtpr98a35VUfavQdg4f8Aco/QZ9UIMhB51PmO9E/Qg420R+HUfyiD7RqDs1BjYl9yk9B/1Sg4+0L++FF8pp/tWIOykFOe6B0OdNGzEIWkuhbknA2kw3u19vySXX7HX3NQQfVDrGGGPdBUZjSyuzXG0xSWsXgb3NIABHYCOIIdCUGlFFO3PFVQObv2SNuO8E3HigjOm2tSioY3CKVlRUWIZHG4OaHc3vbsaByvc+0BzthGG1OLV2Rt3zTvL5H22NBN5JHcA0X3dwG0gIOusGw1lNBFTxCzImNY3nZotc9p3nvQZiDkvWbhDqDFZ2su0F/TxEbLNkOcW9F12/NQeeHiTGcXZ0g21MwLwD5sQ2vAP5MbSB3IOt2tAFhsA2BBTPukMDzQ09Y0bY3GGTZ8V/WYb8gWuHz0FL1+OSS0tNSu8ym6bJ/jOD3e0e1B0vqawPyTCoLiz5rzv/xLZP2Az2oJwgICAgINFpt8Dk72fXapujvzNPb4SgaT/K19njCuA5dLMOXirYkWimj3TkSyj3oHYP7wj/T9KrMfjejjo7frcZ5efgtNH4Hpp6W5HV4Rz8vH3b7BAtuVA6N+oCCG6X6FtnjeYAGuO3LwLhtBHI8xxuVEvYWmrOad6kxuioqudPY2VcY4T8p7s9/NS88bmOcx7S1zSQ4HYQRvCqKqZicpV00zG960VVkNj5p9h5rXXRrQ03rWtGcb2xc9RckSIfJcs5PWTwlAK90tlOcJVoRpu6kIhqCXU+4HeYu7mzs4cORtcJi9Xq17l1gsdNHUr3eC4IJmvaHMcHNcAWkG4IO4g8QreJzXkTExnD7RlG9YGC1FbRSU1NIyN0pDXufm+53u4DKDtNgO4lBW2h+pOamrIJ6ieGSOJ/SFjc9y5oJZvAFg7KT3ILtQEBAQVdrS1WvxOojqIJY43ZMkmfN1spuxwyg7bEg35NQZ2qjQirwrpmTTRSQyWcAzPdsg2E2LQLFu/b8VqBra0BmxbyboZY4+h6XNnzbek6O1soP4B9aDJ1UaEy4VFPHNJHIZHteCzNsAbaxzAIJ0gonH9SFXUVVRO2ppwJZpZAD0lwHvc4A2bv2oLxpY8rGNO9rWg+AAQeqD4lbdpHMEetBROCajquCogmdU05EcschA6S5DHhxA6u/YgvlB5VcRcx7Rvc1wHiCEFG4DqQq4KmnndU05EUsUhA6S5DHtcQOrv2IL3QfhF96CptM9SNPUOdLRPFM87TGReEnsA2x+FxyAQV3ValsWYbNjikHNsrQP28p9iDa4JqIrXuBqZooWccpMj+62xvjmQXRodobS4ZGWUzOs62eR22R5G654D8kWG/ZclBIUBBW2tfVs/FZIJYZI43xtcx5eHdZlw5gGUHcS/wDSQYmq/VXJhlU6pnlikPRlkYZm6pcRmccwHAW+cUFqINLpngIr6KelJAMjeqTezZGkOjcbbbBwF+y6CmKbUHVZ29JUwFmZufL0l8txmtdu+17IL/jYGgNAsAAAOQGwBB9ICAgICDQ6cH/0cnez67VO0d+Zp7fCVfpX8pX2eMIlopo+al2eQEQtP6ZHxR2cz4d1tj8b0MalHreHn/1S6NwM4iekr9SO/wAufw5rJYwAAAAACwA3ADcFzczm6qIy3PpAQEBBpcc0WpKs3niBfuzglr+zrN3jsNwtddqiv1oarli3c9aEVq9UtOfuc8rPSDXj6Afao84Kjhmi1aOtzumWIzVS9uzywEcLwkf6ytFWjYmc9bu80arRMTOcVd3m+v6rH/jbf1R/nWPuyP3d3m8/c/8ALu834dVb/wAbb+qP86fdsfu7vM+6P5d3m836pnn/AOW39Uf516jR2X6u7ze40Vl+ru80m0M0YqKC7DVNlhNz0ZjILXHi12Y2B4i3apdm1VbjLPOE7D2KrUZa2cJYt6SICAgICAgICAgICAgICAgICAgICAgICAgICAgICAgICAgICAgICDDxbD21EZieSGktJtvIa4Ot2XtZbbN2q1XFdO+Plk037NN6ibdW6cu6c2TBC1jQ1oAa0WAG4ALXVVNU5zvbaaYpjKNz7WGRAQEH4UH6gICAgICAgICAgICAgICAgICAgICAgICAgICAgICAgICAgICAgICAgICAgIP/2Q==;" vertex="1" parent="1">
          <mxGeometry x="490" y="1150" width="558.65" height="160" as="geometry" />
        </mxCell>
        <mxCell id="07vgb-UoSSxsXepg9ZPe-29" value="&lt;font style=&quot;font-size: 29px;&quot;&gt;&lt;b&gt;CSV FILES&lt;/b&gt;&lt;/font&gt;" style="text;html=1;align=center;verticalAlign=middle;whiteSpace=wrap;rounded=0;" vertex="1" parent="1">
          <mxGeometry x="1710" y="1754.29" width="260" height="70" as="geometry" />
        </mxCell>
        <mxCell id="07vgb-UoSSxsXepg9ZPe-30" value="&lt;font style=&quot;font-size: 31px;&quot;&gt;&lt;b&gt;ETL CODE&lt;/b&gt;&lt;/font&gt;" style="text;html=1;align=center;verticalAlign=middle;whiteSpace=wrap;rounded=0;" vertex="1" parent="1">
          <mxGeometry x="1110" y="1746.79" width="300" height="85" as="geometry" />
        </mxCell>
        <mxCell id="07vgb-UoSSxsXepg9ZPe-33" value="&lt;font style=&quot;font-size: 29px;&quot;&gt;DATA SOURCE&amp;nbsp;&lt;/font&gt;&lt;div&gt;&lt;font style=&quot;font-size: 29px;&quot;&gt;API CALL&lt;/font&gt;&lt;/div&gt;" style="text;html=1;align=center;verticalAlign=middle;whiteSpace=wrap;rounded=0;" vertex="1" parent="1">
          <mxGeometry x="510" y="1754.29" width="300" height="100" as="geometry" />
        </mxCell>
        <mxCell id="07vgb-UoSSxsXepg9ZPe-34" value="&lt;font style=&quot;font-size: 28px;&quot;&gt;&lt;b&gt;EC2 Large Machine&lt;/b&gt;&lt;/font&gt;" style="text;html=1;align=center;verticalAlign=middle;whiteSpace=wrap;rounded=0;" vertex="1" parent="1">
          <mxGeometry x="1935" y="1370" width="310" height="71" as="geometry" />
        </mxCell>
      </root>
    </mxGraphModel>
  </diagram>
</mxfile>
